<?xml version="1.0" encoding="UTF-8"?>
<svg id="Layer_2" data-name="Layer 2" xmlns="http://www.w3.org/2000/svg" viewBox="0 0 352.81 246.36">
  <defs>
    <style>
      .cls-1 {
        fill: #23201b;
      }

      .cls-2 {
        fill: #212b11;
      }

      .cls-3 {
        fill: #ecece8;
      }

      .cls-4 {
        fill: #e9f7bd;
      }

      .cls-5 {
        fill: #75b219;
      }

      .cls-6 {
        fill: #254304;
      }

      .cls-7 {
        fill: #282421;
      }

      .cls-8 {
        fill: #5d802e;
      }

      .cls-9 {
        fill: #71b40d;
      }

      .cls-10 {
        fill: #72b70e;
      }

      .cls-11 {
        fill: #72b70b;
      }

      .cls-12 {
        fill: #1b1c15;
      }

      .cls-13 {
        fill: #3d3d37;
      }

      .cls-14 {
        fill: #faf9f6;
      }

      .cls-15 {
        fill: #1e1b19;
      }

      .cls-16 {
        fill: #74b711;
      }

      .cls-17 {
        fill: #f9fde6;
      }

      .cls-18 {
        fill: #182905;
      }

      .cls-19 {
        fill: #f9fde8;
      }

      .cls-20 {
        fill: #73b70c;
      }

      .cls-21 {
        fill: #f3f3f0;
      }

      .cls-22 {
        fill: #f5f4f2;
      }

      .cls-23 {
        fill: #74b60e;
      }

      .cls-24 {
        fill: #72b01d;
      }

      .cls-25 {
        fill: #243907;
      }

      .cls-26 {
        fill: #1e3905;
      }

      .cls-27 {
        fill: #7baf2a;
      }

      .cls-28 {
        fill: #fefefd;
      }

      .cls-29 {
        fill: #335909;
      }

      .cls-30 {
        fill: #77af34;
      }

      .cls-31 {
        fill: #f6f6f4;
      }

      .cls-32 {
        fill: #e3e3e0;
      }

      .cls-33 {
        fill: #f4f4f1;
      }

      .cls-34 {
        fill: #282622;
      }

      .cls-35 {
        fill: #1d1917;
      }

      .cls-36 {
        fill: #e9fabf;
      }

      .cls-37 {
        fill: #fbfbfa;
      }

      .cls-38 {
        fill: #f3f3f2;
      }

      .cls-39 {
        fill: #72b60b;
      }

      .cls-40 {
        fill: #749a38;
      }

      .cls-41 {
        fill: #fafdeb;
      }

      .cls-42 {
        fill: #699237;
      }

      .cls-43 {
        fill: #9a9c78;
      }

      .cls-44 {
        fill: #706e6d;
      }

      .cls-45 {
        fill: #edecea;
      }

      .cls-46 {
        fill: #72b60e;
      }

      .cls-47 {
        fill: #302e2b;
      }

      .cls-48 {
        fill: #282620;
      }

      .cls-49 {
        fill: #214203;
      }

      .cls-50 {
        fill: #1a3503;
      }

      .cls-51 {
        fill: #73bc0b;
      }

      .cls-52 {
        fill: #f1f1ef;
      }

      .cls-53 {
        fill: #32312d;
      }

      .cls-54 {
        fill: #181613;
      }

      .cls-55 {
        fill: #1e3f02;
      }

      .cls-56 {
        fill: #76b611;
      }

      .cls-57 {
        fill: #ecfbbf;
      }

      .cls-58 {
        fill: #1a2e05;
      }

      .cls-59 {
        fill: #2d2d26;
      }

      .cls-60 {
        fill: #e7e5e2;
      }

      .cls-61 {
        fill: #72b609;
      }

      .cls-62 {
        fill: #ebfac0;
      }

      .cls-63 {
        fill: #1d1c18;
      }

      .cls-64 {
        fill: #262521;
      }

      .cls-65 {
        fill: #1e3c03;
      }

      .cls-66 {
        fill: #1a3502;
      }

      .cls-67 {
        fill: #fbfdf1;
      }

      .cls-68 {
        fill: #72b70d;
      }

      .cls-69 {
        fill: #2b2824;
      }

      .cls-70 {
        fill: #f3f3ef;
      }

      .cls-71 {
        fill: #76c108;
      }

      .cls-72 {
        fill: #f9fcec;
      }

      .cls-73 {
        fill: #72b60f;
      }

      .cls-74 {
        fill: #e4f6b6;
      }

      .cls-75 {
        fill: #254803;
      }

      .cls-76 {
        fill: #272521;
      }

      .cls-77 {
        fill: #71b50d;
      }

      .cls-78 {
        fill: #fafafa;
      }

      .cls-79 {
        fill: none;
        stroke: #1d1c18;
        stroke-miterlimit: 10;
        stroke-width: 1.59px;
      }

      .cls-80 {
        fill: #eeede7;
      }

      .cls-81 {
        fill: #ebebea;
      }

      .cls-82 {
        fill: #f9fde7;
      }

      .cls-83 {
        fill: #eefbbf;
      }

      .cls-84 {
        fill: #f9fde9;
      }

      .cls-85 {
        fill: #ebebe6;
      }

      .cls-86 {
        fill: #fefefe;
      }

      .cls-87 {
        fill: #71a12f;
      }

      .cls-88 {
        fill: #d7d7d3;
      }

      .cls-89 {
        fill: #edfabc;
      }

      .cls-90 {
        fill: #1a200d;
      }

      .cls-91 {
        fill: #201d1b;
      }

      .cls-92 {
        fill: #8e9c72;
      }

      .cls-93 {
        fill: #7cb528;
      }

      .cls-94 {
        fill: #f6f5f4;
      }

      .cls-95 {
        fill: #72b50e;
      }

      .cls-96 {
        fill: #615d5e;
      }

      .cls-97 {
        fill: #eaeae7;
      }

      .cls-98 {
        fill: #262621;
      }

      .cls-99 {
        fill: #72b40d;
      }

      .cls-100 {
        fill: #e6f7b7;
      }

      .cls-101 {
        fill: #eefabe;
      }

      .cls-102 {
        fill: #fcfcfc;
      }

      .cls-103 {
        fill: #75a430;
      }

      .cls-104 {
        fill: #70b417;
      }

      .cls-105 {
        fill: #22221e;
      }

      .cls-106 {
        fill: #f2f2ef;
      }

      .cls-107 {
        fill: #f9fdea;
      }

      .cls-108 {
        fill: #7bbc19;
      }

      .cls-109 {
        fill: #76ac24;
      }

      .cls-110 {
        fill: #71b60c;
      }

      .cls-111 {
        fill: #7ab136;
      }

      .cls-112 {
        fill: #f6f5f1;
      }

      .cls-113 {
        fill: #e9e8e5;
      }

      .cls-114 {
        fill: #72b60c;
      }

      .cls-115 {
        fill: #e9e6db;
      }

      .cls-116 {
        fill: #353530;
      }

      .cls-117 {
        fill: #efefec;
      }

      .cls-118 {
        fill: #1b1715;
      }

      .cls-119 {
        fill: #302d27;
      }

      .cls-120 {
        fill: #d9eca8;
      }

      .cls-121 {
        fill: #41403b;
      }

      .cls-122 {
        fill: #6fb119;
      }

      .cls-123 {
        fill: #7bb336;
      }

      .cls-124 {
        fill: #e4f4b6;
      }

      .cls-125 {
        fill: #619016;
      }

      .cls-126 {
        fill: #fafdec;
      }

      .cls-127 {
        fill: #282522;
      }

      .cls-128 {
        fill: #fdfdfd;
      }
    </style>
  </defs>
  <g id="Layer_1-2" data-name="Layer 1">
    <g>
      <g>
        <path class="cls-124" d="M75.66,15.92l.08-5.39-.13-6.41c-.03-1.28-.55-2.25-1.77-2.6-.93-.26-2.56.33-2.56,1.56l-.03,7.23.09,4.72c.02,1.37,1.01,2.64,2.41,2.52l1.06-.32c-.43.66-1.29.69-2.07.45-1.94-.6-1.87-3.04-1.94-5.23l-.11-3.14c-.03-1.01-.07-1.89-.03-2.88.05-1.07-.33-2.14.06-3.22.36-.98,1.07-2.21,2.24-2.24,1.92-.06,3.13,1.75,3.17,3.56l.09,4.22c.05,2.29.39,5.68-.57,7.17Z"/>
        <g>
          <path class="cls-73" d="M270.76,228.09H93.53c-5.14-.55-9.13-4.43-9.98-9.52-.45-3.56.42-7.3,3.14-9.88,1.56-1.48,3.98-3.4,6.39-3.4l177.42-.05c6.55.74,11,6.86,9.94,13.28-.8,4.86-4.56,8.83-9.69,9.56Z"/>
          <g>
            <path class="cls-84" d="M158.43,217.66l-3.49.19c-.36.02-.31,1.13-.13,1.47l4.43.04c.12.67.13,1.25,0,1.91h-6.7s-.05-9.1-.05-9.1l6.66-.03c.18.68.16,1.22.06,1.87l-4.43.03c-.14.58-.13,1.1,0,1.7h3.62s.02,1.93.02,1.93Z"/>
            <path class="cls-107" d="M124.46,217.55l-3.53.19c-.18.49-.17,1.02,0,1.55l4.32.07c.1.67.1,1.24.02,1.91h-6.64s-.02-9.12-.02-9.12l6.48-.03c.31.59.27,1.34.07,1.92l-4.25.04c-.13.58-.13,1.06-.06,1.65l3.59.04c.28.34.35,1.41.01,1.78Z"/>
            <path class="cls-126" d="M221.84,212.16l2.16-.03-.05,6.14c-.02,2.03-2.09,3.22-4,3.16-2.08-.06-3.86-1.43-3.85-3.58l.02-5.65,2.08-.06.13,5.57c.02.96.89,1.66,1.7,1.65s1.73-.65,1.74-1.59l.07-5.61Z"/>
            <path class="cls-67" d="M137.13,221.05c-.53.29-1.84.52-2.22.04l-1.95-2.53-1.86,2.52c-.56.38-1.63.16-2.27.05.57-1.45,1.45-2.52,2.31-3.63.47-.61.4-1.02,0-1.65l-2.28-3.62c.72-.16,1.4-.16,2.19-.09l1.93,2.65,2-2.44c.42-.51,1.53-.21,2.19-.11l-2.81,4.37,2.77,4.43Z"/>
            <path class="cls-41" d="M145.23,219.33c.78-.07,1.24-.57,1.77-1.04.53.17,1.29.83,1.42,1.55-1.66,2.05-5,2.11-6.99.23-1.23-1.17-1.65-3.16-1.19-4.78s1.94-2.84,3.38-3.17c1.81-.41,3.58.08,4.8,1.42-.3.72-.75,1.2-1.3,1.65-.61-.52-1.2-1.06-1.98-1.11-1.57-.09-2.73,1.19-2.72,2.62s1.18,2.79,2.82,2.64Z"/>
            <path class="cls-17" d="M199.88,212.15c-.65,2.03-3.13,4.7-3.16,5.52l-.16,3.49c-.65.16-1.39.17-2.01.06l-.16-3.28-3.16-5.59c.6-.29,1.8-.49,2.16.02l2.11,3,2.13-3.14c.74-.16,1.44-.15,2.26-.07Z"/>
            <path class="cls-19" d="M179.19,221.2c-.78.15-1.41.12-2.11-.03l-.08-6.95c-.78-.26-1.79.11-2.46-.31-.47-.3-.2-1.29-.03-1.77l7.4-.04c.28.61.26,1.29,0,1.97l-2.76.12.03,7Z"/>
            <path class="cls-72" d="M111.72,217.19c-.81-1.25-.81.63-1.69.62-.34,0-.69-.28-.84-.6-.28-.63.8-1.21.7-1.57-.11-.41-1.17-.55-1.38-1-.13-.29,0-.61.19-.75.49-.36,1.44.18,1.67.02.33-.22.12-1.22.5-1.6.2-.2.69-.22.96-.08.5.26.23,1.31.41,1.66.16.33,1.51-.65,1.87.3s-2.05,1.01-.89,2.27c.47.52.21.92-.22,1.18-.48.28-.87.18-1.28-.45Z"/>
            <g>
              <circle class="cls-107" cx="207.28" cy="216.72" r="4.77"/>
              <path class="cls-122" d="M208.8,218.79c-.64.53-1.39.7-2.1.49-1.74-.53-2.32-2.84-1.4-4.12.42-.58,1.43-1.27,2.36-1.07,1.01.21,1.74,1.14,1.94,1.87.29,1.06.06,2.12-.8,2.84Z"/>
            </g>
            <g>
              <circle class="cls-41" cx="251.43" cy="216.71" r="4.77"/>
              <path class="cls-104" d="M250.69,219.23c-.89-.33-1.5-1.24-1.7-1.76-.25-1.04-.05-1.9.66-2.55.48-.61,1.09-.91,1.77-.94.78-.03,1.33.41,1.91,1.05.75.82.81,2.01.21,3-.53.86-1.61,1.67-2.85,1.2Z"/>
            </g>
            <g>
              <path class="cls-82" d="M242.87,216.46c.12,2.57-1.45,4.75-3.98,4.76l-4.03.03-.03-9.08,4.55.08c2.14.45,3.38,2.02,3.48,4.21Z"/>
              <path class="cls-24" d="M237.04,219.15l-.03-4.95c1.11-.3,2.38-.01,3.04.77.76.9.69,2.19.21,3.06-.61,1.1-1.75,1.41-3.21,1.11Z"/>
            </g>
            <g>
              <path class="cls-107" d="M165.8,218.72l-.12,2.52c-.76.07-1.36.1-2.12-.07v-9s3.81-.04,3.81-.04c1.41-.02,2.64.79,3.11,1.92.53,1.29.47,2.84-.59,3.74s-2.54,1.04-4.09.93Z"/>
              <path class="cls-103" d="M167.07,216.83c-.48,0-.8.04-1.21-.07-.07-.81-.21-1.69.06-2.48.15-.43,2.42-.49,2.61.92.11.84-.4,1.61-1.46,1.63Z"/>
            </g>
          </g>
        </g>
        <g>
          <path class="cls-78" d="M80.15,237.82c.69-.17,1.32-.15,1.99,0l-2.42,8.44c-.64.07-1.17.07-1.81-.03l-1.46-5.05-1.72,4.91c-.33.32-1.29.22-1.79.04l-2.34-8.31c.65-.12,1.23-.09,1.96-.05l1.5,5.05,1.54-4.93c.34-.27,1.18-.26,1.54-.02l1.65,4.95,1.37-4.99Z"/>
          <path class="cls-78" d="M278.5,246.08c-.66.24-1.18.15-1.84.11l-3.6-5.02-.07,4.97c-.58.1-1.17.11-1.81,0v-8.3c.5-.13,1.39-.25,1.76.06l3.53,4.74.08-4.8c.62-.08,1.19-.08,1.96.02v8.23Z"/>
          <path class="cls-78" d="M265.39,246.07c-.52.15-1.39.25-1.79-.02l-3.63-4.77-.12,4.83c-.61.11-1.13.11-1.74,0v-8.39s1.77.02,1.77.02l3.54,4.84.1-4.76c.62-.08,1.2-.11,1.88,0v8.24Z"/>
          <path class="cls-78" d="M175.6,242.92l-3.53.03c-.07.52-.06.95,0,1.44l4.17.04.02,1.77-6.11.02v-8.44s5.97-.02,5.97-.02c.09.66.07,1.15-.01,1.79h-4.06s0,1.6,0,1.6l3.55.04v1.72Z"/>
          <path class="cls-78" d="M250.37,237.87c.73-.18,1.3-.15,1.91-.04l-.04,5.68c-.02,1.97-1.72,2.91-3.51,2.85-1.92-.07-3.57-1.16-3.57-3.22v-5.32c.61-.13,1.18-.14,1.9-.02v4.7c.01,1.05.58,1.84,1.56,1.87.93.03,1.77-.59,1.77-1.65v-4.85Z"/>
          <path class="cls-78" d="M198.9,237.86c.69-.16,1.3-.12,1.96-.04v5.1c0,2.19-1.51,3.44-3.64,3.42-1.7-.02-3.52-.92-3.55-2.84l-.07-5.67c.72-.12,1.25-.11,1.97-.01v4.9c0,.89.65,1.52,1.44,1.61.71.08,1.79-.17,1.8-1.07l.08-5.4Z"/>
          <path class="cls-78" d="M92.57,242.87l-3.41.02c-.1.5-.09.87-.04,1.46l4.09.08c.16.59.17,1.12.02,1.76l-6.06-.02v-8.42s5.93-.03,5.93-.03l.04,1.8h-3.97c-.12.59-.11,1.11,0,1.64h3.42s0,1.7,0,1.7Z"/>
          <path class="cls-78" d="M151.23,237.88c.65-.23,1.2-.21,1.86-.06l-.04,5.76c-.01,1.78-1.58,2.68-3.23,2.76-1.82.09-3.84-.78-3.87-2.77l-.07-5.74c.8-.12,1.32-.1,1.98,0v4.7c0,.88.53,1.63,1.23,1.76.87.16,2.03-.14,2.05-1.12l.09-5.29Z"/>
          <path class="cls-78" d="M163.09,246.09c-1.67.58-3.73.24-4.82-1.12-.21-.41.62-1.47,1.07-1.34,1.54,1.2,3.28,1.07,3.43.24.05-.28-.22-.57-.57-.7l-2.47-.95c-.77-.3-1.21-1.04-1.27-1.82s.28-1.61,1.02-2.12c1.52-1.04,3.64-.82,5.02.44-.13.61-.49,1.12-1.02,1.47-1.33-.97-2.96-.9-3.07-.13-.04.24.1.54.43.63l2.13.61c1.09.31,1.71,1.19,1.79,2.19.09,1.06-.45,2.16-1.68,2.59Z"/>
          <path class="cls-78" d="M239.19,241.3c.1.59.08,1.11-.03,1.74l-3.73.05v3.06c-.61.13-1.21.14-1.86,0v-8.4s6.04-.03,6.04-.03c.14.6.13,1.22-.05,1.84l-4.09.02c-.11.54-.12,1.06,0,1.71h3.72Z"/>
          <path class="cls-78" d="M187.58,241.25c.1.62.1,1.2-.05,1.81l-3.57-.03-.07,3.17-1.86-.03v-8.39s6.13-.02,6.13-.02l.04,1.8-4.2.03c-.15.53-.15,1.06-.02,1.68h3.61Z"/>
          <path class="cls-78" d="M291.24,237.84l-2.9,5.2c-.49.87-.02,2.07-.14,3.08-.69.14-1.39.14-2.02,0-.1-1.1.35-2.37-.18-3.29l-2.88-5.01c.52-.08,1.4-.23,1.86.02l2.29,3.16,1.9-3.17c.68-.16,1.36-.15,2.08-.01Z"/>
          <path class="cls-78" d="M212.49,244.3c.08.64.07,1.21-.08,1.88h-5.76s-.01-8.35-.01-8.35c.67-.11,1.24-.11,1.92,0v6.44s3.93.03,3.93.03Z"/>
          <rect class="cls-78" x="95.6" y="240.99" width="8.47" height="2.01" transform="translate(-142.19 341.78) rotate(-89.99)"/>
          <circle class="cls-123" cx="219.43" cy="244.98" r="1.25"/>
          <path class="cls-111" d="M131.65,246.01c-.61-.4-.62-1.47-.16-1.95.48-.5,1.25-.42,1.67.03s.5,1.02.2,1.52c-.32.53-1,.87-1.71.4Z"/>
          <path class="cls-30" d="M295.7,246.01c-.64-.43-.61-1.61-.06-2.04.51-.41,1.27-.27,1.58.14s.34,1.11.09,1.61c-.2.41-.99.71-1.61.3Z"/>
          <path class="cls-78" d="M125.99,241.01c-.35-1.99-2.18-3.28-4.14-3.26l-3.3.04-.03,8.4,3.92-.07c2.52-.33,4-2.5,3.54-5.1ZM123.44,243.54c-.77.83-1.91.84-2.88.7l-.09-4.43c.98-.33,2.3-.3,3.05.62.65.8.68,2.29-.09,3.11Z"/>
          <path class="cls-78" d="M111.79,243.19c1.06-.74,1.63-1.84,1.42-3.07-.17-1.01-1.02-2.29-2.24-2.31l-4.41-.06-.03,8.38c.62.09,1.2.09,1.93,0l.02-2.56c.36-.11,1.23-.29,1.47.11l1.46,2.45c.68.17,1.35.06,2.01,0l-1.63-2.94ZM110.78,241.59c-.82.28-1.62.18-2.33.1l.03-2.07,2.13.04c.44,0,.64.53.67.87.02.3-.02.91-.5,1.07Z"/>
        </g>
        <g>
          <g>
            <g>
              <path class="cls-89" d="M17.75,43.23l-1.9-.8-3.59-1.77c-1.32-.65-2.76-1.27-3.64-2.57-.44-.65-.26-2.18.12-2.82.98-1.66,2.73-1.56,4.18-.84s2.71,1.3,4,2.23l3.23,1.66c1.01.52,1.88,1.21,2.08,2.17.27,1.25.13,2.49-1,3.17-1.08.65-2.37.05-3.48-.42Z"/>
              <path class="cls-23" d="M20.9,39.56c1.1.61,1.47,1.84,1.03,2.75-.51,1.04-1.78,1.53-2.89.97l-8.74-4.48c-1.08-.55-1.64-1.57-1.35-2.66.27-1.01,1.47-2.17,2.57-1.61l4.11,2.11,5.27,2.92Z"/>
            </g>
            <g>
              <g>
                <path class="cls-63" d="M128.05,73.39l-2.31,1.06-4.29,2.08,5.47,6.24,4.68,5.35c.45.51.58.87.48,1.47-.14.81-.7.64-1.33.97-3.35,1.73-6.75,2.96-10.28,4.29l.37,14.98c.03,1.24.48,2.46.14,3.66l-1.08,3.82-1.95,9.56-16.64,7.91-5.26.98c-.18-.05-.44,0-.7-.19,1.37-.45,2.82-.91,4.09-1.78l1.4-.96,7.06-3.39,7.51-3.61c.82-.4,1.56-.71,2.56-.94l.65-7.8.02-13.44.13-5.33c0-.23-.26-.24-.35-.24-.16-.18-.43-.25-.77-.13l-3.21,1.07-1.67,1.12c-.62.41-1.55.36-2.19.81-1.63,1.16-3.48,1.48-5.28,2.2l-3.68,1.47-1.67.85c-.69.35-1.25.38-1.95.66l-2.57,1.02c-1.26.2-2.41.67-3.29,1.64-2.3.77-4.55,1.54-6.59,2.82-1.23-.26-1.92-.99-2.36-2.04l-.81-1.96c-1.45-2.17-2.73-4.3-3.7-6.75-.19-.48-.62-.88-.41-1.43.94.12,1.42.82,1.92,1.44l1.9,2.37c.76.96,1.65,1.55,2.27,2.69.35.65,1.42.97,2.05,1.33l1.03-.39c1.19-.07,2.05-.52,3-1.09l2.59-.82c1.58-.91,3.14-1.73,4.96-1.84l2.62-1.68,2.67-.77c.57-.16,1-.89,1.69-1.04l1.95-.4,1.71-.65,2.32-1.11c2.13-.73,4.2-1.35,6.01-2.8,1.49-.2,2.82-.65,3.98-1.56l3.54-1.54,2.3-.52c1.03-.23,2.02-.94,2.73-1.7.29-.31.05-.89-.13-1.14l-2.37-3.2c-.63-.86-1.14-1.63-1.95-2.34l-2.06-2.85c-.83-1.14-1.87-2.05-2.44-3.41,1.32-1.04,2.6-1.99,4.08-2.64.82-.36,1.68-.44,2.36-1.1.23-.23.63-.26.79-.11.24.22.3.49.25.81Z"/>
                <path class="cls-12" d="M66.3,140.98c-.67.13-1.51.51-2.28.36-2.26-.44-4.25-1.46-6.4-2.31l-11.79-4.64-3.56-1.36c-1.82-.69-3.66-1.32-5.27-2.45-.58-.48-.59-1.58-.82-2.16.93.02,1.73.41,2.67.8l18.32,7.49,7.9,3.42c.51.22,1,.47,1.23.86Z"/>
                <g>
                  <path class="cls-125" d="M118.43,98.1c.44-.57.6-.26.77.33-.14,6.21-.2,12.45-.16,18.7-.12,2.8-.49,5.54-1.12,8.22-5.69,2.48-11.32,5.1-16.87,7.87-1.71,1.32-3.46,2.2-5.67,2.38-.04,0,.74-.14.67.17l-3.72.52-11.37,1.89-5.44,1c-.17-.02-.42-.07-.43-.19-.18-3.74-.2-7.88-.16-11.64.64-9.2.37-18.54-.29-27.49l.11,12.54-.42.26-.43-.14c.04-3.6-.14-7.18-.54-10.75.49-3.96.22-4.23-.82-.83-.24.33-1.43,1.25-1.77.81l-.26-.42,3.44-6.42c.72-.74,1.12-.2,1.5.52,2.41,4.95,4.98,9.88,7.7,14.77.35.59.89,1.37,1.31,1.89.13.16,3.28-1.22,3.79-1.52,3.79-1.69,7.64-3.25,11.54-4.67,6.12-2.48,12.18-5.07,18.2-7.77l.45-.03Z"/>
                  <path class="cls-2" d="M75.51,139.18c-.23.04-.64.09-.84.19-.15.05-.68.04-.7-.24l-.47-7.04c-.18-2.73-.24-5.29-.03-8.02l.86-11.42-.12-12.61.07-1.88c0-.1.39-.14.46-.08s.23.17.25.37l.53,8.43c.43,6.88.2,13.6-.15,20.48l.16,11.82Z"/>
                  <path class="cls-25" d="M114.95,121.57c-.57-1.73-.15-3.38-.1-5.09l.28-8.75c.03-1.02-.09-2.08.45-3.07.61,4.22.6,8.39.29,12.67-.11,1.46-.16,2.85-.91,4.25Z"/>
                  <path class="cls-18" d="M113.53,119.61c-.02,1.16-.18,2.28-.89,3.17l.09-9.02c0-.72.21-1.4.44-1.99.39.36.46.77.45,1.21l-.1,6.63Z"/>
                  <path class="cls-58" d="M110.91,117.25c.56,2.57.26,8.15-.7,7.77-.16-.06-.4-.35-.36-.64l1.06-7.13Z"/>
                </g>
                <g>
                  <path class="cls-77" d="M74.32,112.66l.41.23c-.82,8.63-1.26,17.41-.35,26.06l.28.42c-.31.16-.65.15-1.07.23l-7.3,1.38c-3.12-1.18-6.22-2.48-9.3-3.88-6.81-2.88-13.66-5.62-20.54-8.24l-.28-.45c-.23-.57-.37-1.1-.42-1.7-.92-4.49-1.65-9.05-2.21-13.67,0-3.95.06-7.87.19-11.77.05-.49.25-.67.7-.41.09-.15.25-.31.37-.26,3.22,1.41,6.2,2.39,9.63,3.34,6.85,2.43,13.74,4.5,20.67,6.23,1.58-2.37,3.09-4.83,4.54-7.38.21-.82.58-1.17,1.11-1.05l1.38-1.02c.69-.51.02-2.49,1.76-2.74.24,1.04.06,2.06-.08,3.07-.18,1.36.32,2.58.34,3.85l.17,7.74Z"/>
                  <g>
                    <path class="cls-75" d="M41.07,126.98c-.85-.42-1.13-1.31-1.24-2.17l-.82-6.02c.64.78.7,1.77.9,2.73l1.16,5.47Z"/>
                    <path class="cls-65" d="M43.2,127.11c.04.11-.37.27-.47.2-.72-.49-2.04-4.84-1.79-6.9l2.26,6.71Z"/>
                    <path class="cls-49" d="M37.95,118.06l.87,7.57c-1.39-2.59-1.29-5.61-1.36-8.52.32.13.44.52.49.95Z"/>
                    <path class="cls-50" d="M45.09,128.26c-1.45-1.53-1.95-3.79-1.98-5.9.9,1.93,1.51,3.72,1.98,5.9Z"/>
                    <path class="cls-66" d="M45.38,124.97c.95,1.28,1.91,3.83,1.57,4.11-.59.48-1.55-2.11-1.57-4.11Z"/>
                  </g>
                </g>
                <g>
                  <path class="cls-90" d="M50.86,80.38c.94,1.45,1.45,1.8,1.52,1.06.82-1.03,1.22.11,1.11.95-.09.67-.29,1.25-1.05,1.08.12,1.1.62,1.7,1.52,1.79l.38.39c-.17.53-.83.37-1.06.61-.52.54,1.17,1.22,3.17,1.19l1.37.52c1.29.1,2.28.67,3.45,1.01l3.71,1.07,3.58.67,2.78.88,2.47.67c.22.06.47.35.63.52.86-.17,1.27-.78,1.73-1.33l-.12-.49c1.61-.87,3.25-1.68,4.94-2.43l.46.25.93.07c3.02-1.2,6.01-2.45,8.96-3.74l.56-.74c-.17-.64,1.35-1.24,1.72-.71,2.86.25,5.65-.91,8.11-2.43.12-.51.33-.89.65-1.15-.07-.61.35-.72.66-.2-.26.41-.09.72.14.93.29.25.73.26,1.07.12l3.92-1.62,2.62-.82,2.54-1.15,2.16-.57.18-.73c-1.98-.64-3.94-.56-5.97-.68l-1.99-.58c-.41-.12-1.11-.43-1.16-.86l-.18-1.75.11-2.73c.04-1.02.53-1.62,1.39-1.8.2-.17.41-.7.76-.61l.85.03c1.81,1.13,4.58,1.58,6.73,1.91,2.65.4,4.74.64,7.5.68.06,0,.12.05.17.1-.26-.28,0-.42.78-.42l.4.07c.32,0,.49.16.5.49.91.07,1.82.05,2.73-.07l1.78.3,2.8,1c-.49.65-1.24.68-1.82.93-.5-.4-1.49-.38-1.37.42l-.54.43-1.09.44c-.38-.58-.91-.52-1.59.18-2.03.6-3.83,1.81-5.55,2.97,3.07,3.82,6.07,7.73,8.99,11.73.7,1.61-1.59,2.71-2.85,3.17-2.78.44-5.26,1.75-7.72,3.09-1.24.22-2.32.65-3.27,1.3-3,1.35-6,2.62-9.02,3.82-1.32.1-2.46.56-3.44,1.36l-2.83.83c-1.52,1.16-2.91,1.85-4.81,2.16-2.75,1.37-5.59,2.48-8.51,3.34-1.58.84-3.24-.61-4.03-1.98-1.55-1.79-3.11-3.55-4.7-5.28,1.13,2.55,2.41,5.05,4.02,7.35.42,1.84,1.32,3.11,2.71,3.81,1.96-1.31,4.23-2.06,6.46-2.78l.67-.62c2.22-1,4.49-1.85,6.82-2.57,3.02-1.47,6.14-2.73,9.38-3.78,1.14-.72,2.34-1.25,3.6-1.59,1.3-.92,3.79-2.26,5.35-2.38.54-.04.84,0,.67.59-.51.45-1.15.85-1.86,1.15l-8.27,3.47-8.91,3.68-3.57,1.36-7.69,3.21c-1.28.53-2.41,1.28-3.84,1.48-1.34-1.72-2.29-3.62-3.3-5.51l-1.41-2.65-3.72-6.74c-.49-.89-.57-1.98-1.39-2.7l-3.71,6.91c-.73.79-1.15,1.89-1.75,2.91l-3.57,6.05-5.81-1.49-21.84-6.92-3.35-1.43c-1.37-.14-1.04-1.56.75-.97,2.08,1.22,4.4,1.99,6.96,2.31,4.82,1.71,9.64,3.37,14.46,4.98l2.6.56c1.67.68,3.42,1.14,5.26,1.37.76-.19,1.24-.92,1.43-2.18,1.57-1.87,2.79-3.9,3.64-6.1-1.29.82-2.4,1.91-3.31,3.27-.91,1.74-1.73,3.12-4.02,2.92-5.25-1.81-10.57-3.37-15.97-4.66-3.4-1.62-6.93-2.7-10.59-3.24l-5.83-2.47c-1.7-.89-3.35-1.17-4.95-.86l-1.2-.38.14.72c.16.82-.47.89-1.78,1.44-.71-.03-1.24-2.27-.67-2.69l.86.28c.5.19.87.15,1.2-.08.2-.14,1.06-2.23.61-3.2l.59-.9c.45-.06.82-.33,1.1-.82,1.88-1.12,3.25-2.77,3.92-4.86.4-.66,3.38-3.27,4.08-3.5.61-.2,1.33-.15,1.96-.09,3.4.86,4.08.22,2.04-1.92l.22-.5-1.34-3.61-.26-.43c.11-.93-.12-1.93-.77-2.63-1.43-.17-2.62.48-4.5.5-.6.28-1.17.44-1.71-.01-.21.16-.64.02-.88.03-.68-.27-1.34-.4-1.97-.39-.5-.19-.82-.35-1.23-.66-.36-.7-.67-1.42-.94-2.17-.08-.36.14-.49.51-.44.48-.33.89-.03,1.23.92,3.12,1.09,6.12.94,9.26-.3.67.31,1.25.88,1.72,1.7,1.62.46,1.98,1,1.1,1.6-.72-.24-.7.17.05,1.23.58-.02,1.08.39.9,1-1.26.42,1.51,1.44,1.81,1.46s-.22-1.69-.32-1.99c-.29-.71-1.89-4.98-1.81-5.24.32-.17.33-.39.2-.68-.42.12-.59-.13-.5-.76-.75-1.04-1.11-2.5-1.41-3.75-.95-1.9-1.78-4.18-2.09-6.3-.02-.11.06-.24.16-.38.28-.44.55-.3.81.1,2.44,6.68,5,13.26,7.68,19.74l1.93,5.16c.23.56,5.59,1.96,5.67,1.67l-2.64-7.75c-.26-.8-.43-1.7.67-1.49.49.09,1.76,3.91,1.91,4.51l-.3.42Z"/>
                  <g>
                    <g>
                      <path class="cls-63" d="M31.08,73.14c-.69.27-1.08,1.51-1.33.9l-.38-.91c.55-.42,1.13.01,1.71.01Z"/>
                      <g>
                        <path class="cls-63" d="M36.61,75.71c-.68-.66-1.85.64-2.05-.07-.24-.85.59-1.41,1.44-1.41,0-.68-.29-1.09-.42-1.59.6.07,1.71,2.06,1.03,3.07Z"/>
                        <path class="cls-63" d="M28.48,73.16c-.65.03-1.34-.15-1.97-.39.17-.17.42-.37.59-.27l.61.34c.26.15.66.05.76.32Z"/>
                      </g>
                    </g>
                    <g>
                      <path class="cls-63" d="M34.45,100.87c-.1-.01-.27.23-.28.45l-.2,8.33c-.05,2.06-.05,3.98.27,6l1.64,10.1c.06.38.24.77-.12.97l-3.98-14.39.13-13.94-7.04-2.59c.02-.43.45-.68.89-.65,2.6.18,4.88,1.42,7.25,2.45.91.39,1.72.62,2.62,1.07.69.34,4.06.28,7.85,2.17l2.89,1.12,2.95.73,1.85.44,2.37.62,3.04,1.06,5.7,1.8c.5.04,1.5-.15,1.9-.36.92-.56,1.17-1.74,1.79-2.48l1.65-1.98c.61-.73,1.44-1.19,2.18-1.67.16-.44.3-1.47.97-1.39.31.04.35.69.15.86l-.67.57-.88,2.5-1.95,2.99c-.52.8-1.27,1.31-1.43,2.41-.07.52-.35.98-.74,1.31-.32.27-.97.21-1.51.09l-3.75-.84c-.18-.04-1.14-.85-3.48-1.01-1.13-.58-2.53-.9-3.77-1.3l-3.38-1.1-3-1.02c-1.61-.55-3.1-1.2-4.7-1.68-1.04-.32-2.1-.34-3.18-.68l-1.49-.47c-1.2-.38-1.95-1.32-2.79-1.31-.1,0-.16.28-.08.4.08.11.25.14.32.43Z"/>
                      <path class="cls-63" d="M37.95,79.31c.27.72,1.49,1.63,1.34,2.52-.3,1.81-4.51-.83-6.32.88l-2.97,2.81c-.7,2.21-2.23,4.05-4.27,5.07-.08.29-.26.46-.43.6s-.46.08-.67-.21c2.55-3.26,5-6.68,8-9.66,1.4-1.39,3.58-1.47,5.32-2.03Z"/>
                      <path class="cls-63" d="M124.66,69.39c-.27.08-.51.24-.58.72-1.55,0-3.13.08-4.68-.16l-3.27-.51-5.11-1.05c-.79-.16-1.4-.51-1.54-1.28l9,1.26,6.18,1.02Z"/>
                      <path class="cls-63" d="M128.3,69.87c-.39-.01-.79.11-1.14.46-.7.11-1.35.1-2.05-.03l-.04-.84,3.23.41Z"/>
                      <path class="cls-63" d="M131.06,72.11l-1.91.85c.3-.45.15-.9-.3-1.29.63,0,1.02-.1,1.55-.27.23-.01.48.04.58.16s.08.37.08.55Z"/>
                      <path class="cls-9" d="M87.65,106.28c-.39.17-.67.55-.94.54-.29-.01-.67-.18-.9-.46l-3.85-4.67-4.93-6.39c-.63-.81-1.16-1.52-1.57-2.54l14.29-5.39,19.99-7.55,7.95-2.97c.81-.3,1.66-.06,2.2.58l3.31,3.97,6.15,7.64-2.65.91-4.29,1.69-25.72,10.77-9.03,3.87Z"/>
                      <path class="cls-46" d="M63.54,106.02l-11.11-3.2-5.93-2-19-6.24c.08-.4.39-.52.61-.62-.58-.42-.73.35-.96.42-.71.12-1.58-.3-2.29-.59l3.07-3.72c1.95-2.37,3.91-4.62,5.69-7.12.24-.33.91-.2,1.24-.12l11.94,3.16,8.76,2.36,14.41,3.77,3.69.68c-1.13,1.96-2.56,3.56-3.95,5.32l-4.22,5.37-1.94,2.55Z"/>
                      <path class="cls-16" d="M120.86,74.59c-.59.25-.88.65-1,1.28-4.13-.81-8.19-1.35-12.42-1.61v-5.54s13.39,2.2,13.39,2.2l6.53.88-6.48,2.8Z"/>
                    </g>
                  </g>
                </g>
              </g>
              <g>
                <path class="cls-109" d="M57.92,72.37c-.97,1.01-1.21,2.4-1.33,3.85-.78.33-1.58.48-2.52.57-.36-1.06-.72-2.07-.85-3.18l4.17-1.55c.19.1.36.13.53.31Z"/>
                <g>
                  <path class="cls-83" d="M25.98,36.62c-1.22-.15-2.24-1.14-2.84-2.14-.99-1.66-2.09-3.09-3.29-4.62l-1.51-1.92c-1.14-1.45-1.44-3.54.1-4.84.36-.31,1.44-.6,1.91-.48,3.15.79,3.88,4.54,6.71,7.72,1.48,1.67,2.89,3.78,1.64,5.26-.6.72-1.45,1.19-2.73,1.03Z"/>
                  <path class="cls-99" d="M25.65,35.9c-1.47-.6-2.03-2.08-2.88-3.21l-4.64-6.22c-.82-1.1-.36-2.42.69-3.08s2.31-.37,3.13.79l5.98,8.47c.56.8.63,1.77.2,2.45s-1.52,1.2-2.48.81Z"/>
                </g>
                <g>
                  <path class="cls-86" d="M103.03,79.94l-.66.2-.21.51c-2.45,1.05-4.92,2.07-7.41,3.06h-1.13s-1.72.71-1.72.71c-.07.29-.22.51-.42.64-3.11,1.32-6.23,2.62-9.36,3.91l-.66-.14-2.47,1.21c-.94.46-2.16.69-2.81,1.46l-.83.18c.12-1.14.44-2.11.81-3.17l2.65-7.6c.35-1.01.75-1.96.67-3.09-.14-1.91.61-3.62,1.89-5.04,1.95-2.16,4.72-3,6.61-5.51l1.48-1.98c1.64-2.19,3.09-4.48,4.05-7.05l2.96-7.94c.23-.61.61-1.55,1.4-1.44,1.78,1.77,3.12,2.28,5.47,1.07l.62,1.85c.32.95,1.82,1.48,2.87,1.17.85-.25,1.58-1.22,1.71-2.06.2-1.29-.25-2.51-.76-3.62-.36-.79-.11-1.51,0-2.32.45-3.04-.25-5.9-1.41-8.87,2.15,1.25,4.63.63,5.55-1.5.83-1.93.58-5.24-1.65-5.85-1.98-.55-4.19.62-4.77,2.58-.36,1.22-.07,2.32-.08,3.62-.59-.6-1.07-.92-1.88-1.3,1.13-.88,1.55-1.95,1.7-3.22.16-1.4-.31-2.67-1.64-3.4,1.27-1.04,2.53-1.83,4.1-1.97.26.58.3,1.13.67,1.55,2.2-.16,3.66-1.98,5.35.25,1.29,1.69,2.06,3.68,2.7,5.81,1.39,4.62.13,9.55-3.02,13.24-1.72,2.02-3.03,3.94-4.03,6.46-1.92,4.87-3.32,9.89-4.04,15.12-.4,2.9-.19,5.74-.13,8.64.02.97.31,1.89.6,2.74l-2.76,1.09Z"/>
                  <g>
                    <path class="cls-63" d="M102.37,80.14c.01.39,0,1.26-.43,1.5-1.63.95-3.36,1.69-5.15,2.29-1.11.38-2.19.23-3.18-.22l8.76-3.57Z"/>
                    <path class="cls-63" d="M91.9,84.41c-.18.19,0,.63-.02.86-.85.83-2.4.45-3.3,1.62l-6.11,2.41c-.35.14-.8-.28-1.03-.48l10.45-4.41Z"/>
                    <path class="cls-1" d="M103.78,77.26c.06.32-.15.49-.21.56-.77,1.02-1.93-8.44.32-12.51-.3,4.14-.85,7.85-.12,11.95Z"/>
                    <path class="cls-64" d="M91.98,64.59l1.44-3.05,3.39-8.35c-.48,4.14-2.17,8.1-4.83,11.4Z"/>
                    <path class="cls-47" d="M115.25,33.59c1.09,2.68.52,7.11-1.72,8.91,1.01-3.1,1.76-5.9,1.72-8.91Z"/>
                    <path class="cls-76" d="M83.23,79.69l-3.52,4.7c-.16-1.13.45-2.14,1.17-2.91l3.69-3.95c-.08.83-.79,1.42-1.34,2.15Z"/>
                    <path class="cls-59" d="M81.39,85.43c-.33.72-.68,1.42-1.3,2.11-.34-1.04.36-1.89.89-2.73.92-1.46,1.68-3.07,3.35-3.87-.99,1.67-2.18,2.85-2.94,4.5Z"/>
                    <path class="cls-34" d="M83.98,76.05l-3.03,3.37c-.06-.73.4-1.36.89-1.86l3.58-3.67c-.18.9-.85,1.5-1.44,2.16Z"/>
                    <path class="cls-44" d="M94.06,73.6c-.38-.89-1.04-1.15-1.84-.83l-1.38.55c-.34.13-.69.03-.86-.25-.27-.45.19-.92.98-1.9.12-.15.53.24.4.57-.15.38-.43.23-1.05.92-.13.15.13.57.34.45,1.02-.56,2.18-1.01,3.37-.76.25.14.45.87.04,1.26Z"/>
                    <path class="cls-121" d="M112.44,36.02c-.44,1.49-2.08,2.15-3.45,1.75,1.05-.37,2.21-.71,2.9-1.75.17-.25.65-.31.55,0Z"/>
                    <path class="cls-13" d="M85.25,83.1c-.5,1.19-1.08,2.1-1.86,3.14-.02-1.35.69-2.41,1.86-3.14Z"/>
                    <path class="cls-96" d="M95.36,74.3c-.42.22-1.2.12-1.35-.53.48,0,.85.12,1.35.53Z"/>
                  </g>
                </g>
                <g>
                  <path class="cls-63" d="M108.63,67.08c-.05.6-.49,1.04-1.3,1.32-.71.57-.61,5.2-.33,5.58.24.32,2.33.95,2.76,1.01,1.95-.03,3.88.18,5.77.61,1.02,1.11.33,1.85-2.06,2.2-3.1,1.26-6.22,2.48-9.35,3.67-1.19.08-2.08-.68-1.08-1.53v-.47s2.2-.86,2.2-.86c-1.52-7.24-.07-14.86,2.11-21.9,1.47-4.75,3.3-8.65,6.65-12.31,3.39-4.94,3.16-10.07.59-15.32-1.47-3-2.25-3.47-5.32-2.21-1.31.22-1.49-.03-1.87-1.37-1.14.18-2.16.76-3.06,1.46.89.78,1.38,1.81,1.34,3,7.76-7.08,10.44,8.77,1.48,6.96,1.16,3.15,1.42,6.32.85,9.56.18.7.43,1.39.73,2.08,1.72,4.74-4.4,7.21-5.64,2.04-2.08.86-3.92.33-5.41-1.31-.39.19-.65.54-.78,1.05l-3.47,9.23c-2.39,4.75-5.41,9.37-10.08,12.05-2.36,1.86-3.76,3.76-3.45,6.91-1.3,4.17-2.64,8.35-4.03,12.53l.31.46c.32,1.14-1.62,2.33-2.52,1.2-4.22-1.15-8.44-2.26-12.68-3.34-2.37-.85-4.79-1.48-7.25-1.89l-.52-.28c-.81-.8-.43-1.31,1.15-1.53.21-.23.51-.2.9.09.02-.7-.12-1.45-.44-2.24-.47-.91-1.83-5.04-1.46-5.78.13-.26.53-.48.81-.61,1.17-.16,2.32-.37,3.46-.64-.35-1.33-.25-2.7.31-4.1-.46.35-.62.27-.53-.31-.83.07-1.66.2-2.48.37-.88-.16-1.36-.51-1.46-1.05l5.85-2.1c1.92-1.23,3.56-2.78,5.84-3.49l.41-4.35c.69-3.35,1.64-6.58,2.76-9.8.76-2.2,2.87-1.85,3.04-2.52l.81-3.23c.42-2.77.2-5.59-.42-8.3-.37-1.63-1.03-2.86-2.14-4.12-1.42-1.6-3.35-3.46-5.66-3.62-3.34,4.26-5.16,5.03-10.66,3.3-.66-.21-1.18.22-1.72.43-2.21.87-4.6.43-6.53-.92-1.79-1.26-2.56-3.37-2.99-5.73-.81-1.09-2.39-2.19-2.54-3.9-.11-1.22.25-2.65,1.11-3.59,2.8-3.06,9.18-4.56,13.51-4.92l3.83.29c4.54.34,7.54,4.42,7.02,9.02,10.64,4.51,14.93,14.07,11.69,25.24-.33,1.14-.24,1.94.19,3.01.51,1.28.14,2.79-.11,4.13l-1.83,9.7-.46.97,1.71,1.38,4.42-1.39c1.87-.59,3.56-1,5.71-.72.25-1.32,1.43-1.83,2.12-2.75,2.12-2.84,3.12-6.18,4.48-9.4l2.14-5.07c-1.19-1.78-.8-4.11,1.17-5.2-.38-4.03.2-7.95,1.55-11.8.65-1.84,1.25-3.65,2.64-5.05,1.86-1.87,4.18-3.11,6.71-4.05-.82-3.46.43-7.26,3.44-9.22,1.07-.7,2.53-.75,3.41.08s1.12,2.1,1.42,3.34c1.44-.28,2.59.28,3.12,1.54.6,1.41.28,2.93-.05,4.39.59.71.86,1.64.97,2.63.18,1.73-.05,3.43-1.77,4.38.96,2.07,1.16,4.18,1.24,6.39.11,3.41-.93,6.46-2.75,9.26l-3.19,4.3c-1.98,3.33-3.09,7.07-4.13,10.8l-1.14,6.19.92.17Z"/>
                  <g>
                    <path class="cls-40" d="M80.51,70.78c-.31.25-.66.8-1.08.53-.54-.34-.97-.87-1.48-1.47l2.54-.92c1.11-.4,2.13-.86,3.39-.91l-3.37,2.77Z"/>
                    <g>
                      <path class="cls-109" d="M53.38,29.75c.2.27.34.58.29.74-.15.54-3.08.59-4.49-.27-2-1.13-3.65-2.66-4.33-5.13,2.57.96,5,2.13,7.28,3.66l1.24,1Z"/>
                      <path class="cls-21" d="M68.94,59.41c-.46,1.59-.51,3.09-1.23,4.62-.34-2.58.17-5.06.97-7.55.47-1.47.67-3,1.43-4.37.27-.48,1.43-.36,1.85-.18l-1.35,1.76-1.67,5.72Z"/>
                      <path class="cls-31" d="M76.02,40.36c-.64.13-1.03.09-1.56,0l-.31-2.05,1.52-.43c.22.83.34,1.48.34,2.47Z"/>
                      <path class="cls-94" d="M65.81,28.17c-.34.25-.96.1-1.25-.07l.3-2.8c.54.33,1.09.65,1.26,1.16s.16,1.36-.31,1.71Z"/>
                      <path class="cls-3" d="M70.88,31.93c-.66-.39-1.04-.78-1.49-1.29.66-.54.89-1.07,1.05-1.73.51.43.97.84,1.07,1.29.14.57-.14,1.19-.64,1.74Z"/>
                      <path class="cls-80" d="M72.32,33.88l-.93-1.31.88-1.63c.52.55.9,1.14.98,1.78-.07.39-.46.76-.93,1.17Z"/>
                      <path class="cls-52" d="M75,50.2c-.64-.15-1.39-.32-1.93-.75-.17-.15.06-.83.29-.87.69-.12,1.37.08,1.95.35l-.31,1.27Z"/>
                      <path class="cls-60" d="M75.8,46.12c-.32.31-1.42.14-1.75-.15-.22-.27,0-.81.09-1.01.18-.34,1.51-.22,1.69-.06.2.19.37.82-.03,1.21Z"/>
                      <path class="cls-45" d="M68.81,30.14c-.2-.02-.82-.33-.77-.59l.42-1.94c.43.07,1.05.44,1.08.85.04.65-.39,1.2-.73,1.68Z"/>
                      <path class="cls-31" d="M73.46,35.77c-.4-.42-.57-.82-.73-1.27l1.08-.95c.35.4.8.96.75,1.48-.14.35-.65.59-1.1.74Z"/>
                      <g>
                        <path class="cls-70" d="M63.27,79.48c-1.37-.36-2.58-.69-3.58-1.71l-.78,6.77c-.07.62-.12,1.28-.69,1.66-.37-1.37-.22-2.69.05-4.01.41-1.99.46-3.79.29-5.93,1.68,1.45,3.48,2.01,5.41,2.64,1.33.43,2.5.93,3.97.95.72,0,1.51.03,2.23.47-2.28.22-4.52-.21-6.9-.84Z"/>
                        <path class="cls-22" d="M62.75,70.96c-1.12.65-1.42,2.77-2.86,2.79.09-1.48,1.02-2.57,1.98-3.58,2.78-2.95,5.44-1.85,4.07-1.06l-3.18,1.84Z"/>
                        <path class="cls-113" d="M62.37,72.38c.95-1.14,1.17.29-.88,2.73-.62-1.01.21-1.93.88-2.73Z"/>
                      </g>
                      <path class="cls-92" d="M51.15,31.48c-.23.62-.75.38-1.27.42-1.64.14-3.42-.22-3.89-1.97.78.76,1.4,1.44,2.46,1.47l2.7.08Z"/>
                      <path class="cls-32" d="M75.43,48.15c-.63-.53-1.06-.24-1.71-.21-.34.01-.26-1.12.12-1.19.56-.1,1.26-.01,1.79.21.19.23.08.87-.2,1.19Z"/>
                      <rect class="cls-88" x="74.42" y="40.96" width="1.69" height="1.39" transform="translate(-.86 1.59) rotate(-1.2)"/>
                      <path class="cls-106" d="M67.67,27.02c.35.37.16,1.55-.3,2.02-.26.27-.86.13-1.03-.21.33-.6.71-1.2.67-2.08.27-.01.53.14.66.27Z"/>
                      <path class="cls-81" d="M75.28,37.23c-.18.28-1.01.43-1.32.28-.22-.11-.32-.76-.18-.93.17-.2.55-.43.97-.52.28.04.66.81.52,1.18Z"/>
                      <path class="cls-97" d="M76.03,43.04c.2.16.17.74.07.92-.2.36-1.58.13-1.65-.03-.06-.13-.07-.58.07-.77.24-.31,1.17-.35,1.51-.12Z"/>
                      <g>
                        <path class="cls-28" d="M59.07,31.89c-4.59-5.48-11.23-8.24-17.88-9.91,1.07-1.97,2.76-2.83,4.62-3.56,4.08-1.61,8.31-2.55,12.7-1.77,2.56.45,4.32,2.63,4.86,5.17.51,2.39-.02,4.85-.8,7.15-.93,1.2-1.86,2.17-3.5,2.91Z"/>
                        <path class="cls-105" d="M59.78,30.4l-4.4-4.03-4.76-3.24c1.9.49,3.37,1.46,4.97,2.36,1.61,1.37,3.52,2.6,4.18,4.9Z"/>
                        <path class="cls-48" d="M61.17,19.62c1.27.71,1.45,4.42.58,6.12-.57-2.09-.35-3.99-.58-6.12Z"/>
                        <path class="cls-98" d="M60.49,29.44l-3.1-3.6c-.22-.4-.62-.68-.43-1.29,1.53,1.28,3.32,2.7,3.53,4.89Z"/>
                        <path class="cls-116" d="M60.88,27.19c-.76-.59-1.05-1.58-1.2-2.6.79.6,1.42,1.37,1.2,2.6Z"/>
                      </g>
                    </g>
                    <g>
                      <path class="cls-5" d="M116.37,18.57c1.67-.73.8,3.25-.14,5.8.49.06.8.04,1.1.18.88.41.6,2.72-1.07,4.01l-1.2-2.04c-.6-1.02-1.7-1.7-2.88-1.57l-2.7.3c-.76-1.14-.85-2.45-.99-3.79-.17-1.64.07-3.14.97-4.53.47-.73.78-1.63,1.68-1.96l-.62,1.99c-.23.73-.52,1.53,0,2.31l2.46-3.94c1.42,1.6.28,4.46.98,6.86l1.22-2.52c.24-.5.56-.84,1.19-1.11Z"/>
                      <path class="cls-27" d="M99.06,48.6c-.22-.38-.26-.91-.49-1.04-.89-.48-1.93.67-2.31.28-.5-.51-.24-1.86.36-2.27.88-.61,1.91,0,2.38.86.69,1.25,2.61,1.95,3.63.87.46-.49.37-.88,1.22-1.09,1.91-.47,2.89-5.96-.31-9.22-1.18-1.2-2.91-1.21-4.3-.35.24-1.37,1.51-2.26,2.47-2.42,3.1-.52,4.22,2.23,4.99,5.12.47,1.78.59,3.49.16,5.3-.7,2.96,1.24,4.57.43,6.06-.25.46-.86,1.2-1.59,1.12-.56-.06-.78-.74-.89-1.17l-.66-2.48c-1.7,1.45-4.19,1.98-5.09.41Z"/>
                      <path class="cls-43" d="M98.99,35.31c-.88,2.8.11,5.91-1.31,7.99,0-3.06.32-5.91,1.04-8.65.32-.09.41.13.27.67Z"/>
                      <path class="cls-115" d="M98.99,35.31c-.14-.18-.25-.42-.27-.67l.65-2.48,1.16,1.6c-.74.46-1.27.86-1.53,1.54Z"/>
                      <g>
                        <path class="cls-102" d="M107.88,35.86c-1.47-.13-1.94-1.69-1.86-2.88s.38-2.28,1.34-2.87c.89-.55,2.16-.78,3.08-.07.83.64.85,1.71.72,2.72-.21,1.64-1.42,3.26-3.29,3.1Z"/>
                        <path class="cls-119" d="M108.67,32.2c-.02.45-.12.72-.29.86-.18.15-.49.17-.66.02-.37-.32-.27-1.17.17-1.43.31-.18.82-.06.79.54Z"/>
                      </g>
                      <g>
                        <path class="cls-37" d="M102.84,33.14l-1.96.04c-.7-1.33-.78-2.91.16-4.14.67-.87,2.2-1.48,2.98-.48,1.17,1.48.36,3.73-1.18,4.58Z"/>
                        <path class="cls-53" d="M102.08,31.03c-.52-.06-.58-.56-.5-.91.07-.3.33-.77.79-.71s.57.52.52.88c-.04.3-.2.81-.81.75Z"/>
                      </g>
                    </g>
                  </g>
                </g>
                <g>
                  <path class="cls-90" d="M53.45,71.38l1.5.63c.91-.05,1.7-.34,2.44.05-.12.27.06.37.53.31.67.72-.64,2.28.12,3.99l.43.29c.09.06,0,.31-.24.22-.41-.16-1.01.3-1.53.29-1.09-.03-2.08.03-3,.74.05.85.03,1.8.33,2.61l.97,2.64.59,1.97c.12.39-.19.49-.34.64-.24.06-.44-.04-.62-.3-.2-1.15-.63-2.15-1.27-3,.14-.5.09-.88-.14-1.14-.71-4.22-1.69-8.39-2.94-12.51-.11.02-.21.02-.3-.01-.26-.1-1.41-5.06-1.27-5.3.3-.24.62-.45.97-.66,7.38-2.39,7.27-7.73,4.9-14-.51-1.34-1.81-4.5-3.62-3.38-1.09.68-1.13,1.49-.9,2.63l1.95,5.48c.65,3.52-1.63,5.45-4.96,5.75-1.16-3.26-2.32-6.54-3.46-9.84-1.39-3.31-3.64-8.1-7.74-7.93,2.35,1.29,3.59,3.45,4.64,5.79,1.67-1,2.89,1.13.89,1.61l-.06.22c.78,1.54,1.43,3.13,1.97,4.76,1.63-.11,1.51,1.26.29,1.61,0,.53-.13.98-.35,1.35-.33.58-.55.35-.91-.1-1.33-3.62-2.83-7.16-4.52-10.62-.98-1.71-2.43-2.96-4.3-3.62-.37-.75-.68-.18-.92,1.71-.05,3.25.55,6.45,1.8,9.58l-.32.41c-.03.17-.25.22-.4.15-1.59-.77-2.88-7.89-2.52-10.14-1,.79-1.57,2.1-1.83,3.36-.79,3.7,1.96,10.82,3.7,14.11l.28-.71c.23-.17,1.52-.07,1.8.09.23.13,1.57,2.32,1.45,2.81.52.51.7,1.05.53,1.62.38.33.84,1.6.83,2.08-.02.83-.98.6-1.42.04-.71-.89-1.28-2.3-1.71-3.35-.63.69-1.23,1.43-1.78,2.2-3.87,2.74-5.9-1.47-7.01-4.7-.39-.77-1.17-2.29-1.76-2.83-.75-.68-2.31-.77-2.57.42l-.48.27c.07,1.39.35,2.82.78,4.18l-.16.28c.62-.18.81.56.3.9.88.48,1.29,1.1,1.22,1.87.47.2,1.35,1.36,1.18,1.93.33.76-.18.71-.82.38-1.04-1.5-2.08-2.96-3.12-4.36-.48-1.05-.55-2.18-.78-3.39-.77,0-1.6.14-2.2-.27-.3-.2.1-.84.48-.89.54-.07.92-.03,1.53.05-.11-1.36.35-2.32,1.12-3.08.85-.85,2.05-1.06,3.29-.7,1.87.55,2.87,2.26,3.32,4.09.52,2.09,1.86,4.8,3.45,4.81.33,0,1.15-.2,1.25-.69-1.37-3.81-2.93-7.42-4.06-11.25l-1.15.21c-.25.04-.44-.1-.54-.2-.06-.06-.13-.35.01-.41l1.43-.63c-.89-2.31-.77-4.58,0-6.88-.81-.36-1.58-1.05-1.29-1.85.16-.44.75-.5,1.01-.22l.66.72c.85-1.64,2.03-2.61,3.52-3.52-.4-.63-.61-1.75.14-2.02.42-.13.81.86.83,1.44,1.52-.51,2.87-.87,4.46-.54l.8-1.77c.1-.23.42-.26.58-.16.09.05.18.23.14.43l-.39,1.79c1.78.46,3.01,1.51,4.1,2.81.04-.46-.34-.75.17-1.07.07,1.57.83,2.53,1.39,3.76,1.79,3.88,3,7.87,4.29,12,.93-.18,2.02-.71,2.26-1.65s-.19-2.02-.5-2.93l-1.5-4.45c-.55-.24-1.05-.36-1.47-.71-.27-.23-.13-.72.08-.73l.8-.03c.32-.79.58-1.87,1.5-2.34.14-.69-.05-1.31.37-1.99.39.24.48.7.51,1.28,1.61-.53,3-.1,4.32.91.18-.36.78-1.05,1.14-.87.53.49-.14,1.41-.66,1.8.92,1.41,1.58,2.67,2.02,4.2.33-.41.59-.69.88-.71.26-.02.72.4.51.67l-.87,1.1c.43,2.45.79,4.97.19,7.4-.3,1.23-1.26,2.18-1.87,3.23.16.29.41.47.64.67.29.25.27.56,0,.73-.49.31-.71-.44-1.44-.93-1.27,1.19-2.68,1.91-4.37,2.58l1.02,3.91c.03.13.47.05.59-.04.4-.28.77-.07.86.25.19.62-.84.78-.95,1.11-.15.45.28,1.76.53,1.7l.73-.17Z"/>
                  <path class="cls-63" d="M24.48,68.81c.65-.24.94.3.37.69-.47.51.81,1.3.43,2.61l-1.13-.84c-1.07-1.24-1.78-2.61-2.49-4.15-.62.11-1.08.36-1.77.31-.05-.82.5-1.19,1.12-1.57l-.46-1.01c1.13.29,1.51,1.42,2.18,2.35l1.23,1.71c.09.12.25.17.35.14.07-.02.16-.04.18-.22Z"/>
                  <path class="cls-42" d="M55.25,85.75c-.17.17-.27.3-.51.16l-.4-.24c-.8.15-1.76-.21-2.03-1.12l-.54-1.82c.46-.02.71.22,1.04.49.28-.66.34-1.07.32-1.88-.51.17-.5.6-.28,1.08l-1.26-.17-.74-1.85c.19-.3.48-.28.86.04l.35-2.29c-.39-2.07-.93-4.09-1.64-6.08l.32-.42c-.37-.78-.55-1.64-.73-2.48-.04-.18.05-.29.26-.35.38.39.33.96.49,1.5l1.78,5.89.25,2.06c.52.99.94,2.85.89,4.04,1.05.72.85,2.21,1.56,3.46Z"/>
                  <g>
                    <path class="cls-10" d="M43.23,56.88l.2-.08c-.28-.97.98-2.4,1.87-1.91.32.18,1.56,3.56,1.67,4.2,0,.02.17.27.18.28.25.13,3.16-.96,3.7-1.17,1.31.35.55,2.06-.63,2.28l.04.26c.4.21.25.36-.18.37l-.44.32c.89,1.13-.27,1.93-1.35,2,.4.27.61.74.62,1.42.54,2.27,1.14,4.53,1.81,6.76l1.5,4.87c.47,1.53.24,3.19-.33,4.63l-1.06-.74-1.2-3.4c-.18-.52-.28-1.05-.88-1.31.05.88.37,1.6.63,2.39l1.71,5.12c.25.76.48,1.43.92,2.14l-5.15-1.11c-.94-.2-1.62-.54-1.97-1.49l-1.2-3.22c-.45-1.83-1.41-3.3-2.04-5.04l-1.98-5.5c-1.49-3.32-2.8-6.54-3.81-10.03-.11-.39-.45-.93-.75-.93-.08.78.05,1.64.4,2.57l-.31.34c-1.38.37-1.77.25-2.42-1.08-.22-1.3-.65-2.43-1.29-3.39-1.44.1-1.45-2.12-.19-1.77-.15-.35-.03-.63.32-.36.25-1.15.63-1.59,1.13-1.3.34,1.09.77,1.49,1.3,1.22l-1.09-3.56c-.89-2.91-1.39-6.06-.15-8.92.11-.25.94.18.95.47,1.99.64,3.36,1.96,4.41,3.73l1.86,3.87,2.66,6.76c.1.25.36.32.53.3Z"/>
                    <path class="cls-55" d="M47.75,70.98c-.84.15-.75-.49-.87-.86-.49-1.54-1.33-2.98-.87-4.7l1.74,5.56Z"/>
                  </g>
                  <g>
                    <path class="cls-87" d="M34.07,54.24c.08.26-.15.33-.34.33-.94-.02-.55-.89-1.4-1.4-.18.55-.31,1.02-.68,1.16-.19-.26-.3-.14-.32.36-.28.32-.63.52-.51,1.28,2.36-.3,1.54,3.08,2.93,4.64.3.34,1.43.12,1.48-.35.07-.71-1.02-2.24-.08-2.25.4,2.06,1.29,3.98,2.01,6.01l1.84,5.18.19.72c-.02.16-2.96.2-2.87-.47.11-.51.65-.75,1.6-.74-1.77.03-2.32-.98-3.04-2.58-.06-.1-.22-.23-.34-.24-.14-.02-1.92,1.82-1.97,1.95.72.06,1.15.29,1.28.69.27.73-1.26.97-1.88.73-.03.7-1.22.89-1.5.26-.77-.34-1.52-.66-2.38-.64-.31.39-.75.29-1.29-.29-.71-.73-1.25-1.59-1.61-2.57l-.2.19c.39.89-.12,1.18-1.51.87-.23-.96-.51-1.49-1.35-2.07l-.3-.9.09-.53-.71-3.93c.11-.86.49-1.55,1.58-1.6s1.85.43,2.38,1.37l1.15,2c.85,1.49,1.1,3.27,2.32,4.6.96,1.05,2.91,1.13,4.07.38.64-.41.73-1.3,1.21-1.78s.77-.81.96-1.64c.48,1.59.9,3.1,1.86,4.53.18.27.39.58.87.46l-.41-1.75c-.05-.21-.56-.46-.53-.66.03-.21.37-.68.11-.87l-.64-.46.08-.7-1.55-2.4c-.22.23-.35.37-.45.39s-.29-.16-.43-.39c-.84.96.51,2.09,0,3.07-.68-.82-.83-1.7-1.23-2.58-1.56-3.46-2.9-6.92-3.63-10.68-.52-2.65.24-6.05,2.72-7.61l-.04,3.48c.31,2.42.95,4.65,1.84,6.9.15.38.27.61.68.54Z"/>
                    <g>
                      <path class="cls-8" d="M21.78,64.11c-.51-1.52-.83-2.78-.61-4.46.2-.03.26.08.25.15l-.11.53.94,3.69-.46.09Z"/>
                      <path class="cls-29" d="M31.64,54.33c-.22.08-.21.24-.32.36-.6.04.31-1.39-.35-2.99-.34.33-.19.64-.24.82-.12.05-.2.05-.25.05l.22-3.8c.65,1.93,1.14,3.75.94,5.56Z"/>
                      <path class="cls-10" d="M29.05,67.94c-1.21.24-2.4-.65-3.07-1.92l-.8-1.53c-.31-.59-.4-1.28-1.17-1.46-.3.62-.24,1.27-.94,1.75l-1.34-3.78c-.3-.86.09-1.64.87-2.03.61-.31,1.55.11,1.81.94l-1.01,1.73c.12.29.36.52.62.78.55-.2.94-.53,1.33-1.08.17.08.44.28.53.52.78,2.1,1.68,4.04,3.16,6.08Z"/>
                      <path class="cls-10" d="M36.3,69.46c-1.52.49-1.9-.77-2.49-.93-.66-.17-1.47.02-1.99-.81,1.47-.66,2.09-2.35,2.72-2.24,1.11.18.9,1.86,2.16,2.63.31.19.85.05,1.17.08.41.04.51.5.39.72-.24.44-.95.22-1.97.55Z"/>
                      <path class="cls-8" d="M30.43,69.53c-.52.06-.83-.23-1.38-.38l-1-.26c.88-.17,1.73.03,2.38.64Z"/>
                    </g>
                  </g>
                  <g>
                    <path class="cls-8" d="M24.94,66.21l.33.1c.71,1.89,2.01,3.13,4.05,3.36l.55.66,2.28-.34-.22-.71,1.88-.73c.37-.27.82-.1,1.36.5.54.02.92.16,1.13.43l2.2.12c.14,0,.44.11.52.02.05-.06-.02-.41-.03-.39.39,1.08.99,2.31,1.14,3.51.08.62.04.65.39,1.18.58.89.68,2.2,1.06,3.19-.44.52-.73.85-.85,1.53.58.05.72-.4,1.06-.94l1.38,2.99c.42.91.79,1.89.97,2.86-.82.25-1.34-.48-1.94-.58-1.02-.19-1.94-.44-2.04-1.66.92.54,1.6,1.21,2.5,1.39.33-.01.37-1.14-.03-1.17-1.3-.12-2.53-.73-3.2-1.74.77-.79,1.24,1.38,2.84.72-.3-.5-.69-.51-1.14-.53.08-.31.29-.39.63-.47-.81-.9-2.62.13-3-2.08l1.55.52.47-.08c.07-.01.15-.14.03-.25l-.31-.28c-.92-.29-1.95-.42-2.45-1.38.19-.25.58-.33.73-.42.05-.45-.6-.44-.8-.53-.42-.51-.87-1.4-1.02-2.02s1.59.72,1.25-.38c-2.16.11-2.09-2.38-2.99-2.02-2.15.86-4.54,1.27-6.83.9-.78-.13-1.66-.63-2.52-.65-.31-.41-.52-1.17-.99-1.32-.06-.23-.13-.51-.37-.69-.61-.46-1.77-2.18-1.71-3.06-.21-.17-.58-.4-.69-.74l1.66.92-.28.93c.22-.11.55-.31.65-.25l.47.24c.21.11.39-.42.37-.64Z"/>
                    <path class="cls-90" d="M28.05,68.88c.85-.02,1.62.3,2.38.64.48-.05,1.02-.1,1.5-.26.45.47.99.42,1.77.49-1.87,1.19-3.38.6-4.31,1.22.02-.4-.02-.78-.25-.97-.11-.09-2.65.28-4.19-3.8-.33-.86-.7-1.72-.87-2.83l1.98,3.85c.43.84,1.17,1.45,2,1.66Z"/>
                    <path class="cls-63" d="M39.85,76c.32.06.44,0,.53.09.17.16.14.34,0,.48-.16.18-.28.11-.58-.04l-1.03-.51c-.06-.03-.08-.19-.06-.25l1.13.23Z"/>
                  </g>
                  <g>
                    <path class="cls-93" d="M50.27,68.8l.47,2.83c-.88-1.08-1.01-2.43-1.34-3.84l-.89-3.71c-.3-.11-.59-.29-.63-.46-.05-.19.12-.68.29-.66.4.05.63.15.94-.07.26-.18.67-.54.37-.92-.21-.27-.34-.49-.17-.82.15-.3.51-.11.78-.03.37-.18.43-.3.18-.37-.2.01-.54.08-.71-.31.91-.27,1.72-.79,1.52-1.92-.82.52-1.56.6-2.49.77-.52.09-1.08.6-1.7.33l-1.8-4.39c-.79-.17-1.72,1.04-1.41,1.78-.29.22-.44.04-.46-.11.01-.52-.15-.98.09-1.63.46.03,1-.48.68-.86-.16-.19-.7.03-.99.18-.51-2.22-1.57-3.93-2.41-6.02.5-.03,1.22,0,1.38-.43.15-.4-.41-.78-.75-.67-.23.08-.45.22-.86.57l-1.29-2.57c-.96-1.91-2.52-3.11-4.6-4.22,5.35-1.53,8.63,5.23,10.19,9.97l1.43,4.35c.38,1.15,1.21,2.13,1.12,3.52,1.3-.3,2.76-.85,3.74-2,.84-.99.9-2.92.46-4.09l-1.36-3.6c-.36-.96-.79-2.08-.36-3.19.29-.77,1.41-1.54,2.26-1.46.7.07,1.29.8,1.69,1.31,1.25,1.63,1.59,3.54,2.22,5.49.86,2.67,1.02,5.72-.67,8.12-1.4,1.99-3.77,3.04-6.04,3.76-.26.63-.03,1.29.15,1.92l.98,3.44Z"/>
                    <path class="cls-6" d="M50.09,61.12l.18-.37c1.18-.07,1.71-.98,2.2-1.89.32-.59.79-.82.55-1.91l.43.84c1.07-1.92.83-4.02-.11-5.87-.24.34-.62.49-.78.3.16-.76.49-1.39.98-2.1l.96,2.97c.5,1.56.48,3.4-.02,4.97s-2.9,3.47-4.39,3.06Z"/>
                    <path class="cls-10" d="M44.55,53.39c.13.44-.63.45-.89.23-.24-.19-.45-.38-.61-.85l-.67-1.93c-.12-.36-.25-1.36.2-1.43.57-.09,1.03.75,1.16,1.2l.82,2.78Z"/>
                    <path class="cls-26" d="M50.52,45.53c1.26.24,2.24,1.99,1.78,2.37-.41.34-1.21-1.04-1.78-2.37Z"/>
                  </g>
                </g>
              </g>
            </g>
            <g>
              <g>
                <g>
                  <path class="cls-63" d="M27.51,90.43c.18.02.38.06.48.22.18.29-.08,1.41-.19,1.81-.43,1.56-1.74,2.19-2.76.77l-.43-.08-3.77-14.72c-1.42-3.37-4.23-4.36-7.63-4.64l-8.67.06c-1.99.19-2.9,2.32-.71,2.96l9.82.72c2.05.4,3.13,1.17,4.04,3.09,5.88,22.2,11.57,44.42,17.08,66.68l-.11.55c-2.95,3.64-4.72,7.89-2.09,12.29,1.66,2.77,4.94,4.77,8.19,4.12-.4-1.56-.43-4.67,1.47-2.11,1.16,2.97,2.25,5.98,3.26,9.01.42.62,1.3.36,1.71-.19,1.25-2.31,2.58-4.58,4-6.81,1.21-2.38,2.3-2.94,3.27-1.67-.26.79-.61,1.55-1.05,2.28,14.29-.1,26.7,0,41.03-.18-.07-.83-.12-1.69-.14-2.58-18.01,0-34.4-.54-52.33-.91-3.59-.32-7.49-1.13-7.6-5.59-.08-3.08,1.92-4.49,4.6-5.29,24.26-4.27,48.98-8.42,73.33-12.26,4.93-1.23,8.41-2.98,10.29-7.94l5.23-21.09c.09-2.24-2.09-2.41-3.03-.71-1.71,5.88-3.19,11.84-4.44,17.88-1.48,4.59-3.18,7.11-7.98,8.46-22.91,3.72-45.86,7.29-68.85,10.7-2.96.2-5.28-.28-6.56-3.25-3.97-15.29-7.84-30.62-11.62-45.99l.33-.33c.06-.43.44-.74,1.12-.91l.53-.43,4.39,16.87,4.75,18.87,3.04,11.45c.41,1.55,2.56,1.69,3.86,1.49l13.58-2.11,21.89-3.53,32.42-5.08c3.55-.56,5.89-3.38,6.7-6.85l3.81-16.38c.33-1.42.81-2.68,2-3.58,1.09-.82,2.7-1.39,3.97-.58,1.78,1.13,2.57,3.42,2.1,5.52l-3.95,17.6c-.84,3.72-2.58,6.79-5.53,9.2-1.54,1.26-3.19,2.29-5.2,2.73l-5.06,1.09-24.44,3.87-14.26,2.25-25.04,3.91-5.96.8c-1.7.23-3.29,1.23-3.5,3.08-.16,1.43.9,2.71,2.26,3.17,1.24.42,2.48.48,3.84.49l20.02.2,13.92.07,28.53.17h7.37c1.04,0,2.16.52,2.79,1.39,1.31,1.78.68,4.43-1.23,5.52-.85.48-1.79.43-2.81.47,1.94,5.08.49,10.68-3.79,13.98-3.59,2.77-8.23,3.06-12.09.73-1.17-.71-2.15-1.46-2.99-2.59-2.45-3.29-3.04-7.57-1.53-11.47l-8.94.16-25.45-.1c2.61,6.84-1.71,14.13-8.67,15.54-3.47.47-6.77-.71-9.22-3.01-3.44-3.24-4.56-8.67-2.37-13.16-2.32-.84-4.24-2.08-5.73-4.08-3.4-4.58-2.84-11.11,1.06-15.46l-3.92-15.57-6.31-25.03-5.33-21.45-1.08-3.54c-.25-.82-1.34-1.28-2.22-1.32l-8.7-.45c-1.8-.09-3.29-.93-3.91-2.38-.72-1.68-.43-3.5.89-4.7,1-.91,2.23-1.4,3.58-1.39l7.76.03c2.6.01,5.29.52,7.33,2.1,1.78,1.38,2.94,3.16,3.49,5.29l3.27,12.65c.35-.25.61-.55.81-.84Z"/>
                  <g>
                    <path class="cls-112" d="M49.15,172.39c.39-.64.45-1.19.96-1.61.26,1.87-.72,3.67-2.4,4.39-1.48.63-3.08.3-4.17-.8-1.01-1.02-1.42-2.55-.84-4.01.62,1.15.65,2.51,1.63,3.28,1.51,1.2,3.83.36,4.82-1.25Z"/>
                    <path class="cls-14" d="M104.81,171.01c.07,2.4-1.4,4.13-3.6,4.18-1.1.02-2.24-.58-2.86-1.59-.73-1.17-.85-2.55-.52-3.8l.73,1.99c.34.91.95,1.61,1.69,1.83,2.17.66,3.2-.67,4.56-2.61Z"/>
                    <path class="cls-38" d="M101.81,178.98c4.09-1.26,6.22-3.12,6.84-7.52.76,1.87-.13,3.65-1.18,5.1-1.32,1.74-3.3,3.09-5.65,2.42Z"/>
                    <path class="cls-85" d="M93.32,171.57l-.46,1.88c-.9-2.18-.47-4.97,1.51-6.6l-1.05,4.72Z"/>
                    <path class="cls-117" d="M39.64,167.33c-.67,2.24-.92,4.26-1.08,6.56-1.05-2.17-.69-4.71.6-6.7.17-.3.55-.2.48.13Z"/>
                    <path class="cls-33" d="M48.36,179.38l2.62-2.13c.98-.8,1.37-1.88,2.15-2.96-.01,2.56-2.16,4.78-4.77,5.08Z"/>
                  </g>
                </g>
                <g>
                  <path class="cls-128" d="M25.03,93.22l.62,2.49,3.19,12.65,5.86,23.7,2.58,9.7c.3,1.15,1.15,1.92,2.08,2.49,1.39.84,2.7.85,4.28.62l24.12-3.61,11.14-1.76,12.54-1.99,20.86-3.32c4.05-.64,6.83-4.49,7.71-8.38l2.47-10.85,1.74-6.36c.21-.75.76-1.4,1.27-1.64.68-.33,1.49-.4,2.07.15.41.38.79,1.28.64,1.92l-5.23,21.12c-1.09,4.4-6.23,7.53-10.83,8.27l-18.49,2.94-37.9,6.35-16.54,2.9c-2,.35-3.83,1.63-4.31,3.6-.69,2.86,1.24,5.54,4.01,6.18,1.29.3,2.52.34,3.86.37l14.7.29,36.28.42,18.06-.48c.95-.03,1.94,0,2.57.79s.21,2.39-.82,2.65c-1.89.48-3.77.5-5.69.5.37-1.06.91-1.91.97-3.09.02-.32-.82-.15-1.07.22-1.97,2.78-3.55,5.71-5.1,8.75-.31.61-.82.92-1.45.86-.51-.05-.88-.5-1.06-1.08l-1.68-5.46-1.19-2.95c-.08-.21-.28-.31-.44-.26-.11.03-.33.21-.31.42l.33,2.44-16.79.23-22.03.09-5.32.15,1.33-2.58c.15-.29-.42-.48-.68-.44-.36.06-.45.18-.7.52-1.94,2.61-3.46,5.39-5.02,8.23-.29.54-.82.89-1.25.95-.53.07-1.14-.08-1.33-.62l-1.2-3.35c-.65-1.83-1.97-6.57-2.8-6.34-.22.06-.24.3-.22.51l.31,2.59-2.73.11c-4.19-.92-7.25-4.35-7.57-8.64-.21-2.83,1.11-5.34,2.72-7.55l.78-1.08-3.06-12.13-2.37-9.34-3.89-15.76-4.65-17.54-2.82-11.08c-.49-1.94-2.01-3.6-4.02-3.75l-9.75-.71c-.64-.05-1.18-.4-1.41-.76-.33-.52-.33-1.08-.11-1.63.34-.86,1.23-1.37,2.18-1.37l8.68-.06c3.47-.03,7.29,1.97,8.19,5.5l3.65,14.34Z"/>
                  <g>
                    <path class="cls-54" d="M49.2,147.18l-4.13.5c2.24-.86,4.54-1.08,6.95-1.55l15.91-3.09,7.15-1.22,23.62-3.38c.96-.14,1.84-.32,2.64-.01l-26.75,4.5-7.47,1.29-10.66,1.81-7.27,1.15Z"/>
                    <path class="cls-118" d="M29.35,120.42l2.63,10.76c.47,1.9,1.33,3.69,1.29,5.66-2.18-5.42-3.51-10.72-4.8-16.24l-5.29-22.65-1.44-6.94c.38.28.49.73.61,1.2l3.63,14.39,3.36,13.81Z"/>
                    <path class="cls-15" d="M59.85,163.83c3.89-.86,7.96-.69,12.09-.96,4.21.02,8.27-.58,12.51.27-8.24.84-16.19.89-24.6.68Z"/>
                    <path class="cls-91" d="M119.95,132.41c-1.76,2.38-4.4,3.93-7.39,3.87l3.59-1.63c2.7-1.67,4.26-4.38,5.42-7.51.57,1.91-.48,3.71-1.63,5.27Z"/>
                    <path class="cls-35" d="M34.85,161.08c-.02.31-.54.28-.84.02-2.33-2-2.82-5.36-1.25-8.02.63-.99.98-2.23,2.25-2.74-2.62,3.39-3.14,7.18-.16,10.74Z"/>
                    <path class="cls-69" d="M13.68,76.65l-9.37-.53c-.2-.01-.37-.15-.38-.26-.08-.86,6.67-.21,9.3.24.28.05.58.16.44.55Z"/>
                    <path class="cls-127" d="M100.9,169.36c-.47-.31-.46-.74-.21-1.14.3-.51.82-.82,1.41-.49.38.22.7.9.39,1.38s-.98.67-1.59.26Z"/>
                    <path class="cls-7" d="M45.54,169.59c-.05-.42.53-1.27.94-1.28.52,0,.82.56.88.89.07.4-.17.93-.58,1.02-.46.1-1.17,0-1.24-.63Z"/>
                  </g>
                </g>
              </g>
              <g>
                <line class="cls-79" x1="126.95" y1="105.54" x2="26.81" y2="98.66"/>
                <line class="cls-79" x1="32.46" y1="116.07" x2="121.74" y2="114.96"/>
                <line class="cls-79" x1="36.44" y1="130.12" x2="119.07" y2="125.42"/>
                <line class="cls-79" x1="43.88" y1="100.29" x2="50.36" y2="141.97"/>
                <line class="cls-79" x1="60.88" y1="101" x2="64.24" y2="140.6"/>
                <line class="cls-79" x1="77.85" y1="102.28" x2="78.89" y2="139.5"/>
                <line class="cls-79" x1="94.27" y1="103.3" x2="92.79" y2="135.22"/>
                <line class="cls-79" x1="107.86" y1="103.55" x2="106.01" y2="133.15"/>
              </g>
            </g>
            <g>
              <g>
                <path class="cls-71" d="M104.53,71.61c-.17,0-.34-.02-.51-.07-1.73-.49-2.87-1.83-3.88-3.03l-.21-.24c-.9-1.06-1.02-2.04-.34-2.91l.27-.35-.42-.73.6-.04v-.07c-.14-.61.12-1.63.96-1.95,1.23-.47,3.27-.97,4.85-.97,1.06,0,1.79.22,2.22.67,1.02,1.06.41,2.69-.08,3.99-.12.32-.23.62-.31.89l-.84,2.91c-.27.93-1.2,1.9-2.3,1.9Z"/>
                <path class="cls-63" d="M105.84,61.9c.78,0,1.43.13,1.76.48.95.98-.18,2.99-.54,4.25l-.84,2.91c-.2.69-.9,1.43-1.68,1.43-.11,0-.22-.01-.33-.05-1.65-.46-2.72-1.83-3.77-3.06-.56-.66-.9-1.36-.32-2.1l2.35,1.37c-.21-1.03-1.46-1.44-1.94-2.28,1-.08,1.94.08,2.95-.42-.96-.42-1.79-.3-2.8-.39-.08-.38.1-1.04.57-1.22,1.19-.45,3.14-.93,4.62-.93M105.84,60.61c-1.66,0-3.75.51-5.08,1.01-.87.33-1.34,1.2-1.41,2.02l-.99.07.72,1.25h0c-.61.8-1.04,2.08.37,3.73l.2.24c1.07,1.26,2.28,2.69,4.2,3.23.22.06.45.09.68.09,1.45,0,2.59-1.22,2.92-2.36l.84-2.91c.07-.23.18-.53.29-.84.52-1.4,1.24-3.31-.06-4.67-.56-.59-1.44-.87-2.69-.87h0Z"/>
              </g>
              <g>
                <path class="cls-51" d="M90.2,66.78c-1.66,0-2.31-.69-2.55-1.28-.6-1.43-.07-2.59.44-3.72.3-.66.62-1.35.71-2.11.14-1.08.51-1.97,1.13-2.62.38-.4.85-.61,1.38-.61,2.17,0,4.6,3.61,5.07,4.33.46.71.09,1.67-.32,2.12l.7.59-1.16.2.03.18c.07.48-.11,1.55-.86,1.86-1.24.51-3.1,1.05-4.57,1.05Z"/>
                <path class="cls-63" d="M91.32,57.08c1.49,0,3.49,2.43,4.53,4.04.26.41,0,1.07-.27,1.35-.89-.54-1.48-1.31-2.64-1.41.56.83,1.47,1.27,2.36,2.02-1.11.19-2.07-.03-3.19.42.96.48,1.84.37,2.9.45.04.27-.08,1.01-.47,1.17-1.19.49-2.95,1.01-4.33,1.01-.93,0-1.69-.24-1.96-.88-.82-1.93.93-3.31,1.2-5.5.1-.83.38-1.64.96-2.26.27-.29.58-.41.91-.41M91.32,55.8c-.71,0-1.35.28-1.86.82-.71.75-1.14,1.76-1.29,2.98-.08.67-.36,1.28-.66,1.93-.52,1.13-1.16,2.55-.45,4.24.32.76,1.13,1.67,3.14,1.67,1.57,0,3.52-.57,4.82-1.1.93-.38,1.23-1.4,1.27-2.1l1.95-.34-1.31-1.11c.37-.71.46-1.63,0-2.35-.7-1.09-3.17-4.63-5.61-4.63h0Z"/>
              </g>
              <g>
                <path class="cls-108" d="M98.23,66.87c-1.01,0-2.4-.6-2.88-1.48l-.06-.1-.02-.12c-.17-1.22.5-2.72,1.2-3.6l.14-.18.22-.05c.17-.04.37-.06.58-.06.92,0,2.24.43,2.87,1.14l.14.16.02.22c.08,1.03-.18,2.6-.95,3.61l-.06.08-.08.06c-.3.22-.68.33-1.14.33Z"/>
                <path class="cls-63" d="M97.41,61.92c.82,0,1.92.4,2.39.92.07.94-.18,2.33-.82,3.17-.19.14-.46.2-.75.2-.86,0-1.98-.53-2.31-1.14-.14-.99.44-2.32,1.06-3.11.13-.03.27-.04.43-.04M97.41,60.64h0c-.26,0-.5.03-.73.08l-.44.1-.28.35c-.8,1.01-1.52,2.67-1.33,4.08l.03.23.11.21c.61,1.14,2.24,1.82,3.45,1.82.59,0,1.11-.16,1.52-.46l.15-.11.11-.15c.87-1.15,1.17-2.86,1.07-4.05l-.03-.43-.29-.32c-.79-.89-2.29-1.36-3.36-1.36h0Z"/>
              </g>
            </g>
            <path class="cls-95" d="M75.66,15.92l-.85,1.31c-3.17,1.46-3.55-1.16-3.74-3.6l-.16-9.3c.16-4.33,4.49-4.14,4.96.09.39,3.53.19,7.96-.22,11.49Z"/>
            <g>
              <path class="cls-101" d="M85.01,19.05c-.64.81-1.31,1.27-2.19,1.27-.68,0-1.68-.37-2.15-1.1-.86-1.35-.53-3.16.21-4.58,1.13-2.18,2.85-6.27,3.46-8.56.18-.67.99-1.64,1.62-1.85,1.07-.34,2.22.13,2.87.77,2.19,2.12-.83,5.38-1.63,8.15-.29,1.02-.65,1.73-1.01,2.72l-1.16,3.19Z"/>
              <path class="cls-56" d="M85.42,16.7c-.39,1.04-.63,2.06-1.59,2.61-.8.46-1.78.26-2.39-.31s-.89-1.52-.54-2.43l3.63-9.36c.37-.94.58-1.84,1.53-2.39.55-.32,1.47-.18,2.02.17.45.28,1.24.92.98,1.66l-1.86,5.32-1.79,4.72Z"/>
            </g>
          </g>
          <g>
            <g>
              <path class="cls-78" d="M275.4,34.38l-2.45,19.64c-.13,1.01-1.17,1.84-2.14,1.9l-8.19.53c-1.48.1-2.35-1.19-2.19-2.56l1.7-14.95,2-17.86c.2-1.8,1.8-2.7,3.46-2.77l6.96-.26c1.31-.05,1.79,1.74,1.77,3.04l2.26-2.05c6.15-4.23,15.88-3.32,19.06,3.89,1.31,2.97,1.51,6.01,1.15,9.26l-2.24,19.76c-.15,1.34-1.26,2.36-2.55,2.44l-7.86.46c-1.59.09-2.5-1.34-2.33-2.82l2.2-18.84c.24-2.05-1.25-4.14-3.23-4.51-3.73-.7-6.91,1.95-7.38,5.71Z"/>
              <g>
                <path class="cls-78" d="M344.42,48.45c-.09.8-.6,1.73-1.29,2.01-3.76,1.54-7.84,1.9-11.76.91s-6.72-4-7.38-8.01c-.37-2.26-.15-4.48.13-6.78l1.24-10.34-4.01.12c-.96.03-1.41-1.28-1.31-2.15l.73-6.8c.15-1.39,1.21-2.43,2.58-2.52l3.39-.22,1.01-7.97c.15-1.2,1.09-2.14,2.31-2.21l8.32-.49c.64-.04,1.29.18,1.65.58s.64,1.05.56,1.69l-.95,7.55,5.86-.25c1.33-.06,2.32.95,2.24,2.3l-.75,6.56c-.32,1.56-1.45,2.38-2.99,2.48l-5.75.36-1.19,11.16c-.15,1.41.66,2.97,2.04,3.32,2.14.53,4.41-.91,5.61.28.37.37.59.98.51,1.66l-.79,6.76Z"/>
                <path class="cls-78" d="M312.7,24.5c-2.76,2.45-7.15,3.62-8.45.85-.57-1.23-.25-2.48.77-3.39,1.97-1.76,4.46-4.2,4.53-6.69-3.72-1.14-4.68-5.19-3.73-8.92,1.22-4.8,5.93-7.47,10.65-5.91,2.29,1.42,3.64,3.73,3.8,6.46.32,6.21-2.97,13.5-7.57,17.6Z"/>
              </g>
              <path class="cls-78" d="M218.02,22.85c-2.05-6.86-6.77-11.64-13.65-13.67-2.66-.78-5.39-1.18-8.2-.98l-15.7,1.12c-1.56.11-3.11,1.14-3.29,2.73l-2.58,22.19-2.82,25.19c-.19,1.65,1.08,3.19,2.84,3.04l19.73-1.57c8.88-1.18,16.41-6.34,20.69-13.96,2.39-4.25,3.6-8.71,3.93-13.55.25-3.61.08-7.09-.96-10.55ZM193.57,47.45l-6.47.55,2.87-25.66,6.06-.35c2.76.24,5.28,1.35,6.9,3.57,1.5,2.05,1.86,4.47,1.86,6.96.01,7.08-4.25,13.65-11.21,14.93Z"/>
              <path class="cls-78" d="M258.92,34.29c-.35-3.87-1.66-7.49-4.44-10.33-3.37-3.44-8.16-5.09-13.03-4.82-5.81.32-11.02,3.03-14.82,7.29-4.14,4.65-6.07,10.38-5.87,16.57.12,3.76,1.13,7.06,3.44,10,6.16,7.86,18.23,7.36,25.97,1.08,3.14-2.55,5.39-5.64,6.92-9.35,1.39-3.37,2.16-6.78,1.83-10.44ZM244.99,42.92c-1.85,2.09-4.53,3.28-7.51,2.89-2.13-.28-3.8-1.62-4.51-3.51-.96-2.55-.22-5.14,1.45-7.19,2.19-2.69,5.54-3.83,8.91-2.74,1.22.4,2.31,1.22,2.93,2.39,1.48,2.74.77,5.85-1.27,8.15Z"/>
              <g>
                <path class="cls-57" d="M147.03,64.92c-1.37.07-3.08.3-4.38-.04-2.07-.54-2.32-3.04-2.1-4.78l.37-2.91,1.22-11.19.65-5.34.44-4.51,1.05-8.73.44-3.21.67-5.77.47-4.03c.32-2.72,1.73-3.49,4.38-3.67l4.58-.3,3.95-.36c.8-.07,1.2.26,1.79.61,1.17.69,1.8,1.8,1.63,3.29l-.47,4.04-.38,2.99-.87,8.77-1.28,11.3-1.07,7.27-.28,3.81-.39,1.97-.32,3.38-.36,3.07c-.24,2.05-1.35,3.71-3.62,3.92l-2.67.24-3.46.18Z"/>
                <path class="cls-20" d="M161.34,16.49c-.06.75-.15,1.46-.27,2.14l-.78,7.67c-.14.73-.21,1.47-.23,2.23l-2.33,18.73-1.08,9.6c-.16,1.23-.32,2.46-.49,3.67.05,1.72-1.23,3.28-3.14,3.41l-9.38.63c-1.54.1-2.82-1.21-2.64-2.8l3.08-27.31,2.41-20.43c.23-1.92,2.24-2.71,3.89-2.81l7.85-.44c1.02-.06,1.82.01,2.53.67s.92,1.43.82,2.5l-.24,2.53Z"/>
                <path class="cls-4" d="M156.17,60.53c.05-1.23.15-2.68.49-3.67l-.2,2.63c-.02.31.09.84-.29,1.04Z"/>
                <path class="cls-4" d="M160.07,28.53v-1.79c0-.23.09-.37.23-.44.04.79-.14,1.52-.23,2.23Z"/>
                <path class="cls-4" d="M161.07,18.64l.06-1.72c0-.21.1-.37.21-.43v1.94c0,.17-.12.26-.27.2Z"/>
              </g>
            </g>
            <g>
              <path class="cls-78" d="M152.46,122.18l-9.01.65c-.86.06-1.71-.36-2.16-.89-.61-.72-.58-1.53-.47-2.52l3.28-29.18,1.9-16.45c.18-1.55,1.48-2.81,3.03-2.92l12.21-.85c1.25-.09,2.14.48,2.74,1.64l13,25.18c.48-.15.73-.61.79-1.15l2.68-23.51c.22-1.91.96-3.66,3.14-3.79l9.61-.55c1.49-.09,2.28,1.63,2.12,2.98l-3.77,32.42-1.5,13.71c-.19,1.73-1.47,2.94-3.22,3.05l-11.34.73c-1.59.1-2.71-.54-3.42-1.94l-2.07-4.08-5.16-10.02-6.44-12.32-3.02,26.45c.02,1.69-1.11,3.24-2.9,3.37Z"/>
              <path class="cls-78" d="M275.56,86.2c-.68-2.39-2.02-4.53-3.75-6.25l-2.78-2.15c-7.12-4.54-16.7-2.48-23.28,2.82-2.25,1.82-3.85,4.14-5.36,6.59-3.1,5.05-4.04,12.87-1.98,18.45,2.06,5.58,6.91,9.38,12.73,10.57,7.83,1.6,15.93-1.09,21.44-6.82.92-.96.75-2.33-.18-3.16l-4.87-4.32c-.71-.63-1.78-1.03-2.61-.41l-2.99,2.25c-2.52,1.57-5.54,1.77-8.17.66-1.47-.62-3.3-2.7-3.24-4.27l22.34-1.52c1.41-.1,2.84-.66,3.17-2.3.66-3.25.45-6.82-.49-10.12ZM251.63,92.27c-.28-.72.03-1.36.42-1.94,1.29-2.13,3.37-3.65,5.86-3.9,3.1-.31,5.63,1.93,5.76,5.05l-12.04.8Z"/>
              <path class="cls-78" d="M230.16,82.72c-.88-.96-2.06-1.74-3.16-2.39-2.92-1.72-6.19-2.31-9.54-2.2-10.12.35-18.27,7.2-20.95,16.91-2.49,9.03.52,18.72,9.27,22.49,4.55,1.96,9.35,2.17,14.11.86,4.46-1.23,8.51-3.52,11.38-7.18.84-1.07-.35-2.38-1.12-3.04l-4.5-3.89c-.8-.69-1.92-.84-2.82.13-3.1,3.34-8.08,4.25-11.92,1.84-1.22-.76-1.89-2.06-1.88-3.45l23.14-1.81c1.41-.11,2.32-1.41,2.42-2.7.47-5.86-.42-11.19-4.43-15.59ZM211.34,94.94c-.66.05-1.24.28-1.97.14.8-3.97,4.59-6.32,8.54-5.68,2.4.39,4.09,2.13,4.08,4.82l-10.65.72Z"/>
              <path class="cls-78" d="M325.23,58.27c-.54-.55-1.24-.81-2.18-.74l-8.53.63c-1.71.13-2.74,1.69-2.93,3.29l-1.44,12c-.14,1.17-.22,2.3-.74,3.43-5.23-5.77-13.67-4.83-19.73-.59-4.72,3.3-8.62,9.09-9.78,14.73-1.39,6.7-.68,14.32,4.51,19.05,4.35,3.96,10.68,4.81,16.16,2.68,1.91-.74,3.37-1.53,4.71-2.96.18-.2.71-.32.82-.1-.27,1.47.78,2.94,2.37,2.82l8.36-.61c1.21-.09,2.65-1.16,2.82-2.43l1.97-14.96,1.61-11.83,2.7-21.92c.13-1.02-.06-1.85-.7-2.5ZM307.41,94.85c-1.7,4.02-5.74,6.63-10.26,5.73-3.57-.72-5.68-4.58-4.43-8.28,1.32-3.85,5.09-6.52,9.15-6.4,2.22.07,4.15,1.17,5.14,2.77,1.23,1.96,1.29,4.11.4,6.19Z"/>
            </g>
          </g>
          <g>
            <path class="cls-68" d="M153.55,184.2c-1.56.12-2.83-1.05-2.66-2.6l1.92-17.28,2.36-21.71-11.53.79c-1.36.09-2.22-.7-2.54-2.09l.96-8.42c.15-1.33.67-2.7,2.02-3.15s2.82-.35,4.25-.46l8.9-.73,25.67-1.71c.87-.06,1.56.24,2.08.72s.85,1.29.74,2.18l-1.03,8.32c-.29,2.31-2.25,2.91-4.31,3.01l-9.88.5-.4,4.42-3.8,34.31c-.21,1.93-1.43,3.05-3.32,3.19l-9.43.7Z"/>
            <path class="cls-114" d="M312.52,171c-.22,2.06-2.25,2.68-3.89,3.05-4.07.94-8.11,1.15-11.98-.4-4.02-1.62-6.65-5.11-7.05-9.42l.12-4.84,1.5-13.23-3.18.21c-.92.06-1.6-.1-2.17-.71-.52-.56-.62-1.29-.52-2.15l.91-7.63c.17-1.42,1.53-2.03,2.81-2.13l3.75-.27.82-8.39c.15-1.52,1.15-2.85,2.76-2.99l5.27-.45,3.85-.21c1.46-.08,2.76,1.06,2.6,2.5l-.95,8.59,6.25-.49c.94-.07,1.68.05,2.28.63s.89,1.38.72,2.39l-1.21,7.08c-.28,1.3-1.12,2.36-2.47,2.45l-7.16.46-.91,8.58c-.18,1.73-.45,3.37-.14,5.11.18,1.05,1.27,2.29,2.33,2.44,1.39.19,2.62-.18,4.01-.32,1.2-.12,2.65.58,2.5,2.01l-.86,8.13Z"/>
            <path class="cls-11" d="M331.32,154.14c-1.38.2-2.51-.09-3.42-.85-.8-.92-.96-1.96-.7-3.27.27-.73,1.09-1.98,2.28-2.16l19.83-2.97c1.72-.26,3.05,1.14,3.4,2.54.37,1.48-.31,3.63-2.09,3.89l-19.3,2.83Z"/>
            <path class="cls-39" d="M345.85,170.03c1.75.88,2.69,2.67,1.88,4.33s-2.67,2.39-4.43,1.56l-9.29-4.37-5.91-3.08c-1.43-.74-1.54-2.6-.86-4.04.56-1.19,2.06-2.36,3.44-1.71l11.11,5.27,4.06,2.04Z"/>
            <g>
              <path class="cls-114" d="M280.21,135.28c-.46-.53-1.32-.92-2.23-.87l-8.21.52c-1.3.08-2.39.71-2.72,2.03l-.67,2.68c-1.95-2.28-4.44-3.87-7.51-4.26-5.97-.78-11.46,1.29-15.86,5.27-5.14,4.64-8.09,10.73-8.72,17.6-.21,2.34.03,4.47.44,6.81.88,5.15,3.96,9.37,8.72,11.59,2.26,1.05,4.59,1.83,7.22,1.69,5.37-.28,7.95-1.33,12.18-4.74.19,1.54.97,3.03,2.51,2.94l8.14-.47c1.66-.1,3.02-1.06,3.21-2.81l.98-9.04,2.94-26.48c.11-.97.22-1.69-.42-2.45ZM262.71,159.09c-.61,1.1-1.23,2.09-2.52,2.76l-1.95,1.49c-1.25.6-2.58.6-3.99.59-2.11-.01-3.98-1.38-4.93-2.97-1.13-1.9-1.24-4.33-.01-6.14l1.37-2.02c2.29-3.38,7.16-4.22,10.45-2.05,1.3.86,1.73,1.8,2.1,3.16.49,1.83.42,3.49-.51,5.18Z"/>
              <g>
                <path class="cls-62" d="M263.94,154.52c-.28-.96-.52-1.85-1.01-2.75l-1.32-1.38c-.67-.31-1.35-.95-2.17-.96-1.41-.29-2.85-.3-4.27-.07-3.19.71-5.79,3.03-6.86,6.21-.61,1.82-.43,4,.51,5.68,1.44,2.58,4.35,3.6,7.13,3.16.61-.22,1.27-.37,1.96-.44l1.04-.42c1.3-.8,2.44-1.78,3.41-2.94l1.53-3.47c.19-.86.17-1.75.05-2.61ZM262.71,159.09c-.61,1.1-1.23,2.09-2.52,2.76l-1.95,1.49c-1.25.6-2.58.6-3.99.59-2.11-.01-3.98-1.38-4.93-2.97-1.13-1.9-1.24-4.33-.01-6.14l1.37-2.02c2.29-3.38,7.16-4.22,10.45-2.05,1.3.86,1.73,1.8,2.1,3.16.49,1.83.42,3.49-.51,5.18Z"/>
                <g>
                  <path class="cls-36" d="M258.95,163.54c.06-.13.14-.37.28-.46,1.24-.74,2.16-1.7,3.14-2.48-.59,1.33-2.05,2.39-3.41,2.94Z"/>
                  <path class="cls-36" d="M259.43,149.43l-4.27-.07c1.28-.48,2.94-.49,4.27.07Z"/>
                  <path class="cls-36" d="M263.89,157.13l.05-2.61c.25.85.31,1.8-.05,2.61Z"/>
                  <path class="cls-36" d="M262.92,151.77c-.6-.35-1.06-.82-1.32-1.38.7.32.99.78,1.32,1.38Z"/>
                  <path class="cls-36" d="M257.91,163.96c-.69.28-1.26.33-1.96.44,0-.17.09-.26.19-.28l.46-.06,1.32-.11Z"/>
                </g>
              </g>
            </g>
            <g>
              <path class="cls-61" d="M333.81,138.43c-1.02.28-2.06-.35-2.69-1.18l-2.84-3.74-3.34,4.72c-.77,1.09-2.05,1.54-3.24.85-.86-.5-1.68-1.94-.98-2.92l3.63-5.09c-.8-.63-1.73-.85-2.56-1.21-4.9-.27-4.63-6.54.12-5.7,1.24.53,2.49,1.03,3.76,1.48.46-1.4.69-2.92.69-4.58.17-1,.57-2.27,1.7-2.4,1.83-.51,3.03.02,3.21,2.08l-.04,4.67c1.68-.53,3.34-1.13,4.98-1.81,3.7-.78,3.91,4.24.67,5.14-1.46.52-2.82,1.19-4.09,2.01.18.34.35.69.53,1.05,1.91,1.87,4.52,5.47.48,6.62Z"/>
              <path class="cls-74" d="M333.81,138.43c.87-.24,1.58-.94,1.76-1.46.26-1.08.18-1.91-.45-2.64l-3.04-3.76,5.44-2.36c1.07-.47,1.7-1.51,1.5-2.6-.17-.93-1.16-2.45-2.22-2l-6.06,2.56.45-5.2c.1-1.14-.58-2.21-1.74-2.33-.4-.04-1.03-.11-1.39.02-.35.13-.41.03-.11-.21.57-.14,1.48-.08,2.13.03.43.07,1.22.8,1.23,1.22l.18,4.88c.02.5,1.2.26,1.52,0,.8-.65,1.68-.66,2.52-.99,1.39-.54,3-.29,3.56,1.2.49,1.31.12,2.54-.94,3.42-1.98,1.65-4.36,1.49-4.82,2.77-.4,1.11,2.24,1.93,2.75,4.72.27,1.48-.81,2.82-2.28,2.75Z"/>
              <path class="cls-100" d="M328.07,118.65c-.98.38-1.44,1.41-1.51,2.42l-.36,5.28-4.11-1.87c-1.22-.56-2.34-.43-3.15.74-.44.64-.74,1.33-.54,2.21.14.57.63,1.23,1.37,1.56l2.02.88c-1.13-.05-2.57-.4-3.37-1.5-.53-.74-.47-2.14.06-3,2.33-3.83,6.19.75,7.1-.59,1.06-1.55-.44-4.99,2.38-6.32l.11.21Z"/>
            </g>
            <g>
              <path class="cls-110" d="M209.23,139.32c5.41-3.09,12.49-2.56,17.12,1.78,3.55,3.98,3.97,9.21,3.38,14.49l-2.35,21.08c-.17,1.57-1.52,2.6-2.95,2.69l-8.82.58c-.98.06-1.86-.21-2.41-.91s-.56-1.39-.45-2.34l1.92-16.89.09-3.81c.04-1.47-.72-2.78-1.75-3.51-2.51-1.77-6.07-.73-7.99,1.45-1.68,1.9-2.21,4.26-2.49,6.78l-2.04,17.9c-.19,1.7-1.6,2.62-3.12,2.72l-8.46.56c-.89.06-1.66-.2-2.2-.76s-.69-1.42-.6-2.29l1.22-11.85,4.22-37.76c.14-1.26.42-2.4,1.38-3.18.72-.59,1.7-.52,2.6-.59l7.74-.58c.89-.07,1.75.12,2.3.69.64.67.7,1.48.59,2.41l-1.27,11.14c-.13,1.14-.43,2.21-.06,3.34l4.4-3.13Z"/>
              <path class="cls-120" d="M226.35,141.1c-.48-.04-.75-.45-1.08-.71-4.03-3.14-9.44-3.62-14.07-1.81l-1.97.74c.19-.13.25-.49.66-.63l4.28-1.41c.95-.31,2.13-.11,3.13-.02l2.17.18c2.01.17,3.71,1.29,5.39,2.22.72.4,1,.88,1.5,1.44Z"/>
            </g>
          </g>
        </g>
      </g>
      <path class="cls-9" d="M87.65,106.36c-.39.14-.67.47-.94.46-.29-.01-.67-.15-.9-.39l-3.85-3.96-4.93-5.42c-.63-.69-1.16-1.29-1.57-2.15l14.29-4.57,19.99-6.41,7.95-2.52c.81-.26,1.66-.05,2.2.49l3.31,3.37,6.15,6.48-2.65.77-4.29,1.44-25.72,9.14-9.03,3.28Z"/>
      <path class="cls-46" d="M63.54,106.02l-11.11-3.2-5.93-2-19-6.24c.08-.4.39-.52.61-.62-.58-.42-.73.35-.96.42-.71.12-1.58-.3-2.29-.59l3.07-3.72c1.95-2.37,3.91-4.62,5.69-7.12.24-.33.91-.2,1.24-.12l11.94,3.16,8.76,2.36,14.41,3.77,3.69.68c-1.13,1.96-2.56,3.56-3.95,5.32l-4.22,5.37-1.94,2.55Z"/>
    </g>
  </g>
</svg>