<?xml version="1.0" encoding="UTF-8"?>
<svg id="Layer_2" data-name="Layer 2" xmlns="http://www.w3.org/2000/svg" viewBox="0 0 212.33 184.21">
  <defs>
    <style>
      .cls-1 {
        fill: #e9f7bd;
      }

      .cls-2 {
        fill: #72b70b;
      }

      .cls-3 {
        fill: #73b70c;
      }

      .cls-4 {
        fill: #e9fabf;
      }

      .cls-5 {
        fill: #72b60b;
      }

      .cls-6 {
        fill: #ecfbbf;
      }

      .cls-7 {
        fill: #72b609;
      }

      .cls-8 {
        fill: #ebfac0;
      }

      .cls-9 {
        fill: #72b70d;
      }

      .cls-10 {
        fill: #e4f6b6;
      }

      .cls-11 {
        fill: #fafafa;
      }

      .cls-12 {
        fill: #e6f7b7;
      }

      .cls-13 {
        fill: #71b60c;
      }

      .cls-14 {
        fill: #72b60c;
      }

      .cls-15 {
        fill: #d9eca8;
      }
    </style>
  </defs>
  <g id="Layer_1-2" data-name="Layer 1">
    <g>
      <g>
        <g>
          <path class="cls-11" d="M134.93,34.38l-2.45,19.64c-.13,1.01-1.17,1.84-2.14,1.9l-8.19.53c-1.48.1-2.35-1.19-2.19-2.56l1.7-14.95,2-17.86c.2-1.8,1.8-2.7,3.46-2.77l6.96-.26c1.31-.05,1.79,1.74,1.77,3.04l2.26-2.05c6.15-4.23,15.88-3.32,19.06,3.89,1.31,2.97,1.51,6.01,1.15,9.26l-2.24,19.76c-.15,1.34-1.26,2.36-2.55,2.44l-7.86.46c-1.59.09-2.5-1.34-2.33-2.82l2.2-18.84c.24-2.05-1.25-4.14-3.23-4.51-3.73-.7-6.91,1.95-7.38,5.71Z"/>
          <g>
            <path class="cls-11" d="M203.94,48.45c-.09.8-.6,1.73-1.29,2.01-3.76,1.54-7.84,1.9-11.76.91s-6.72-4-7.38-8.01c-.37-2.26-.15-4.48.13-6.78l1.24-10.34-4.01.12c-.96.03-1.41-1.28-1.31-2.15l.73-6.8c.15-1.39,1.21-2.43,2.58-2.52l3.39-.22,1.01-7.97c.15-1.2,1.09-2.14,2.31-2.21l8.32-.49c.64-.04,1.29.18,1.65.58s.64,1.05.56,1.69l-.95,7.55,5.86-.25c1.33-.06,2.32.95,2.24,2.3l-.75,6.56c-.32,1.56-1.45,2.38-2.99,2.48l-5.75.36-1.19,11.16c-.15,1.41.66,2.97,2.04,3.32,2.14.53,4.41-.91,5.61.28.37.37.59.98.51,1.66l-.79,6.76Z"/>
            <path class="cls-11" d="M172.22,24.5c-2.76,2.45-7.15,3.62-8.45.85-.57-1.23-.25-2.48.77-3.39,1.97-1.76,4.46-4.2,4.53-6.69-3.72-1.14-4.68-5.19-3.73-8.92,1.22-4.8,5.93-7.47,10.65-5.91,2.29,1.42,3.64,3.73,3.8,6.46.32,6.21-2.97,13.5-7.57,17.6Z"/>
          </g>
          <path class="cls-11" d="M77.54,22.85c-2.05-6.86-6.77-11.64-13.65-13.67-2.66-.78-5.39-1.18-8.2-.98l-15.7,1.12c-1.56.11-3.11,1.14-3.29,2.73l-2.58,22.19-2.82,25.19c-.19,1.65,1.08,3.19,2.84,3.04l19.73-1.57c8.88-1.18,16.41-6.34,20.69-13.96,2.39-4.25,3.6-8.71,3.93-13.55.25-3.61.08-7.09-.96-10.55ZM53.1,47.45l-6.47.55,2.87-25.66,6.06-.35c2.76.24,5.28,1.35,6.9,3.57,1.5,2.05,1.86,4.47,1.86,6.96.01,7.08-4.25,13.65-11.21,14.93Z"/>
          <path class="cls-11" d="M118.44,34.29c-.35-3.87-1.66-7.49-4.44-10.33-3.37-3.44-8.16-5.09-13.03-4.82-5.81.32-11.02,3.03-14.82,7.29-4.14,4.65-6.07,10.38-5.87,16.57.12,3.76,1.13,7.06,3.44,10,6.16,7.86,18.23,7.36,25.97,1.08,3.14-2.55,5.39-5.64,6.92-9.35,1.39-3.37,2.16-6.78,1.83-10.44ZM104.52,42.92c-1.85,2.09-4.53,3.28-7.51,2.89-2.13-.28-3.8-1.62-4.51-3.51-.96-2.55-.22-5.14,1.45-7.19,2.19-2.69,5.54-3.83,8.91-2.74,1.22.4,2.31,1.22,2.93,2.39,1.48,2.74.77,5.85-1.27,8.15Z"/>
          <g>
            <path class="cls-6" d="M6.55,64.92c-1.37.07-3.08.3-4.38-.04-2.07-.54-2.32-3.04-2.1-4.78l.37-2.91,1.22-11.19.65-5.34.44-4.51,1.05-8.73.44-3.21.67-5.77.47-4.03c.32-2.72,1.73-3.49,4.38-3.67l4.58-.3,3.95-.36c.8-.07,1.2.26,1.79.61,1.17.69,1.8,1.8,1.63,3.29l-.47,4.04-.38,2.99-.87,8.77-1.28,11.3-1.07,7.27-.28,3.81-.39,1.97-.32,3.38-.36,3.07c-.24,2.05-1.35,3.71-3.62,3.92l-2.67.24-3.46.18Z"/>
            <path class="cls-3" d="M20.86,16.49c-.06.75-.15,1.46-.27,2.14l-.78,7.67c-.14.73-.21,1.47-.23,2.23l-2.33,18.73-1.08,9.6c-.16,1.23-.32,2.46-.49,3.67.05,1.72-1.23,3.28-3.14,3.41l-9.38.63c-1.54.1-2.82-1.21-2.64-2.8l3.08-27.31,2.41-20.43c.23-1.92,2.24-2.71,3.89-2.81l7.85-.44c1.02-.06,1.82.01,2.53.67s.92,1.43.82,2.5l-.24,2.53Z"/>
            <path class="cls-1" d="M15.69,60.53c.05-1.23.15-2.68.49-3.67l-.2,2.63c-.02.31.09.84-.29,1.04Z"/>
            <path class="cls-1" d="M19.59,28.53v-1.79c0-.23.09-.37.23-.44.04.79-.14,1.52-.23,2.23Z"/>
            <path class="cls-1" d="M20.59,18.64l.06-1.72c0-.21.1-.37.21-.43v1.94c0,.17-.12.26-.27.2Z"/>
          </g>
        </g>
        <g>
          <path class="cls-11" d="M11.98,122.18l-9.01.65c-.86.06-1.71-.36-2.16-.89-.61-.72-.58-1.53-.47-2.52l3.28-29.18,1.9-16.45c.18-1.55,1.48-2.81,3.03-2.92l12.21-.85c1.25-.09,2.14.48,2.74,1.64l13,25.18c.48-.15.73-.61.79-1.15l2.68-23.51c.22-1.91.96-3.66,3.14-3.79l9.61-.55c1.49-.09,2.28,1.63,2.12,2.98l-3.77,32.42-1.5,13.71c-.19,1.73-1.47,2.94-3.22,3.05l-11.34.73c-1.59.1-2.71-.54-3.42-1.94l-2.07-4.08-5.16-10.02-6.44-12.32-3.02,26.45c.02,1.69-1.11,3.24-2.9,3.37Z"/>
          <path class="cls-11" d="M135.08,86.2c-.68-2.39-2.02-4.53-3.75-6.25l-2.78-2.15c-7.12-4.54-16.7-2.48-23.28,2.82-2.25,1.82-3.85,4.14-5.36,6.59-3.1,5.05-4.04,12.87-1.98,18.45,2.06,5.58,6.91,9.38,12.73,10.57,7.83,1.6,15.93-1.09,21.44-6.82.92-.96.75-2.33-.18-3.16l-4.87-4.32c-.71-.63-1.78-1.03-2.61-.41l-2.99,2.25c-2.52,1.57-5.54,1.77-8.17.66-1.47-.62-3.3-2.7-3.24-4.27l22.34-1.52c1.41-.1,2.84-.66,3.17-2.3.66-3.25.45-6.82-.49-10.12ZM111.15,92.27c-.28-.72.03-1.36.42-1.94,1.29-2.13,3.37-3.65,5.86-3.9,3.1-.31,5.63,1.93,5.76,5.05l-12.04.8Z"/>
          <path class="cls-11" d="M89.68,82.72c-.88-.96-2.06-1.74-3.16-2.39-2.92-1.72-6.19-2.31-9.54-2.2-10.12.35-18.27,7.2-20.95,16.91-2.49,9.03.52,18.72,9.27,22.49,4.55,1.96,9.35,2.17,14.11.86,4.46-1.23,8.51-3.52,11.38-7.18.84-1.07-.35-2.38-1.12-3.04l-4.5-3.89c-.8-.69-1.92-.84-2.82.13-3.1,3.34-8.08,4.25-11.92,1.84-1.22-.76-1.89-2.06-1.88-3.45l23.14-1.81c1.41-.11,2.32-1.41,2.42-2.7.47-5.86-.42-11.19-4.43-15.59ZM70.86,94.94c-.66.05-1.24.28-1.97.14.8-3.97,4.59-6.32,8.54-5.68,2.4.39,4.09,2.13,4.08,4.82l-10.65.72Z"/>
          <path class="cls-11" d="M184.75,58.27c-.54-.55-1.24-.81-2.18-.74l-8.53.63c-1.71.13-2.74,1.69-2.93,3.29l-1.44,12c-.14,1.17-.22,2.3-.74,3.43-5.23-5.77-13.67-4.83-19.73-.59-4.72,3.3-8.62,9.09-9.78,14.73-1.39,6.7-.68,14.32,4.51,19.05,4.35,3.96,10.68,4.81,16.16,2.68,1.91-.74,3.37-1.53,4.71-2.96.18-.2.71-.32.82-.1-.27,1.47.78,2.94,2.37,2.82l8.36-.61c1.21-.09,2.65-1.16,2.82-2.43l1.97-14.96,1.61-11.83,2.7-21.92c.13-1.02-.06-1.85-.7-2.5ZM166.93,94.85c-1.7,4.02-5.74,6.63-10.26,5.73-3.57-.72-5.68-4.58-4.43-8.28,1.32-3.85,5.09-6.52,9.15-6.4,2.22.07,4.15,1.17,5.14,2.77,1.23,1.96,1.29,4.11.4,6.19Z"/>
        </g>
      </g>
      <g>
        <path class="cls-9" d="M13.07,184.2c-1.56.12-2.83-1.05-2.66-2.6l1.92-17.28,2.36-21.71-11.53.79c-1.36.09-2.22-.7-2.54-2.09l.96-8.42c.15-1.33.67-2.7,2.02-3.15s2.82-.35,4.25-.46l8.9-.73,25.67-1.71c.87-.06,1.56.24,2.08.72s.85,1.29.74,2.18l-1.03,8.32c-.29,2.31-2.25,2.91-4.31,3.01l-9.88.5-.4,4.42-3.8,34.31c-.21,1.93-1.43,3.05-3.32,3.19l-9.43.7Z"/>
        <path class="cls-14" d="M172.04,171c-.22,2.06-2.25,2.68-3.89,3.05-4.07.94-8.11,1.15-11.98-.4-4.02-1.62-6.65-5.11-7.05-9.42l.12-4.84,1.5-13.23-3.18.21c-.92.06-1.6-.1-2.17-.71-.52-.56-.62-1.29-.52-2.15l.91-7.63c.17-1.42,1.53-2.03,2.81-2.13l3.75-.27.82-8.39c.15-1.52,1.15-2.85,2.76-2.99l5.27-.45,3.85-.21c1.46-.08,2.76,1.06,2.6,2.5l-.95,8.59,6.25-.49c.94-.07,1.68.05,2.28.63s.89,1.38.72,2.39l-1.21,7.08c-.28,1.3-1.12,2.36-2.47,2.45l-7.16.46-.91,8.58c-.18,1.73-.45,3.37-.14,5.11.18,1.05,1.27,2.29,2.33,2.44,1.39.19,2.62-.18,4.01-.32,1.2-.12,2.65.58,2.5,2.01l-.86,8.13Z"/>
        <path class="cls-2" d="M190.84,154.14c-1.38.2-2.51-.09-3.42-.85-.8-.92-.96-1.96-.7-3.27.27-.73,1.09-1.98,2.28-2.16l19.83-2.97c1.72-.26,3.05,1.14,3.4,2.54.37,1.48-.31,3.63-2.09,3.89l-19.3,2.83Z"/>
        <path class="cls-5" d="M205.37,170.03c1.75.88,2.69,2.67,1.88,4.33s-2.67,2.39-4.43,1.56l-9.29-4.37-5.91-3.08c-1.43-.74-1.54-2.6-.86-4.04.56-1.19,2.06-2.36,3.44-1.71l11.11,5.27,4.06,2.04Z"/>
        <g>
          <path class="cls-14" d="M139.73,135.28c-.46-.53-1.32-.92-2.23-.87l-8.21.52c-1.3.08-2.39.71-2.72,2.03l-.67,2.68c-1.95-2.28-4.44-3.87-7.51-4.26-5.97-.78-11.46,1.29-15.86,5.27-5.14,4.64-8.09,10.73-8.72,17.6-.21,2.34.03,4.47.44,6.81.88,5.15,3.96,9.37,8.72,11.59,2.26,1.05,4.59,1.83,7.22,1.69,5.37-.28,7.95-1.33,12.18-4.74.19,1.54.97,3.03,2.51,2.94l8.14-.47c1.66-.1,3.02-1.06,3.21-2.81l.98-9.04,2.94-26.48c.11-.97.22-1.69-.42-2.45ZM122.23,159.09c-.61,1.1-1.23,2.09-2.52,2.76l-1.95,1.49c-1.25.6-2.58.6-3.99.59-2.11-.01-3.98-1.38-4.93-2.97-1.13-1.9-1.24-4.33-.01-6.14l1.37-2.02c2.29-3.38,7.16-4.22,10.45-2.05,1.3.86,1.73,1.8,2.1,3.16.49,1.83.42,3.49-.51,5.18Z"/>
          <g>
            <path class="cls-8" d="M123.46,154.52c-.28-.96-.52-1.85-1.01-2.75l-1.32-1.38c-.67-.31-1.35-.95-2.17-.96-1.41-.29-2.85-.3-4.27-.07-3.19.71-5.79,3.03-6.86,6.21-.61,1.82-.43,4,.51,5.68,1.44,2.58,4.35,3.6,7.13,3.16.61-.22,1.27-.37,1.96-.44l1.04-.42c1.3-.8,2.44-1.78,3.41-2.94l1.53-3.47c.19-.86.17-1.75.05-2.61ZM122.23,159.09c-.61,1.1-1.23,2.09-2.52,2.76l-1.95,1.49c-1.25.6-2.58.6-3.99.59-2.11-.01-3.98-1.38-4.93-2.97-1.13-1.9-1.24-4.33-.01-6.14l1.37-2.02c2.29-3.38,7.16-4.22,10.45-2.05,1.3.86,1.73,1.8,2.1,3.16.49,1.83.42,3.49-.51,5.18Z"/>
            <g>
              <path class="cls-4" d="M118.47,163.54c.06-.13.14-.37.28-.46,1.24-.74,2.16-1.7,3.14-2.48-.59,1.33-2.05,2.39-3.41,2.94Z"/>
              <path class="cls-4" d="M118.95,149.43l-4.27-.07c1.28-.48,2.94-.49,4.27.07Z"/>
              <path class="cls-4" d="M123.42,157.13l.05-2.61c.25.85.31,1.8-.05,2.61Z"/>
              <path class="cls-4" d="M122.45,151.77c-.6-.35-1.06-.82-1.32-1.38.7.32.99.78,1.32,1.38Z"/>
              <path class="cls-4" d="M117.43,163.96c-.69.28-1.26.33-1.96.44,0-.17.09-.26.19-.28l.46-.06,1.32-.11Z"/>
            </g>
          </g>
        </g>
        <g>
          <path class="cls-7" d="M193.33,138.43c-1.02.28-2.06-.35-2.69-1.18l-2.84-3.74-3.34,4.72c-.77,1.09-2.05,1.54-3.24.85-.86-.5-1.68-1.94-.98-2.92l3.63-5.09c-.8-.63-1.73-.85-2.56-1.21-4.9-.27-4.63-6.54.12-5.7,1.24.53,2.49,1.03,3.76,1.48.46-1.4.69-2.92.69-4.58.17-1,.57-2.27,1.7-2.4,1.83-.51,3.03.02,3.21,2.08l-.04,4.67c1.68-.53,3.34-1.13,4.98-1.81,3.7-.78,3.91,4.24.67,5.14-1.46.52-2.82,1.19-4.09,2.01.18.34.35.69.53,1.05,1.91,1.87,4.52,5.47.48,6.62Z"/>
          <path class="cls-10" d="M193.33,138.43c.87-.24,1.58-.94,1.76-1.46.26-1.08.18-1.91-.45-2.64l-3.04-3.76,5.44-2.36c1.07-.47,1.7-1.51,1.5-2.6-.17-.93-1.16-2.45-2.22-2l-6.06,2.56.45-5.2c.1-1.14-.58-2.21-1.74-2.33-.4-.04-1.03-.11-1.39.02-.35.13-.41.03-.11-.21.57-.14,1.48-.08,2.13.03.43.07,1.22.8,1.23,1.22l.18,4.88c.02.5,1.2.26,1.52,0,.8-.65,1.68-.66,2.52-.99,1.39-.54,3-.29,3.56,1.2.49,1.31.12,2.54-.94,3.42-1.98,1.65-4.36,1.49-4.82,2.77-.4,1.11,2.24,1.93,2.75,4.72.27,1.48-.81,2.82-2.28,2.75Z"/>
          <path class="cls-12" d="M187.59,118.65c-.98.38-1.44,1.41-1.51,2.42l-.36,5.28-4.11-1.87c-1.22-.56-2.34-.43-3.15.74-.44.64-.74,1.33-.54,2.21.14.57.63,1.23,1.37,1.56l2.02.88c-1.13-.05-2.57-.4-3.37-1.5-.53-.74-.47-2.14.06-3,2.33-3.83,6.19.75,7.1-.59,1.06-1.55-.44-4.99,2.38-6.32l.11.21Z"/>
        </g>
        <g>
          <path class="cls-13" d="M68.75,139.32c5.41-3.09,12.49-2.56,17.12,1.78,3.55,3.98,3.97,9.21,3.38,14.49l-2.35,21.08c-.17,1.57-1.52,2.6-2.95,2.69l-8.82.58c-.98.06-1.86-.21-2.41-.91s-.56-1.39-.45-2.34l1.92-16.89.09-3.81c.04-1.47-.72-2.78-1.75-3.51-2.51-1.77-6.07-.73-7.99,1.45-1.68,1.9-2.21,4.26-2.49,6.78l-2.04,17.9c-.19,1.7-1.6,2.62-3.12,2.72l-8.46.56c-.89.06-1.66-.2-2.2-.76s-.69-1.42-.6-2.29l1.22-11.85,4.22-37.76c.14-1.26.42-2.4,1.38-3.18.72-.59,1.7-.52,2.6-.59l7.74-.58c.89-.07,1.75.12,2.3.69.64.67.7,1.48.59,2.41l-1.27,11.14c-.13,1.14-.43,2.21-.06,3.34l4.4-3.13Z"/>
          <path class="cls-15" d="M85.88,141.1c-.48-.04-.75-.45-1.08-.71-4.03-3.14-9.44-3.62-14.07-1.81l-1.97.74c.19-.13.25-.49.66-.63l4.28-1.41c.95-.31,2.13-.11,3.13-.02l2.17.18c2.01.17,3.71,1.29,5.39,2.22.72.4,1,.88,1.5,1.44Z"/>
        </g>
      </g>
    </g>
  </g>
</svg>