<?xml version="1.0" encoding="UTF-8"?>
<svg id="Layer_2" data-name="Layer 2" xmlns="http://www.w3.org/2000/svg" viewBox="0 0 445.59 386.57">
  <defs>
    <style>
      .cls-1 {
        fill: #e9f7bd;
      }

      .cls-2 {
        fill: #72b70b;
      }

      .cls-3 {
        fill: #73b70c;
      }

      .cls-4 {
        fill: #1c1b17;
      }

      .cls-5 {
        fill: #e9fabf;
      }

      .cls-6 {
        fill: #1d1a17;
      }

      .cls-7 {
        fill: #72b60b;
      }

      .cls-8 {
        fill: #1b1a18;
      }

      .cls-9 {
        fill: #ecfbbf;
      }

      .cls-10 {
        fill: #1b1a17;
      }

      .cls-11 {
        fill: #72b609;
      }

      .cls-12 {
        fill: #ebfac0;
      }

      .cls-13 {
        fill: #1b1a16;
      }

      .cls-14 {
        fill: #72b70d;
      }

      .cls-15 {
        fill: #e4f6b6;
      }

      .cls-16 {
        fill: #1c1a17;
      }

      .cls-17 {
        fill: #e6f7b7;
      }

      .cls-18 {
        fill: #71b60c;
      }

      .cls-19 {
        fill: #72b60c;
      }

      .cls-20 {
        fill: #d9eca8;
      }
    </style>
  </defs>
  <g id="Layer_2-2" data-name="Layer 2">
    <g>
      <g>
        <g>
          <path class="cls-8" d="M283.15,72.14l-5.13,41.22c-.26,2.13-2.46,3.85-4.49,3.98l-17.18,1.11c-3.1.2-4.93-2.49-4.6-5.38l3.57-31.38,4.2-37.49c.42-3.78,3.78-5.67,7.25-5.8l14.61-.55c2.76-.1,3.75,3.65,3.71,6.38l4.75-4.31c12.9-8.88,33.33-6.97,40,8.16,2.75,6.24,3.18,12.62,2.41,19.44l-4.7,41.47c-.32,2.81-2.65,4.95-5.36,5.11l-16.5.97c-3.34.2-5.25-2.81-4.89-5.91l4.61-39.54c.5-4.31-2.63-8.68-6.78-9.47-7.83-1.48-14.51,4.09-15.49,11.98Z"/>
          <g>
            <path class="cls-8" d="M427.98,101.68c-.2,1.68-1.26,3.62-2.71,4.22-7.89,3.24-16.45,3.98-24.67,1.91-8.25-2.08-14.1-8.39-15.48-16.82-.78-4.73-.31-9.39.27-14.22l2.6-21.69-8.41.25c-2.02.06-2.96-2.68-2.76-4.52l1.54-14.26c.31-2.91,2.54-5.1,5.41-5.29l7.12-.47,2.12-16.72c.32-2.52,2.3-4.5,4.84-4.65l17.45-1.03c1.34-.08,2.72.37,3.45,1.21s1.34,2.21,1.17,3.55l-2,15.85,12.29-.51c2.8-.12,4.88,1.99,4.71,4.83l-1.57,13.77c-.66,3.28-3.04,5-6.27,5.2l-12.06.75-2.5,23.43c-.32,2.95,1.38,6.24,4.29,6.96,4.5,1.11,9.25-1.91,11.77.6.78.78,1.23,2.06,1.07,3.49l-1.66,14.18Z"/>
            <path class="cls-10" d="M361.42,51.42c-5.79,5.15-15.01,7.59-17.73,1.79-1.21-2.58-.53-5.19,1.61-7.11,4.13-3.69,9.36-8.81,9.5-14.05-7.8-2.4-9.81-10.9-7.82-18.72,2.57-10.08,12.44-15.67,22.35-12.4,4.8,2.98,7.63,7.83,7.97,13.56.66,13.03-6.22,28.33-15.88,36.93Z"/>
          </g>
          <path class="cls-16" d="M162.73,47.95c-4.31-14.4-14.2-24.43-28.65-28.68-5.58-1.64-11.31-2.47-17.2-2.05l-32.94,2.35c-3.28.23-6.53,2.4-6.91,5.73l-5.41,46.56-5.91,52.86c-.39,3.46,2.26,6.69,5.96,6.39l41.4-3.3c18.63-2.47,34.43-13.31,43.42-29.29,5.01-8.92,7.55-18.28,8.25-28.43.53-7.58.17-14.87-2.01-22.14ZM111.43,99.59l-13.58,1.15,6.02-53.85,12.71-.73c5.8.51,11.08,2.84,14.47,7.49,3.14,4.31,3.9,9.39,3.91,14.61.03,14.85-8.92,28.64-23.53,31.33Z"/>
          <path class="cls-8" d="M248.56,71.96c-.74-8.13-3.48-15.72-9.31-21.67-7.08-7.21-17.13-10.69-27.35-10.12-12.19.67-23.13,6.35-31.11,15.3-8.69,9.75-12.74,21.78-12.31,34.77.26,7.89,2.37,14.82,7.22,20.99,12.93,16.49,38.25,15.45,54.49,2.26,6.58-5.35,11.31-11.84,14.52-19.62,2.92-7.07,4.54-14.23,3.85-21.91ZM219.34,90.08c-3.88,4.39-9.51,6.88-15.76,6.07-4.47-.58-7.97-3.41-9.47-7.36-2.02-5.35-.46-10.79,3.05-15.09,4.6-5.65,11.62-8.04,18.69-5.74,2.56.84,4.84,2.57,6.15,5.02,3.1,5.75,1.62,12.27-2.66,17.1Z"/>
          <g>
            <path class="cls-9" d="M13.74,136.24c-2.88.15-6.47.62-9.2-.09-4.35-1.14-4.87-6.37-4.4-10.04l.79-6.11,2.55-23.48,1.36-11.2.91-9.46,2.21-18.33.92-6.73,1.41-12.11.99-8.46c.67-5.72,3.62-7.33,9.2-7.7l9.62-.63,8.29-.76c1.69-.15,2.51.54,3.75,1.27,2.45,1.44,3.78,3.78,3.42,6.9l-.98,8.47-.79,6.27-1.82,18.4-2.69,23.71-2.24,15.26-.58,8-.81,4.14-.68,7.1-.76,6.44c-.51,4.31-2.83,7.79-7.6,8.23l-5.59.51-7.27.39Z"/>
            <path class="cls-3" d="M43.78,34.61c-.13,1.57-.32,3.07-.57,4.5l-1.63,16.09c-.29,1.53-.45,3.08-.48,4.68l-4.88,39.3-2.27,20.15c-.33,2.59-.67,5.16-1.02,7.71.1,3.61-2.58,6.88-6.6,7.15l-19.69,1.32c-3.23.22-5.92-2.53-5.54-5.88l6.46-57.3,5.06-42.87c.48-4.03,4.7-5.69,8.17-5.89l16.46-.91c2.15-.12,3.82.03,5.31,1.4s1.94,2.99,1.73,5.25l-.5,5.3Z"/>
            <path class="cls-1" d="M32.93,127.04c.1-2.58.32-5.63,1.02-7.71l-.42,5.53c-.05.66.2,1.76-.6,2.18Z"/>
            <path class="cls-1" d="M41.11,59.88v-3.75c0-.48.2-.79.48-.93.09,1.66-.3,3.19-.48,4.68Z"/>
            <path class="cls-1" d="M43.22,39.11l.13-3.6c.02-.45.21-.78.44-.9l.02,4.07c0,.37-.27.54-.58.42Z"/>
          </g>
        </g>
        <g>
          <path class="cls-4" d="M25.15,256.4l-18.91,1.35c-1.81.13-3.59-.76-4.53-1.86-1.29-1.51-1.22-3.21-.99-5.29l6.87-61.23,3.98-34.53c.38-3.26,3.11-5.91,6.35-6.13l25.63-1.79c2.62-.18,4.49,1,5.74,3.43l27.28,52.83c1-.32,1.54-1.28,1.67-2.42l5.63-49.34c.46-4,2.02-7.69,6.59-7.95l20.16-1.16c3.13-.18,4.78,3.41,4.45,6.26l-7.91,68.04-3.15,28.77c-.4,3.63-3.08,6.17-6.75,6.4l-23.8,1.52c-3.33.21-5.69-1.13-7.18-4.06l-4.35-8.55-10.84-21.03-13.51-25.85-6.34,55.51c.04,3.55-2.32,6.81-6.08,7.08Z"/>
          <path class="cls-13" d="M283.49,180.91c-1.42-5.02-4.24-9.51-7.88-13.11l-5.83-4.51c-14.95-9.52-35.05-5.21-48.86,5.91-4.73,3.81-8.09,8.68-11.24,13.83-6.5,10.59-8.47,27-4.16,38.71,4.32,11.72,14.5,19.68,26.72,22.18,16.44,3.36,33.44-2.29,45-14.32,1.93-2.01,1.58-4.9-.37-6.63l-10.22-9.06c-1.48-1.32-3.73-2.17-5.47-.87l-6.27,4.72c-5.29,3.29-11.63,3.72-17.15,1.38-3.09-1.31-6.93-5.67-6.79-8.97l46.89-3.2c2.95-.2,5.97-1.38,6.66-4.82,1.38-6.82.94-14.32-1.03-21.24ZM233.26,193.65c-.59-1.51.07-2.85.89-4.08,2.71-4.47,7.07-7.67,12.29-8.18,6.51-.65,11.81,4.05,12.08,10.59l-25.26,1.67Z"/>
          <path class="cls-6" d="M188.21,173.6c-1.84-2.02-4.33-3.65-6.64-5.01-6.12-3.61-12.99-4.84-20.03-4.61-21.23.73-38.34,15.11-43.96,35.49-5.23,18.95,1.1,39.29,19.46,47.19,9.55,4.11,19.63,4.56,29.62,1.8,9.36-2.58,17.86-7.39,23.88-15.07,1.76-2.25-.74-4.99-2.35-6.37l-9.44-8.16c-1.68-1.45-4.02-1.77-5.92.28-6.5,7.01-16.96,8.92-25.02,3.87-2.56-1.6-3.97-4.33-3.95-7.23l48.57-3.8c2.96-.23,4.86-2.95,5.08-5.66.99-12.3-.88-23.48-9.3-32.72ZM148.72,199.25c-1.38.1-2.61.59-4.13.3,1.68-8.34,9.64-13.26,17.92-11.92,5.04.82,8.59,4.47,8.57,10.11l-22.36,1.51Z"/>
          <path class="cls-4" d="M387.72,122.28c-1.14-1.16-2.6-1.7-4.58-1.55l-17.9,1.33c-3.58.27-5.74,3.54-6.15,6.91l-3.03,25.18c-.29,2.45-.47,4.83-1.55,7.19-10.98-12.11-28.68-10.13-41.41-1.23-9.91,6.92-18.08,19.07-20.52,30.91-2.91,14.07-1.43,30.06,9.47,39.97,9.12,8.3,22.41,10.09,33.92,5.63,4.01-1.56,7.08-3.21,9.88-6.21.38-.41,1.48-.67,1.73-.2-.56,3.08,1.64,6.16,4.97,5.92l17.54-1.28c2.53-.18,5.56-2.44,5.92-5.11l4.14-31.39,3.37-24.83,5.66-46c.27-2.15-.13-3.88-1.46-5.24ZM350.33,199.05c-3.57,8.43-12.05,13.91-21.53,12.02-7.5-1.51-11.93-9.62-9.3-17.37,2.76-8.09,10.68-13.68,19.2-13.44,4.65.14,8.7,2.45,10.79,5.81,2.58,4.11,2.7,8.62.84,12.98Z"/>
        </g>
      </g>
      <g>
        <path class="cls-14" d="M27.43,386.56c-3.28.24-5.95-2.2-5.59-5.45l4.03-36.27,4.95-45.56-24.2,1.66c-2.85.2-4.66-1.46-5.32-4.38l2.01-17.67c.32-2.79,1.41-5.66,4.24-6.6,2.85-.95,5.92-.73,8.92-.97l18.68-1.53,53.87-3.59c1.82-.12,3.27.49,4.36,1.51s1.78,2.7,1.55,4.58l-2.17,17.46c-.6,4.85-4.71,6.1-9.05,6.32l-20.73,1.06-.85,9.28-7.97,71.99c-.45,4.05-3.01,6.4-6.96,6.69l-19.78,1.48Z"/>
        <path class="cls-19" d="M361.04,358.86c-.46,4.32-4.72,5.62-8.16,6.41-8.54,1.96-17.02,2.42-25.14-.84-8.44-3.39-13.96-10.72-14.8-19.77l.24-10.15,3.15-27.77-6.67.45c-1.94.13-3.37-.2-4.56-1.5-1.09-1.17-1.3-2.71-1.09-4.52l1.92-16.02c.36-2.98,3.21-4.27,5.9-4.46l7.88-.56,1.72-17.61c.31-3.19,2.41-5.99,5.8-6.28l11.07-.94,8.07-.45c3.06-.17,5.79,2.22,5.46,5.24l-1.99,18.03,13.12-1.03c1.98-.16,3.52.1,4.78,1.33s1.87,2.9,1.51,5.02l-2.53,14.86c-.58,2.73-2.35,4.96-5.19,5.14l-15.03.97-1.9,18.01c-.38,3.63-.94,7.07-.3,10.72.39,2.2,2.68,4.81,4.89,5.12,2.92.4,5.5-.39,8.42-.68,2.53-.25,5.56,1.21,5.24,4.21l-1.81,17.06Z"/>
        <path class="cls-2" d="M400.5,323.48c-2.89.42-5.26-.2-7.18-1.79-1.68-1.94-2.01-4.11-1.47-6.87.56-1.54,2.29-4.15,4.78-4.52l41.61-6.24c3.62-.54,6.4,2.39,7.14,5.33.78,3.11-.65,7.61-4.38,8.16l-40.51,5.94Z"/>
        <path class="cls-7" d="M430.99,356.81c3.67,1.84,5.65,5.6,3.94,9.08-1.75,3.57-5.6,5.01-9.3,3.27l-19.49-9.16-12.41-6.46c-2.99-1.56-3.22-5.46-1.8-8.48,1.18-2.5,4.33-4.95,7.21-3.59l23.32,11.05,8.53,4.27Z"/>
        <g>
          <path class="cls-19" d="M293.24,283.91c-.96-1.12-2.77-1.94-4.68-1.82l-17.22,1.1c-2.73.17-5.02,1.49-5.71,4.25l-1.4,5.63c-4.1-4.79-9.32-8.12-15.75-8.95-12.53-1.63-24.04,2.7-33.29,11.06-10.78,9.74-16.98,22.51-18.31,36.94-.45,4.92.07,9.39.92,14.29,1.85,10.81,8.32,19.66,18.31,24.32,4.74,2.21,9.63,3.83,15.16,3.54,11.27-.59,16.68-2.79,25.57-9.94.39,3.24,2.04,6.35,5.26,6.16l17.08-.99c3.48-.2,6.33-2.23,6.73-5.89l2.06-18.98,6.16-55.57c.23-2.03.46-3.55-.89-5.15ZM256.51,333.86c-1.27,2.31-2.59,4.38-5.29,5.79l-4.09,3.13c-2.62,1.26-5.41,1.26-8.37,1.24-4.42-.03-8.35-2.89-10.35-6.23-2.38-3.99-2.6-9.08-.03-12.88l2.88-4.24c4.81-7.1,15.03-8.86,21.92-4.31,2.73,1.8,3.64,3.77,4.4,6.63,1.03,3.83.88,7.32-1.07,10.87Z"/>
          <g>
            <path class="cls-12" d="M259.1,324.28c-.59-2.01-1.1-3.88-2.13-5.77l-2.78-2.9c-1.41-.65-2.84-1.99-4.56-2.02-2.96-.61-5.99-.64-8.96-.15-6.7,1.48-12.15,6.36-14.39,13.03-1.27,3.81-.9,8.4,1.08,11.91,3.03,5.41,9.13,7.55,14.96,6.64,1.29-.46,2.66-.77,4.12-.93l2.18-.88c2.73-1.68,5.12-3.74,7.16-6.17l3.22-7.28c.4-1.8.35-3.67.1-5.48ZM256.51,333.86c-1.27,2.31-2.59,4.38-5.29,5.79l-4.09,3.13c-2.62,1.26-5.41,1.26-8.37,1.24-4.42-.03-8.35-2.89-10.35-6.23-2.38-3.99-2.6-9.08-.03-12.88l2.88-4.24c4.81-7.1,15.03-8.86,21.92-4.31,2.73,1.8,3.64,3.77,4.4,6.63,1.03,3.83.88,7.32-1.07,10.87Z"/>
            <g>
              <path class="cls-5" d="M248.62,343.2c.12-.28.28-.78.58-.96,2.59-1.56,4.54-3.56,6.58-5.21-1.24,2.79-4.3,5.01-7.16,6.17Z"/>
              <path class="cls-5" d="M249.63,313.59l-8.97-.15c2.69-1,6.18-1.03,8.97.15Z"/>
              <path class="cls-5" d="M259,329.76l.1-5.48c.52,1.78.65,3.78-.1,5.48Z"/>
              <path class="cls-5" d="M256.96,318.5c-1.25-.73-2.23-1.72-2.77-2.9,1.48.67,2.08,1.63,2.77,2.9Z"/>
              <path class="cls-5" d="M246.44,344.08c-1.44.58-2.65.7-4.12.93-.02-.36.18-.55.39-.58l.96-.12,2.77-.23Z"/>
            </g>
          </g>
        </g>
        <g>
          <path class="cls-11" d="M405.72,290.5c-2.15.59-4.32-.73-5.65-2.48l-5.96-7.86-7.01,9.91c-1.62,2.29-4.31,3.23-6.8,1.78-1.8-1.04-3.53-4.07-2.07-6.12l7.61-10.67c-1.67-1.32-3.62-1.78-5.37-2.55-10.27-.56-9.73-13.72.26-11.96,2.6,1.12,5.23,2.16,7.89,3.12.96-2.93,1.45-6.13,1.45-9.61.36-2.1,1.19-4.75,3.58-5.05,3.85-1.07,6.36.03,6.75,4.37l-.09,9.8c3.52-1.11,7-2.38,10.45-3.79,7.75-1.65,8.21,8.9,1.41,10.79-3.06,1.08-5.92,2.49-8.59,4.22.37.72.74,1.45,1.11,2.2,4.01,3.93,9.48,11.47,1.01,13.89Z"/>
          <path class="cls-15" d="M405.72,290.5c1.83-.5,3.32-1.98,3.69-3.07.54-2.26.37-4-.93-5.55l-6.37-7.89,11.42-4.95c2.25-.98,3.57-3.16,3.15-5.46-.36-1.95-2.43-5.15-4.67-4.2l-12.72,5.38.95-10.91c.21-2.39-1.22-4.64-3.66-4.9-.84-.09-2.16-.24-2.91.05-.73.27-.85.07-.24-.45,1.19-.29,3.1-.18,4.47.06.91.16,2.55,1.68,2.59,2.56l.38,10.24c.04,1.05,2.53.54,3.19,0,1.69-1.37,3.52-1.39,5.29-2.08,2.92-1.14,6.3-.61,7.47,2.52,1.03,2.76.26,5.33-1.97,7.18-4.16,3.47-9.15,3.13-10.12,5.81-.84,2.33,4.7,4.05,5.77,9.9.57,3.11-1.69,5.92-4.78,5.76Z"/>
          <path class="cls-17" d="M393.67,249.01c-2.06.79-3.02,2.97-3.17,5.08l-.76,11.07-8.62-3.93c-2.57-1.17-4.91-.91-6.62,1.54-.93,1.34-1.56,2.8-1.12,4.63.28,1.2,1.31,2.59,2.87,3.26l4.24,1.85c-2.38-.11-5.4-.85-7.07-3.15-1.12-1.55-.98-4.5.12-6.29,4.89-8.03,12.98,1.58,14.91-1.23,2.23-3.26-.92-10.48,4.99-13.27l.24.45Z"/>
        </g>
        <g>
          <path class="cls-18" d="M144.29,292.37c11.35-6.48,26.21-5.38,35.93,3.74,7.44,8.35,8.34,19.32,7.1,30.41l-4.93,44.24c-.37,3.29-3.19,5.46-6.19,5.65l-18.51,1.21c-2.05.13-3.9-.43-5.05-1.91s-1.18-2.91-.95-4.91l4.03-35.45.2-8c.08-3.08-1.51-5.84-3.68-7.36-5.28-3.7-12.75-1.52-16.77,3.04-3.52,3.99-4.63,8.94-5.23,14.22l-4.28,37.56c-.41,3.58-3.35,5.49-6.54,5.71l-17.76,1.18c-1.87.12-3.48-.43-4.61-1.59s-1.45-2.98-1.26-4.81l2.56-24.87,8.85-79.24c.29-2.64.88-5.04,2.89-6.67,1.51-1.23,3.57-1.1,5.45-1.24l16.25-1.22c1.87-.14,3.68.24,4.82,1.44,1.35,1.41,1.47,3.1,1.25,5.06l-2.66,23.38c-.27,2.4-.91,4.65-.13,7l9.23-6.57Z"/>
          <path class="cls-20" d="M180.22,296.11c-1.02-.08-1.57-.94-2.26-1.48-8.46-6.6-19.82-7.6-29.54-3.8l-4.13,1.54c.4-.28.53-1.04,1.37-1.32l8.97-2.95c1.99-.66,4.47-.23,6.56-.05l4.56.38c4.23.36,7.78,2.71,11.31,4.66,1.51.83,2.1,1.84,3.15,3.01Z"/>
        </g>
      </g>
    </g>
  </g>
</svg>