<?xml version="1.0" encoding="UTF-8"?>
<svg id="Layer_2" data-name="Layer 2" xmlns="http://www.w3.org/2000/svg" viewBox="0 0 740.4 386.57">
  <defs>
    <style>
      .cls-1 {
        fill: #23201b;
      }

      .cls-2 {
        fill: #212b11;
      }

      .cls-3 {
        fill: #ecece8;
      }

      .cls-4 {
        fill: #e9f7bd;
      }

      .cls-5 {
        fill: #75b219;
      }

      .cls-6 {
        fill: #254304;
      }

      .cls-7 {
        fill: #282421;
      }

      .cls-8 {
        fill: #5d802e;
      }

      .cls-9 {
        fill: #71b40d;
      }

      .cls-10 {
        fill: #72b70e;
      }

      .cls-11 {
        fill: #72b70b;
      }

      .cls-12 {
        fill: #1b1c15;
      }

      .cls-13 {
        fill: #3d3d37;
      }

      .cls-14 {
        fill: #faf9f6;
      }

      .cls-15 {
        fill: #1e1b19;
      }

      .cls-16 {
        fill: #74b711;
      }

      .cls-17 {
        fill: #182905;
      }

      .cls-18 {
        fill: #73b70c;
      }

      .cls-19 {
        fill: #f3f3f0;
      }

      .cls-20 {
        fill: #f5f4f2;
      }

      .cls-21 {
        fill: #74b60e;
      }

      .cls-22 {
        fill: #243907;
      }

      .cls-23 {
        fill: #1e3905;
      }

      .cls-24 {
        fill: #7baf2a;
      }

      .cls-25 {
        fill: #1c1b17;
      }

      .cls-26 {
        fill: #fefefd;
      }

      .cls-27 {
        fill: #335909;
      }

      .cls-28 {
        fill: #f6f6f4;
      }

      .cls-29 {
        fill: #e3e3e0;
      }

      .cls-30 {
        fill: #f4f4f1;
      }

      .cls-31 {
        fill: #282622;
      }

      .cls-32 {
        fill: #1d1917;
      }

      .cls-33 {
        fill: #e9fabf;
      }

      .cls-34 {
        fill: #fbfbfa;
      }

      .cls-35 {
        fill: #f3f3f2;
      }

      .cls-36 {
        fill: #1d1a17;
      }

      .cls-37 {
        fill: #72b60b;
      }

      .cls-38 {
        fill: #749a38;
      }

      .cls-39 {
        fill: #699237;
      }

      .cls-40 {
        fill: #9a9c78;
      }

      .cls-41 {
        fill: #706e6d;
      }

      .cls-42 {
        fill: #edecea;
      }

      .cls-43 {
        fill: #72b60e;
      }

      .cls-44 {
        fill: #302e2b;
      }

      .cls-45 {
        fill: #282620;
      }

      .cls-46 {
        fill: #214203;
      }

      .cls-47 {
        fill: #1a3503;
      }

      .cls-48 {
        fill: #73bc0b;
      }

      .cls-49 {
        fill: #f1f1ef;
      }

      .cls-50 {
        fill: #32312d;
      }

      .cls-51 {
        fill: #181613;
      }

      .cls-52 {
        fill: #1b1a18;
      }

      .cls-53 {
        fill: #1e3f02;
      }

      .cls-54 {
        fill: #76b611;
      }

      .cls-55 {
        fill: #ecfbbf;
      }

      .cls-56 {
        fill: #1a2e05;
      }

      .cls-57 {
        fill: #2d2d26;
      }

      .cls-58 {
        fill: #e7e5e2;
      }

      .cls-59 {
        fill: #1b1a17;
      }

      .cls-60 {
        fill: #72b609;
      }

      .cls-61 {
        fill: #ebfac0;
      }

      .cls-62 {
        fill: #1d1c18;
      }

      .cls-63 {
        fill: #262521;
      }

      .cls-64 {
        fill: #1b1a16;
      }

      .cls-65 {
        fill: #1e3c03;
      }

      .cls-66 {
        fill: #1a3502;
      }

      .cls-67 {
        fill: #72b70d;
      }

      .cls-68 {
        fill: #2b2824;
      }

      .cls-69 {
        fill: #f3f3ef;
      }

      .cls-70 {
        fill: #76c108;
      }

      .cls-71 {
        fill: #e4f6b6;
      }

      .cls-72 {
        fill: #254803;
      }

      .cls-73 {
        fill: #272521;
      }

      .cls-74 {
        fill: #71b50d;
      }

      .cls-75 {
        fill: #eeede7;
      }

      .cls-76 {
        fill: #ebebea;
      }

      .cls-77 {
        fill: #eefbbf;
      }

      .cls-78 {
        fill: #ebebe6;
      }

      .cls-79 {
        fill: #fefefe;
      }

      .cls-80 {
        fill: #71a12f;
      }

      .cls-81 {
        fill: #d7d7d3;
      }

      .cls-82 {
        fill: #edfabc;
      }

      .cls-83 {
        fill: #1a200d;
      }

      .cls-84 {
        fill: #201d1b;
      }

      .cls-85 {
        fill: #8e9c72;
      }

      .cls-86 {
        fill: #1c1a17;
      }

      .cls-87 {
        fill: #7cb528;
      }

      .cls-88 {
        fill: #f6f5f4;
      }

      .cls-89 {
        fill: #72b50e;
      }

      .cls-90 {
        fill: #615d5e;
      }

      .cls-91 {
        fill: #eaeae7;
      }

      .cls-92 {
        fill: #262621;
      }

      .cls-93 {
        fill: #72b40d;
      }

      .cls-94 {
        fill: #e6f7b7;
      }

      .cls-95 {
        fill: #eefabe;
      }

      .cls-96 {
        fill: #fcfcfc;
      }

      .cls-97 {
        fill: #22221e;
      }

      .cls-98 {
        fill: #f2f2ef;
      }

      .cls-99 {
        fill: #7bbc19;
      }

      .cls-100 {
        fill: #76ac24;
      }

      .cls-101 {
        fill: #71b60c;
      }

      .cls-102 {
        fill: #f6f5f1;
      }

      .cls-103 {
        fill: #e9e8e5;
      }

      .cls-104 {
        fill: #72b60c;
      }

      .cls-105 {
        fill: #e9e6db;
      }

      .cls-106 {
        fill: #353530;
      }

      .cls-107 {
        fill: #efefec;
      }

      .cls-108 {
        fill: #1b1715;
      }

      .cls-109 {
        fill: #302d27;
      }

      .cls-110 {
        fill: #d9eca8;
      }

      .cls-111 {
        fill: #41403b;
      }

      .cls-112 {
        fill: none;
        stroke: #1d1c18;
        stroke-miterlimit: 10;
        stroke-width: 3.33px;
      }

      .cls-113 {
        fill: #e4f4b6;
      }

      .cls-114 {
        fill: #619016;
      }

      .cls-115 {
        fill: #282522;
      }

      .cls-116 {
        fill: #fdfdfd;
      }
    </style>
  </defs>
  <g id="Layer_2-2" data-name="Layer 2">
    <g>
      <g>
        <path class="cls-70" d="M219.73,149.85c-.32,0-.64-.04-.95-.12-3.66-.91-6.14-3.66-8.34-6.09l-.45-.49c-1.96-2.16-2.27-4.21-.91-6.09l.54-.74-.93-1.51,1.25-.13-.03-.14c-.31-1.28.18-3.43,1.91-4.15,2.73-1.14,7.2-2.36,10.56-2.36,1.98,0,3.37.42,4.25,1.28,2.2,2.15,1.03,5.61.09,8.38-.23.69-.45,1.33-.59,1.88l-1.58,6.15c-.52,2.03-2.47,4.14-4.82,4.14Z"/>
        <path class="cls-62" d="M222.38,129.38c1.45,0,2.65.25,3.3.89,2.05,2-.18,6.27-.87,8.96l-1.58,6.15c-.38,1.47-1.83,3.12-3.51,3.12-.2,0-.41-.02-.62-.08-3.48-.86-5.82-3.67-8.11-6.18-1.22-1.34-1.98-2.78-.82-4.39l5.01,2.72c-.51-2.15-3.16-2.92-4.23-4.65,2.1-.22,4.08.05,6.17-1.07-2.04-.81-3.77-.5-5.91-.63-.19-.79.14-2.18,1.11-2.59,2.58-1.07,6.9-2.26,10.04-2.26M222.38,126.67c-3.54,0-8.23,1.28-11.08,2.46-1.79.75-2.73,2.6-2.82,4.33l-2.06.22,1.58,2.57h0c-1.22,1.71-2.04,4.44,1.01,7.8l.44.49c2.32,2.57,4.96,5.49,9.02,6.5.42.1.85.16,1.27.16,3.12,0,5.49-2.65,6.13-5.15l1.58-6.15c.13-.5.34-1.12.56-1.78.95-2.8,2.39-7.03-.43-9.78-1.14-1.12-2.84-1.66-5.19-1.66h0Z"/>
      </g>
      <g>
        <path class="cls-48" d="M189.11,140.65c-3.22,0-4.53-1.37-5.06-2.52-1.36-2.96-.32-5.43.69-7.83.59-1.41,1.2-2.86,1.36-4.48.22-2.28.95-4.16,2.19-5.57.79-.9,1.83-1.38,3-1.38,4.51,0,9.78,7.3,10.79,8.76,1.01,1.47.29,3.49-.54,4.46l1.5,1.19-2.41.49.07.38c.18,1-.13,3.26-1.69,3.96-2.72,1.22-6.74,2.51-9.9,2.51Z"/>
        <path class="cls-62" d="M191.28,120.23c3.12,0,7.41,4.89,9.67,8.18.57.83.08,2.24-.49,2.85-1.91-1.07-3.18-2.66-5.63-2.79,1.23,1.7,3.17,2.57,5.08,4.08-2.32.48-4.34.06-6.66,1.1,2.04.95,3.89.66,6.11.77.1.57-.1,2.12-.91,2.48-2.56,1.15-6.42,2.4-9.35,2.4-1.8,0-3.25-.47-3.83-1.73-1.84-3.99,1.73-7,2.16-11.61.16-1.74.69-3.47,1.86-4.8.57-.64,1.24-.92,1.98-.92M191.28,117.53c-1.57,0-2.95.64-4.01,1.84-1.43,1.63-2.28,3.76-2.52,6.33-.13,1.41-.68,2.71-1.26,4.08-1.01,2.41-2.28,5.42-.67,8.91.69,1.51,2.35,3.31,6.28,3.31,3.37,0,7.61-1.36,10.45-2.63,1.92-.86,2.49-3.02,2.53-4.5l4.06-.83-2.82-2.23c.74-1.52.87-3.46-.15-4.93-1.51-2.19-6.84-9.35-11.9-9.35h0Z"/>
      </g>
      <g>
        <path class="cls-99" d="M206.14,140.31c-2.05,0-4.91-1.12-5.96-2.92l-.12-.21-.04-.24c-.43-2.55.88-5.74,2.28-7.63l.28-.38.45-.12c.42-.11.9-.17,1.42-.17,1.84,0,4.54.77,5.89,2.21l.31.33.05.45c.23,2.16-.21,5.46-1.75,7.64l-.11.16-.15.12c-.64.5-1.52.77-2.54.77Z"/>
        <path class="cls-62" d="M204.45,129.99c1.69,0,3.92.74,4.91,1.78.21,1.96-.23,4.9-1.51,6.71-.42.33-1.03.48-1.71.48-1.79,0-4.07-1.01-4.79-2.25-.35-2.08.76-4.89,2.03-6.6.31-.08.67-.12,1.06-.12M204.45,127.28h0c-.64,0-1.24.07-1.77.22l-.91.25-.56.75c-1.61,2.18-3.02,5.7-2.52,8.65l.08.48.25.42c1.35,2.34,4.68,3.6,7.13,3.6,1.33,0,2.5-.37,3.38-1.06l.31-.24.23-.32c1.75-2.47,2.26-6.08,1.99-8.56l-.1-.9-.62-.66c-1.63-1.73-4.69-2.63-6.87-2.63h0Z"/>
      </g>
    </g>
    <g>
      <g>
        <path class="cls-113" d="M158.78,33.41l.17-11.3-.27-13.45c-.05-2.68-1.16-4.73-3.71-5.45-1.95-.55-5.36.69-5.37,3.28l-.06,15.17.18,9.9c.05,2.87,2.13,5.54,5.06,5.28l2.23-.67c-.9,1.39-2.7,1.46-4.34.95-4.08-1.25-3.92-6.38-4.07-10.97l-.22-6.6c-.07-2.12-.15-3.96-.05-6.04.1-2.24-.68-4.5.13-6.76.75-2.06,2.24-4.63,4.7-4.7,4.02-.12,6.57,3.68,6.65,7.46l.19,8.85c.1,4.81.82,11.93-1.2,15.06Z"/>
        <g>
          <path class="cls-89" d="M158.78,33.41l-1.78,2.75c-6.65,3.06-7.45-2.44-7.84-7.56l-.34-19.51c.34-9.1,9.42-8.7,10.41.19.83,7.41.39,16.71-.46,24.12Z"/>
          <g>
            <path class="cls-95" d="M178.39,39.97c-1.34,1.69-2.75,2.66-4.6,2.66-1.43,0-3.53-.78-4.51-2.32-1.81-2.83-1.11-6.62.44-9.6,2.38-4.58,5.99-13.16,7.25-17.97.37-1.41,2.07-3.45,3.39-3.88,2.24-.72,4.65.28,6.02,1.61,4.59,4.46-1.75,11.29-3.43,17.11-.61,2.13-1.37,3.63-2.12,5.7l-2.44,6.7Z"/>
            <path class="cls-54" d="M179.26,35.04c-.83,2.19-1.33,4.32-3.34,5.49-1.68.97-3.74.54-5.01-.66s-1.86-3.2-1.13-5.1l7.62-19.64c.77-1.98,1.22-3.86,3.21-5.01,1.15-.66,3.09-.37,4.24.36.93.6,2.61,1.92,2.06,3.48l-3.9,11.17-3.75,9.91Z"/>
          </g>
          <g>
            <g>
              <path class="cls-82" d="M37.25,90.71l-3.98-1.68-7.54-3.72c-2.76-1.36-5.79-2.66-7.65-5.39-.92-1.36-.54-4.59.25-5.92,2.06-3.49,5.73-3.28,8.78-1.76s5.69,2.73,8.39,4.67l6.79,3.49c2.11,1.09,3.94,2.54,4.37,4.55.57,2.63.28,5.22-2.1,6.66-2.26,1.36-4.97.1-7.3-.89Z"/>
              <path class="cls-21" d="M43.86,83.02c2.32,1.29,3.09,3.86,2.15,5.77-1.07,2.19-3.74,3.21-6.06,2.03l-18.34-9.4c-2.26-1.16-3.44-3.3-2.83-5.59.56-2.11,3.09-4.56,5.4-3.37l8.62,4.43,11.05,6.13Z"/>
            </g>
            <g>
              <g>
                <path class="cls-62" d="M268.73,154.02l-4.85,2.22-9,4.36,11.49,13.1,9.82,11.23c.93,1.07,1.22,1.83,1,3.09-.29,1.69-1.48,1.35-2.79,2.03-7.03,3.63-14.16,6.21-21.58,9l.79,31.44c.06,2.6,1.01,5.17.29,7.69l-2.27,8.01-4.09,20.07-34.91,16.61-11.05,2.06c-.38-.11-.92.02-1.46-.39,2.88-.95,5.93-1.92,8.58-3.73l2.95-2.01,14.82-7.11,15.75-7.57c1.73-.83,3.27-1.48,5.36-1.98l1.37-16.37.05-28.2.28-11.2c.01-.49-.55-.5-.73-.5-.34-.38-.9-.52-1.61-.28l-6.73,2.25-3.5,2.35c-1.29.87-3.26.75-4.6,1.7-3.41,2.42-7.31,3.1-11.09,4.61l-7.73,3.09-3.51,1.78c-1.46.74-2.62.79-4.09,1.38l-5.39,2.15c-2.65.42-5.06,1.41-6.91,3.43-4.83,1.61-9.54,3.22-13.84,5.92-2.58-.55-4.03-2.08-4.94-4.29l-1.69-4.1c-3.04-4.55-5.72-9.03-7.77-14.16-.4-1-1.31-1.86-.86-3,1.96.25,2.98,1.71,4.03,3.03l3.98,4.97c1.6,2.01,3.46,3.24,4.77,5.65.74,1.36,2.97,2.04,4.29,2.78l2.16-.82c2.49-.15,4.29-1.1,6.3-2.29l5.43-1.73c3.32-1.91,6.58-3.64,10.42-3.86l5.5-3.53,5.6-1.61c1.2-.35,2.11-1.87,3.55-2.17l4.09-.85,3.59-1.36,4.87-2.32c4.48-1.53,8.82-2.84,12.61-5.88,3.12-.42,5.91-1.36,8.35-3.27l7.42-3.22,4.83-1.1c2.17-.49,4.24-1.97,5.73-3.57.61-.65.11-1.87-.27-2.38l-4.97-6.72c-1.33-1.8-2.39-3.41-4.1-4.9l-4.32-5.98c-1.74-2.4-3.93-4.29-5.12-7.16,2.76-2.18,5.46-4.18,8.57-5.54,1.71-.75,3.53-.92,4.96-2.31.49-.48,1.32-.54,1.66-.23.51.46.62,1.03.53,1.71Z"/>
                <path class="cls-12" d="M139.14,295.86c-1.41.27-3.18,1.06-4.78.75-4.75-.92-8.92-3.07-13.43-4.84l-24.74-9.73-7.47-2.85c-3.81-1.46-7.67-2.77-11.07-5.15-1.22-1-1.24-3.32-1.72-4.54,1.96.03,3.63.87,5.6,1.67l38.44,15.72,16.59,7.17c1.06.46,2.1.98,2.58,1.8Z"/>
                <g>
                  <path class="cls-114" d="M248.54,205.88c.93-1.19,1.26-.55,1.62.69-.3,13.04-.41,26.12-.33,39.24-.24,5.88-1.03,11.63-2.35,17.24-11.95,5.2-23.75,10.71-35.41,16.52-3.6,2.77-7.27,4.61-11.91,5-.08,0,1.55-.3,1.4.35l-7.81,1.08-23.86,3.96-11.42,2.11c-.35-.03-.89-.15-.9-.4-.39-7.85-.43-16.55-.33-24.42,1.34-19.3.79-38.9-.61-57.69l.23,26.32-.89.54-.9-.28c.09-7.54-.29-15.06-1.14-22.56,1.03-8.3.46-8.88-1.71-1.74-.5.68-2.99,2.62-3.72,1.69l-.54-.88,7.22-13.47c1.5-1.54,2.34-.42,3.15,1.08,5.06,10.4,10.45,20.73,16.16,31,.73,1.23,1.87,2.87,2.74,3.97.27.34,6.89-2.57,7.95-3.18,7.96-3.55,16.03-6.82,24.21-9.8,12.83-5.21,25.57-10.64,38.2-16.31l.95-.07Z"/>
                  <path class="cls-2" d="M158.47,292.08c-.49.09-1.35.19-1.77.41-.32.11-1.42.08-1.46-.51l-.99-14.77c-.39-5.72-.5-11.1-.07-16.83l1.8-23.96-.25-26.47.14-3.95c0-.21.81-.29.97-.17s.49.36.52.78l1.11,17.69c.9,14.44.42,28.54-.32,42.98l.33,24.8Z"/>
                  <path class="cls-22" d="M241.23,255.12c-1.19-3.63-.31-7.1-.2-10.69l.58-18.36c.07-2.14-.19-4.37.94-6.44,1.28,8.86,1.27,17.61.6,26.58-.23,3.06-.34,5.98-1.92,8.91Z"/>
                  <path class="cls-17" d="M238.26,251.01c-.04,2.44-.37,4.79-1.86,6.64l.19-18.94c.02-1.5.43-2.93.93-4.17.81.75.97,1.62.95,2.54l-.21,13.92Z"/>
                  <path class="cls-56" d="M232.75,246.05c1.18,5.4.54,17.11-1.46,16.3-.33-.13-.84-.73-.75-1.34l2.22-14.96Z"/>
                </g>
                <g>
                  <path class="cls-74" d="M155.97,236.43l.86.48c-1.73,18.1-2.64,36.54-.73,54.7l.59.88c-.64.33-1.37.31-2.25.48l-15.32,2.9c-6.55-2.48-13.06-5.2-19.51-8.14-14.29-6.04-28.66-11.8-43.11-17.28l-.58-.93c-.48-1.2-.79-2.32-.88-3.56-1.93-9.42-3.47-18.99-4.64-28.69,0-8.29.13-16.52.41-24.7.1-1.04.52-1.4,1.47-.86.2-.32.52-.65.78-.54,6.75,2.95,13.01,5.02,20.2,7.02,14.37,5.09,28.83,9.45,43.37,13.07,3.32-4.97,6.49-10.13,9.53-15.5.45-1.72,1.22-2.45,2.33-2.2l2.89-2.13c1.46-1.08.05-5.22,3.7-5.74.51,2.17.12,4.31-.17,6.45-.39,2.85.68,5.42.71,8.08l.35,16.24Z"/>
                  <g>
                    <path class="cls-72" d="M86.19,266.48c-1.78-.89-2.36-2.75-2.61-4.56l-1.73-12.64c1.35,1.63,1.47,3.71,1.9,5.73l2.44,11.47Z"/>
                    <path class="cls-65" d="M90.66,266.75c.08.22-.77.56-.99.41-1.5-1.02-4.29-10.15-3.76-14.49l4.75,14.07Z"/>
                    <path class="cls-46" d="M79.64,247.77l1.83,15.89c-2.91-5.43-2.71-11.77-2.86-17.88.67.27.92,1.09,1.02,1.98Z"/>
                    <path class="cls-47" d="M94.62,269.16c-3.05-3.21-4.1-7.95-4.15-12.39,1.9,4.06,3.16,7.81,4.15,12.39Z"/>
                    <path class="cls-66" d="M95.24,262.26c2,2.69,4.01,8.04,3.29,8.63-1.24,1.02-3.26-4.42-3.29-8.63Z"/>
                  </g>
                </g>
                <g>
                  <path class="cls-83" d="M106.73,168.68c1.98,3.04,3.04,3.79,3.19,2.23,1.72-2.16,2.57.22,2.34,2-.18,1.4-.6,2.63-2.2,2.28.25,2.31,1.31,3.56,3.18,3.76l.81.83c-.35,1.11-1.74.78-2.22,1.29-1.09,1.14,2.45,2.57,6.65,2.5l2.87,1.1c2.7.2,4.79,1.4,7.25,2.12l7.78,2.26,7.5,1.41,5.84,1.85,5.18,1.41c.45.12.99.73,1.32,1.1,1.8-.36,2.67-1.64,3.63-2.79l-.25-1.04c3.37-1.82,6.83-3.52,10.37-5.1l.96.53,1.96.14c6.34-2.53,12.61-5.15,18.8-7.85l1.16-1.54c-.36-1.35,2.83-2.59,3.6-1.48,6,.53,11.86-1.91,17.02-5.09.25-1.06.7-1.87,1.36-2.41-.16-1.29.73-1.5,1.39-.41-.55.86-.18,1.52.3,1.94.61.53,1.54.54,2.24.25l8.23-3.41,5.5-1.71,5.33-2.42,4.53-1.2.38-1.54c-4.16-1.34-8.26-1.18-12.53-1.42l-4.19-1.21c-.85-.25-2.34-.9-2.43-1.8l-.38-3.67.22-5.73c.08-2.13,1.12-3.4,2.93-3.77.41-.35.85-1.46,1.6-1.28l1.79.06c3.79,2.37,9.61,3.32,14.12,4.01,5.57.85,9.95,1.35,15.73,1.44.12,0,.25.1.37.22-.54-.6,0-.89,1.64-.87l.85.14c.67-.02,1.02.33,1.05,1.02,1.9.16,3.82.1,5.74-.16l3.73.64,5.88,2.1c-1.03,1.36-2.61,1.42-3.81,1.95-1.04-.84-3.12-.79-2.87.88l-1.14.9-2.29.92c-.81-1.22-1.92-1.09-3.34.38-4.25,1.26-8.04,3.8-11.64,6.23,6.44,8.02,12.73,16.23,18.87,24.62,1.48,3.37-3.33,5.69-5.98,6.65-5.84.92-11.04,3.67-16.19,6.48-2.59.47-4.88,1.37-6.85,2.73-6.29,2.83-12.6,5.5-18.93,8.01-2.77.22-5.17,1.17-7.21,2.85l-5.93,1.74c-3.2,2.42-6.1,3.87-10.1,4.53-5.77,2.88-11.72,5.21-17.85,7-3.33,1.76-6.8-1.28-8.45-4.15-3.24-3.76-6.53-7.46-9.86-11.09,2.38,5.34,5.06,10.59,8.43,15.43.88,3.86,2.78,6.53,5.68,8,4.11-2.75,8.89-4.33,13.56-5.84l1.41-1.3c4.66-2.09,9.43-3.89,14.31-5.39,6.33-3.09,12.89-5.73,19.69-7.94,2.39-1.52,4.91-2.62,7.56-3.33,2.72-1.93,7.95-4.74,11.23-4.99,1.14-.09,1.76,0,1.41,1.25-1.07.95-2.42,1.79-3.91,2.42l-17.35,7.27-18.71,7.72-7.5,2.84-16.13,6.73c-2.68,1.12-5.05,2.68-8.06,3.11-2.82-3.61-4.81-7.6-6.92-11.56l-2.96-5.57-7.82-14.15c-1.03-1.87-1.2-4.15-2.92-5.66l-7.78,14.51c-1.54,1.65-2.41,3.98-3.66,6.11l-7.49,12.7-12.19-3.13-45.84-14.52-7.02-3c-2.87-.3-2.18-3.28,1.58-2.03,4.36,2.56,9.23,4.18,14.61,4.85,10.12,3.59,20.23,7.08,30.35,10.46l5.47,1.18c3.5,1.43,7.19,2.39,11.05,2.87,1.6-.39,2.6-1.92,2.99-4.58,3.3-3.93,5.85-8.19,7.63-12.8-2.72,1.73-5.03,4.02-6.94,6.86-1.92,3.66-3.62,6.55-8.44,6.12-11.01-3.8-22.18-7.06-33.52-9.79-7.14-3.39-14.55-5.66-22.23-6.8l-12.24-5.19c-3.58-1.86-7.04-2.46-10.38-1.81l-2.52-.8.3,1.51c.33,1.71-.98,1.88-3.73,3.03-1.5-.06-2.6-4.77-1.4-5.63l1.8.58c1.04.4,1.84.31,2.51-.16.42-.29,2.22-4.69,1.27-6.72l1.25-1.89c.95-.12,1.72-.69,2.3-1.72,3.94-2.35,6.82-5.8,8.23-10.2.84-1.39,7.09-6.85,8.57-7.34,1.29-.42,2.79-.31,4.12-.19,7.14,1.8,8.56.45,4.27-4.03l.47-1.04-2.81-7.57-.54-.91c.23-1.95-.25-4.06-1.61-5.52-3.01-.35-5.49,1.01-9.44,1.04-1.25.58-2.46.93-3.59-.02-.44.34-1.34.03-1.86.06-1.42-.56-2.8-.83-4.14-.82-1.06-.41-1.72-.74-2.58-1.38-.76-1.46-1.41-2.98-1.97-4.55-.18-.75.29-1.04,1.07-.92,1-.7,1.86-.06,2.58,1.93,6.54,2.29,12.85,1.97,19.43-.62,1.41.65,2.62,1.84,3.6,3.57,3.39.97,4.16,2.09,2.3,3.36-1.51-.5-1.48.35.11,2.57,1.23-.03,2.26.82,1.88,2.1-2.64.88,3.17,3.02,3.79,3.07s-.46-3.55-.67-4.18c-.61-1.49-3.96-10.44-3.79-11,.66-.36.69-.81.42-1.42-.88.26-1.23-.27-1.05-1.6-1.57-2.18-2.34-5.24-2.97-7.87-2-3.98-3.74-8.78-4.39-13.22-.04-.24.12-.51.33-.79.6-.93,1.15-.62,1.69.2,5.13,14.01,10.5,27.82,16.12,41.43l4.04,10.84c.47,1.18,11.73,4.12,11.91,3.51l-5.54-16.27c-.54-1.67-.91-3.56,1.42-3.13,1.03.19,3.7,8.22,4.01,9.46l-.64.89Z"/>
                  <g>
                    <g>
                      <path class="cls-62" d="M65.22,153.49c-1.44.57-2.28,3.17-2.79,1.89l-.8-1.91c1.14-.88,2.37.03,3.59.02Z"/>
                      <g>
                        <path class="cls-62" d="M76.82,158.88c-1.43-1.39-3.88,1.33-4.29-.14-.5-1.79,1.24-2.97,3.02-2.96-.02-1.43-.61-2.28-.88-3.33,1.27.15,3.58,4.33,2.16,6.43Z"/>
                        <path class="cls-62" d="M59.78,153.52c-1.36.07-2.82-.31-4.14-.82.36-.35.88-.77,1.25-.57l1.29.72c.56.31,1.39.1,1.61.68Z"/>
                      </g>
                    </g>
                    <g>
                      <path class="cls-62" d="M72.29,211.69c-.21-.02-.57.49-.58.93l-.42,17.48c-.1,4.32-.12,8.35.58,12.6l3.45,21.2c.13.79.51,1.62-.26,2.04l-8.35-30.19.28-29.26-14.77-5.45c.05-.9.94-1.42,1.87-1.36,5.46.39,10.24,2.99,15.21,5.13,1.91.82,3.6,1.3,5.49,2.24,1.44.72,8.52.58,16.48,4.56l6.06,2.36,6.19,1.53,3.88.92,4.97,1.3,6.37,2.23,11.97,3.77c1.05.08,3.14-.31,3.99-.76,1.92-1.17,2.46-3.65,3.76-5.21l3.45-4.15c1.27-1.53,3.03-2.49,4.57-3.5.35-.93.63-3.09,2.03-2.92.64.08.74,1.44.31,1.8l-1.4,1.19-1.85,5.24-4.1,6.28c-1.1,1.68-2.67,2.75-2.99,5.06-.15,1.09-.73,2.06-1.55,2.75-.67.56-2.04.45-3.16.2l-7.87-1.76c-.38-.09-2.39-1.79-7.31-2.12-2.37-1.22-5.3-1.89-7.9-2.73l-7.09-2.3-6.3-2.14c-3.38-1.15-6.51-2.51-9.87-3.53-2.18-.66-4.41-.72-6.68-1.43l-3.12-.98c-2.51-.79-4.1-2.77-5.85-2.76-.22,0-.35.58-.17.83.16.23.52.3.67.9Z"/>
                      <path class="cls-62" d="M79.64,166.44c.56,1.51,3.13,3.41,2.82,5.29-.63,3.8-9.46-1.75-13.26,1.85l-6.23,5.9c-1.46,4.63-4.68,8.49-8.97,10.65-.17.6-.54.96-.9,1.26s-.96.16-1.41-.44c5.36-6.84,10.49-14.03,16.8-20.27,2.94-2.91,7.51-3.08,11.16-4.25Z"/>
                      <path class="cls-62" d="M261.61,145.62c-.56.17-1.07.51-1.22,1.52-3.26.02-6.57.17-9.82-.34l-6.86-1.08-10.72-2.21c-1.66-.34-2.94-1.08-3.23-2.68l18.88,2.65,12.98,2.13Z"/>
                      <path class="cls-62" d="M269.24,146.63c-.82-.02-1.66.24-2.4.96-1.47.22-2.84.21-4.3-.06l-.08-1.77,6.78.87Z"/>
                      <path class="cls-62" d="M275.03,151.32l-4.01,1.78c.62-.94.32-1.88-.63-2.71,1.33,0,2.14-.21,3.26-.56.47-.02,1.02.09,1.21.33s.18.77.17,1.16Z"/>
                      <path class="cls-9" d="M183.94,223.04c-.81.35-1.41,1.16-1.97,1.13-.6-.03-1.4-.37-1.89-.96l-8.09-9.8-10.34-13.41c-1.32-1.71-2.44-3.18-3.3-5.33l29.99-11.31,41.94-15.85,16.69-6.22c1.71-.64,3.49-.13,4.61,1.21l6.95,8.34,12.9,16.02-5.57,1.91-9,3.55-53.97,22.6-18.94,8.11Z"/>
                      <path class="cls-43" d="M133.34,222.49l-23.32-6.72-12.45-4.2-39.87-13.1c.17-.84.81-1.09,1.28-1.31-1.21-.87-1.53.74-2.02.88-1.49.25-3.31-.63-4.8-1.23l6.44-7.81c4.1-4.98,8.2-9.69,11.94-14.95.5-.7,1.92-.43,2.6-.25l25.05,6.62,18.39,4.94,30.23,7.91,7.74,1.43c-2.38,4.11-5.37,7.46-8.29,11.17l-8.86,11.27-4.06,5.35Z"/>
                      <path class="cls-16" d="M253.63,156.54c-1.23.53-1.86,1.37-2.1,2.69-8.68-1.7-17.18-2.84-26.07-3.39v-11.63s28.09,4.61,28.09,4.61l13.69,1.84-13.61,5.87Z"/>
                    </g>
                  </g>
                </g>
              </g>
              <g>
                <path class="cls-100" d="M121.55,151.87c-2.03,2.11-2.53,5.04-2.8,8.09-1.63.7-3.31,1-5.29,1.2-.75-2.21-1.51-4.34-1.77-6.68l8.75-3.25c.4.21.76.26,1.11.64Z"/>
                <g>
                  <path class="cls-77" d="M54.51,76.85c-2.55-.32-4.69-2.4-5.95-4.5-2.08-3.48-4.38-6.48-6.9-9.69l-3.16-4.03c-2.39-3.04-3.02-7.42.22-10.16.76-.65,3.03-1.26,4-1.01,6.6,1.67,8.15,9.53,14.08,16.21,3.11,3.5,6.05,7.93,3.44,11.04-1.27,1.5-3.05,2.49-5.72,2.16Z"/>
                  <path class="cls-93" d="M53.84,75.34c-3.09-1.27-4.26-4.36-6.04-6.74l-9.74-13.05c-1.73-2.32-.75-5.08,1.46-6.46s4.85-.77,6.56,1.65l12.56,17.77c1.18,1.68,1.33,3.72.42,5.14s-3.19,2.52-5.21,1.7Z"/>
                </g>
                <g>
                  <path class="cls-79" d="M216.22,167.76l-1.39.41-.44,1.06c-5.15,2.2-10.33,4.35-15.55,6.43h-2.38s-3.6,1.48-3.6,1.48c-.15.62-.45,1.07-.89,1.35-6.53,2.76-13.08,5.5-19.65,8.21l-1.38-.3-5.19,2.54c-1.96.96-4.53,1.44-5.89,3.06l-1.75.38c.25-2.39.92-4.44,1.69-6.65l5.57-15.96c.74-2.13,1.58-4.11,1.41-6.49-.29-4.01,1.27-7.6,3.97-10.58,4.1-4.53,9.91-6.29,13.87-11.56l3.11-4.15c3.44-4.59,6.49-9.4,8.49-14.79l6.2-16.67c.47-1.28,1.29-3.25,2.93-3.02,3.73,3.71,6.55,4.79,11.48,2.25l1.31,3.87c.67,2,3.81,3.1,6.03,2.46,1.77-.52,3.32-2.55,3.6-4.33.42-2.71-.53-5.26-1.6-7.59-.76-1.65-.24-3.17,0-4.86.94-6.38-.53-12.39-2.96-18.6,4.51,2.62,9.71,1.31,11.64-3.15,1.75-4.04,1.21-10.99-3.47-12.28-4.15-1.14-8.79,1.3-10.01,5.41-.76,2.56-.14,4.87-.16,7.6-1.25-1.25-2.25-1.93-3.94-2.73,2.37-1.86,3.26-4.09,3.56-6.77.34-2.94-.65-5.61-3.45-7.13,2.67-2.19,5.32-3.85,8.6-4.14.54,1.21.63,2.37,1.4,3.26,4.62-.34,7.67-4.16,11.24.52,2.7,3.55,4.33,7.72,5.67,12.19,2.92,9.69.27,20.03-6.33,27.78-3.61,4.24-6.36,8.26-8.45,13.56-4.04,10.22-6.98,20.75-8.48,31.73-.83,6.09-.4,12.04-.28,18.13.04,2.04.65,3.96,1.26,5.75l-5.78,2.29Z"/>
                  <g>
                    <path class="cls-62" d="M214.83,168.17c.02.81-.01,2.64-.89,3.16-3.42,2-7.06,3.54-10.81,4.81-2.33.79-4.59.48-6.67-.47l18.37-7.5Z"/>
                    <path class="cls-62" d="M192.86,177.15c-.38.39-.02,1.33-.04,1.8-1.79,1.73-5.04.94-6.92,3.4l-12.81,5.07c-.74.29-1.68-.6-2.15-1.01l21.93-9.25Z"/>
                    <path class="cls-1" d="M217.8,162.13c.12.68-.32,1.03-.43,1.19-1.62,2.14-4.06-17.71.68-26.26-.62,8.69-1.79,16.47-.25,25.07Z"/>
                    <path class="cls-63" d="M193.03,135.55l3.02-6.4,7.11-17.52c-1,8.69-4.56,17-10.14,23.92Z"/>
                    <path class="cls-44" d="M241.87,70.49c2.28,5.62,1.09,14.93-3.62,18.69,2.13-6.51,3.68-12.39,3.62-18.69Z"/>
                    <path class="cls-73" d="M174.67,167.23l-7.39,9.87c-.33-2.37.95-4.5,2.45-6.1l7.74-8.28c-.16,1.74-1.65,2.98-2.8,4.52Z"/>
                    <path class="cls-57" d="M170.81,179.29c-.7,1.5-1.42,2.97-2.73,4.43-.71-2.18.75-3.96,1.87-5.74,1.92-3.06,3.53-6.44,7.03-8.13-2.08,3.5-4.57,5.98-6.17,9.44Z"/>
                    <path class="cls-31" d="M176.24,159.6l-6.35,7.06c-.13-1.54.84-2.85,1.87-3.91l7.5-7.69c-.39,1.88-1.78,3.16-3.03,4.54Z"/>
                    <path class="cls-41" d="M197.4,154.46c-.79-1.87-2.19-2.4-3.87-1.74l-2.89,1.15c-.71.28-1.46.06-1.81-.52-.58-.95.4-1.92,2.06-3.99.25-.31,1.11.51.84,1.19-.32.79-.9.48-2.21,1.92-.28.31.28,1.19.72.95,2.14-1.17,4.57-2.12,7.07-1.6.53.28.94,1.83.09,2.64Z"/>
                    <path class="cls-111" d="M235.96,75.6c-.93,3.13-4.36,4.5-7.25,3.66,2.19-.79,4.63-1.49,6.08-3.66.35-.52,1.36-.65,1.16,0Z"/>
                    <path class="cls-13" d="M178.91,174.4c-1.06,2.5-2.27,4.42-3.9,6.59-.05-2.83,1.46-5.06,3.9-6.59Z"/>
                    <path class="cls-90" d="M200.12,155.92c-.88.46-2.51.25-2.83-1.12,1.01,0,1.79.25,2.83,1.12Z"/>
                  </g>
                </g>
                <g>
                  <path class="cls-62" d="M227.96,140.78c-.11,1.26-1.02,2.18-2.73,2.76-1.48,1.19-1.28,10.91-.68,11.71.51.67,4.88,2,5.8,2.11,4.1-.05,8.13.37,12.1,1.28,2.13,2.34.69,3.88-4.33,4.61-6.51,2.64-13.05,5.21-19.63,7.71-2.49.17-4.38-1.43-2.27-3.2l.03-.98,4.59-1.81c-3.19-15.2-.14-31.19,4.44-45.97,3.09-9.97,6.92-18.15,13.95-25.83,7.11-10.38,6.63-21.13,1.25-32.14-3.08-6.29-4.72-7.29-11.16-4.64-2.76.45-3.12-.06-3.92-2.88-2.39.37-4.53,1.59-6.43,3.05,1.86,1.64,2.89,3.79,2.82,6.29,16.29-14.87,21.9,18.4,3.1,14.6,2.44,6.61,2.99,13.26,1.78,20.06.39,1.46.89,2.92,1.52,4.37,3.6,9.94-9.24,15.13-11.84,4.27-4.37,1.81-8.23.7-11.36-2.76-.81.4-1.35,1.13-1.64,2.2l-7.29,19.36c-5.01,9.97-11.35,19.67-21.16,25.28-4.96,3.91-7.89,7.9-7.24,14.51-2.72,8.76-5.54,17.53-8.46,26.3l.65.96c.67,2.39-3.41,4.89-5.29,2.51-8.85-2.41-17.72-4.75-26.61-7.01-4.98-1.78-10.05-3.1-15.22-3.97l-1.1-.58c-1.71-1.68-.9-2.75,2.41-3.2.44-.49,1.07-.43,1.89.18.05-1.48-.26-3.04-.93-4.7-.98-1.91-3.84-10.59-3.07-12.14.27-.55,1.12-1.01,1.7-1.28,2.46-.33,4.88-.78,7.26-1.35-.73-2.8-.51-5.67.65-8.61-.96.73-1.29.58-1.11-.64-1.74.15-3.48.41-5.2.78-1.84-.34-2.86-1.07-3.07-2.2l12.28-4.4c4.03-2.57,7.47-5.83,12.25-7.33l.86-9.13c1.45-7.04,3.45-13.81,5.79-20.57,1.6-4.61,6.03-3.87,6.38-5.28l1.69-6.78c.88-5.82.43-11.74-.88-17.41-.78-3.41-2.16-6.01-4.5-8.64-2.97-3.35-7.03-7.26-11.88-7.6-7.01,8.94-10.82,10.55-22.36,6.92-1.38-.43-2.48.45-3.61.9-4.63,1.83-9.65.91-13.69-1.93-3.76-2.64-5.37-7.07-6.28-12.02-1.71-2.29-5.01-4.59-5.32-8.19-.22-2.57.53-5.56,2.33-7.52,5.88-6.43,19.27-9.56,28.36-10.32l8.05.6c9.52.71,15.82,9.27,14.73,18.93,22.32,9.47,31.34,29.53,24.54,52.96-.7,2.4-.5,4.08.39,6.32,1.07,2.68.3,5.85-.23,8.67l-3.84,20.36-.97,2.04,3.59,2.89,9.28-2.91c3.91-1.23,7.47-2.1,11.98-1.5.53-2.76,3-3.84,4.45-5.77,4.46-5.95,6.56-12.97,9.41-19.73l4.5-10.64c-2.49-3.74-1.67-8.63,2.45-10.92-.79-8.46.43-16.69,3.25-24.77,1.35-3.87,2.63-7.66,5.55-10.61,3.89-3.92,8.77-6.52,14.09-8.5-1.71-7.26.91-15.23,7.22-19.35,2.24-1.46,5.31-1.58,7.17.16s2.35,4.4,2.99,7.01c3.01-.58,5.43.58,6.56,3.23,1.26,2.95.6,6.15-.1,9.21,1.23,1.49,1.81,3.45,2.03,5.52.37,3.63-.1,7.2-3.71,9.19,2.02,4.35,2.44,8.78,2.6,13.41.23,7.16-1.94,13.55-5.77,19.44l-6.68,9.01c-4.15,6.99-6.48,14.84-8.66,22.67l-2.38,12.98,1.93.35Z"/>
                  <g>
                    <path class="cls-38" d="M168.95,148.55c-.64.53-1.38,1.67-2.27,1.11-1.14-.71-2.03-1.83-3.11-3.09l5.34-1.93c2.32-.84,4.46-1.8,7.11-1.92l-7.06,5.82Z"/>
                    <g>
                      <path class="cls-100" d="M112.02,62.44c.42.57.71,1.22.62,1.56-.31,1.13-6.46,1.24-9.42-.56-4.2-2.37-7.66-5.58-9.08-10.77,5.39,2.02,10.48,4.47,15.28,7.67l2.6,2.1Z"/>
                      <path class="cls-19" d="M144.68,124.67c-.97,3.34-1.07,6.49-2.59,9.7-.71-5.41.35-10.62,2.03-15.84.99-3.09,1.41-6.29,3.01-9.18.56-1.01,3-.76,3.89-.38l-2.84,3.69-3.49,12.01Z"/>
                      <path class="cls-28" d="M159.53,84.71c-1.33.28-2.16.19-3.27,0l-.65-4.31,3.2-.89c.47,1.73.71,3.11.72,5.19Z"/>
                      <path class="cls-88" d="M138.11,59.11c-.71.53-2.02.2-2.62-.14l.63-5.88c1.13.69,2.29,1.36,2.63,2.44s.35,2.85-.65,3.59Z"/>
                      <path class="cls-3" d="M148.74,67.01c-1.38-.83-2.17-1.64-3.12-2.71,1.39-1.14,1.86-2.25,2.2-3.64,1.06.9,2.03,1.77,2.25,2.71.29,1.2-.28,2.5-1.33,3.65Z"/>
                      <path class="cls-75" d="M151.76,71.1l-1.96-2.76,1.85-3.42c1.1,1.15,1.88,2.39,2.07,3.73-.16.82-.96,1.59-1.96,2.45Z"/>
                      <path class="cls-49" d="M157.4,105.34c-1.35-.32-2.92-.67-4.04-1.57-.36-.31.14-1.74.6-1.82,1.45-.26,2.88.16,4.09.73l-.65,2.66Z"/>
                      <path class="cls-58" d="M159.07,96.79c-.67.65-2.97.29-3.67-.31-.46-.56-.02-1.7.2-2.11.37-.71,3.17-.47,3.54-.12.42.4.78,1.71-.07,2.54Z"/>
                      <path class="cls-42" d="M144.41,63.26c-.43-.05-1.73-.7-1.61-1.24l.88-4.08c.9.15,2.21.92,2.27,1.79.09,1.36-.83,2.52-1.54,3.53Z"/>
                      <path class="cls-28" d="M154.17,75.06c-.84-.88-1.2-1.72-1.53-2.67l2.27-1.99c.73.83,1.67,2.01,1.57,3.1-.29.73-1.37,1.24-2.31,1.56Z"/>
                      <g>
                        <path class="cls-69" d="M132.77,166.8c-2.88-.75-5.42-1.45-7.51-3.59l-1.64,14.2c-.15,1.31-.24,2.69-1.44,3.48-.78-2.88-.47-5.65.1-8.41.86-4.18.96-7.96.61-12.44,3.52,3.05,7.31,4.21,11.36,5.53,2.79.91,5.24,1.95,8.33,1.99,1.52.02,3.18.06,4.68,1-4.78.47-9.49-.45-14.49-1.76Z"/>
                        <path class="cls-20" d="M131.68,148.91c-2.35,1.36-2.99,5.81-6,5.86.19-3.1,2.15-5.38,4.14-7.51,5.83-6.2,11.43-3.89,8.53-2.22l-6.68,3.86Z"/>
                        <path class="cls-103" d="M130.89,151.89c2-2.4,2.46.6-1.85,5.73-1.3-2.11.45-4.04,1.85-5.73Z"/>
                      </g>
                      <path class="cls-85" d="M107.33,66.06c-.49,1.3-1.58.79-2.67.88-3.45.29-7.17-.45-8.16-4.13,1.63,1.59,2.94,3.02,5.16,3.08l5.67.17Z"/>
                      <path class="cls-29" d="M158.3,101.04c-1.32-1.1-2.22-.49-3.58-.44-.72.03-.54-2.35.25-2.5,1.18-.22,2.65-.02,3.75.45.4.47.17,1.82-.42,2.49Z"/>
                      <rect class="cls-81" x="156.19" y="85.96" width="3.55" height="2.92" transform="translate(-1.8 3.34) rotate(-1.2)"/>
                      <path class="cls-98" d="M142.02,56.71c.74.78.33,3.25-.63,4.24-.55.57-1.81.27-2.17-.44.69-1.25,1.48-2.53,1.41-4.36.57-.03,1.12.28,1.38.56Z"/>
                      <path class="cls-76" d="M157.98,78.13c-.39.59-2.13.89-2.77.58-.46-.23-.67-1.6-.37-1.96.35-.41,1.15-.91,2.04-1.1.6.08,1.38,1.7,1.09,2.48Z"/>
                      <path class="cls-91" d="M159.55,90.33c.41.34.35,1.56.15,1.92-.41.75-3.31.26-3.47-.06-.13-.26-.16-1.23.14-1.62.5-.66,2.45-.74,3.18-.25Z"/>
                      <g>
                        <path class="cls-26" d="M123.95,66.93c-9.63-11.5-23.58-17.29-37.51-20.79,2.25-4.14,5.8-5.93,9.69-7.47,8.56-3.37,17.43-5.36,26.65-3.72,5.36.95,9.07,5.51,10.21,10.84,1.07,5.02-.05,10.18-1.67,15.01-1.95,2.52-3.9,4.56-7.35,6.12Z"/>
                        <path class="cls-97" d="M125.45,63.79l-9.23-8.45-9.98-6.79c3.99,1.02,7.08,3.06,10.44,4.96,3.39,2.88,7.38,5.46,8.77,10.28Z"/>
                        <path class="cls-45" d="M128.37,41.18c2.67,1.5,3.04,9.27,1.21,12.85-1.2-4.39-.72-8.37-1.21-12.85Z"/>
                        <path class="cls-92" d="M126.95,61.79l-6.5-7.55c-.45-.84-1.3-1.43-.91-2.71,3.21,2.69,6.96,5.67,7.41,10.26Z"/>
                        <path class="cls-106" d="M127.75,57.05c-1.59-1.23-2.2-3.32-2.53-5.46,1.66,1.27,2.97,2.87,2.53,5.46Z"/>
                      </g>
                    </g>
                    <g>
                      <path class="cls-5" d="M244.2,38.97c3.51-1.53,1.67,6.83-.29,12.17,1.02.12,1.68.08,2.32.38,1.84.86,1.26,5.7-2.26,8.41l-2.52-4.27c-1.27-2.15-3.57-3.57-6.05-3.3l-5.66.63c-1.6-2.39-1.78-5.15-2.07-7.94-.36-3.45.14-6.58,2.03-9.51.99-1.54,1.63-3.42,3.52-4.11l-1.29,4.18c-.48,1.54-1.09,3.21.01,4.85l5.17-8.26c2.98,3.35.59,9.36,2.05,14.4l2.56-5.29c.51-1.06,1.18-1.76,2.49-2.33Z"/>
                      <path class="cls-24" d="M207.88,101.99c-.46-.79-.54-1.91-1.04-2.17-1.86-1-4.05,1.41-4.85.59-1.05-1.06-.51-3.9.75-4.77,1.84-1.27,4,0,4.99,1.81,1.44,2.62,5.47,4.08,7.62,1.83.97-1.02.77-1.84,2.56-2.28,4.02-1,6.07-12.51-.65-19.36-2.48-2.53-6.1-2.54-9.02-.73.51-2.89,3.16-4.73,5.18-5.07,6.51-1.1,8.86,4.67,10.47,10.76.99,3.74,1.24,7.33.34,11.12-1.47,6.2,2.6,9.6.91,12.72-.53.97-1.8,2.51-3.33,2.35-1.17-.12-1.63-1.56-1.87-2.46l-1.38-5.21c-3.56,3.05-8.79,4.15-10.69.87Z"/>
                      <path class="cls-40" d="M207.73,74.1c-1.85,5.88.22,12.41-2.74,16.76.02-6.43.68-12.41,2.18-18.16.67-.19.86.28.56,1.4Z"/>
                      <path class="cls-105" d="M207.73,74.1c-.3-.37-.52-.88-.56-1.4l1.36-5.2,2.43,3.36c-1.54.97-2.67,1.8-3.22,3.24Z"/>
                      <g>
                        <path class="cls-96" d="M226.4,75.26c-3.08-.26-4.07-3.55-3.9-6.04s.8-4.78,2.81-6.03c1.87-1.15,4.52-1.64,6.47-.15,1.74,1.33,1.79,3.6,1.52,5.71-.45,3.44-2.97,6.85-6.9,6.51Z"/>
                        <path class="cls-109" d="M228.06,67.58c-.05.93-.26,1.51-.61,1.8-.39.32-1.03.36-1.39.05-.77-.67-.56-2.45.35-2.99.64-.39,1.72-.13,1.65,1.14Z"/>
                      </g>
                      <g>
                        <path class="cls-34" d="M215.82,69.55l-4.11.08c-1.47-2.79-1.63-6.11.34-8.68,1.41-1.83,4.61-3.1,6.25-1.02,2.45,3.11.76,7.82-2.48,9.61Z"/>
                        <path class="cls-50" d="M214.21,65.13c-1.1-.12-1.22-1.18-1.06-1.91.14-.63.69-1.62,1.66-1.5s1.19,1.09,1.09,1.84c-.08.63-.42,1.7-1.69,1.57Z"/>
                      </g>
                    </g>
                  </g>
                </g>
                <g>
                  <path class="cls-83" d="M112.17,149.8l3.15,1.33c1.9-.11,3.57-.71,5.11.1-.24.57.13.78,1.11.64,1.4,1.51-1.35,4.78.25,8.37l.9.61c.2.13,0,.66-.51.46-.85-.34-2.11.63-3.22.6-2.29-.06-4.37.06-6.29,1.56.09,1.78.06,3.78.69,5.48l2.03,5.55,1.24,4.13c.25.82-.39,1.02-.71,1.33-.5.12-.93-.09-1.3-.63-.43-2.42-1.32-4.52-2.67-6.29.29-1.04.19-1.84-.3-2.39-1.5-8.87-3.55-17.62-6.17-26.25-.23.03-.44.04-.63-.03-.54-.21-2.96-10.62-2.67-11.12.62-.49,1.3-.95,2.03-1.38,15.49-5.02,15.26-16.21,10.28-29.37-1.06-2.8-3.8-9.45-7.59-7.09-2.29,1.42-2.38,3.13-1.89,5.52l4.09,11.51c1.37,7.38-3.41,11.43-10.41,12.07-2.44-6.85-4.86-13.73-7.25-20.66-2.91-6.95-7.64-17-16.24-16.65,4.92,2.72,7.53,7.24,9.74,12.14,3.5-2.09,6.07,2.36,1.88,3.38l-.14.47c1.63,3.23,3,6.56,4.13,9.99,3.42-.24,3.18,2.65.61,3.39-.02,1.11-.26,2.06-.74,2.83-.69,1.22-1.15.74-1.9-.22-2.78-7.6-5.94-15.04-9.48-22.3-2.05-3.59-5.1-6.21-9.01-7.59-.78-1.57-1.43-.38-1.93,3.59-.11,6.83,1.14,13.53,3.78,20.11l-.67.86c-.06.36-.53.46-.85.31-3.33-1.62-6.04-16.56-5.28-21.28-2.1,1.67-3.29,4.42-3.85,7.04-1.65,7.77,4.12,22.7,7.76,29.61l.58-1.48c.48-.35,3.19-.15,3.78.18.49.27,3.3,4.87,3.05,5.89,1.1,1.07,1.47,2.2,1.12,3.39.79.7,1.76,3.36,1.73,4.36-.05,1.74-2.05,1.26-2.98.09-1.48-1.86-2.7-4.83-3.58-7.04-1.33,1.45-2.57,2.99-3.74,4.62-8.13,5.76-12.39-3.1-14.71-9.87-.82-1.61-2.46-4.81-3.7-5.94-1.57-1.42-4.84-1.61-5.39.89l-1.02.57c.14,2.93.73,5.91,1.63,8.78l-.34.59c1.3-.37,1.71,1.17.63,1.88,1.85,1.01,2.7,2.31,2.56,3.92.98.42,2.84,2.85,2.49,4.05.7,1.59-.37,1.48-1.71.8-2.18-3.15-4.36-6.2-6.55-9.15-1.01-2.2-1.16-4.57-1.64-7.12-1.62-.01-3.37.28-4.63-.56-.62-.42.21-1.76,1.01-1.86,1.13-.15,1.94-.07,3.21.11-.22-2.86.73-4.87,2.35-6.47,1.79-1.77,4.31-2.22,6.91-1.46,3.93,1.16,6.02,4.75,6.96,8.57,1.08,4.4,3.9,10.07,7.23,10.09.7,0,2.42-.43,2.62-1.45-2.87-7.99-6.16-15.57-8.51-23.61l-2.42.43c-.52.09-.92-.22-1.14-.43-.13-.12-.28-.73.02-.86l3.01-1.32c-1.87-4.84-1.62-9.62.02-14.43-1.69-.75-3.32-2.2-2.71-3.89.33-.92,1.58-1.05,2.13-.47l1.39,1.5c1.79-3.45,4.26-5.48,7.39-7.39-.84-1.33-1.27-3.66.3-4.24.89-.27,1.69,1.8,1.74,3.02,3.2-1.07,6.02-1.83,9.36-1.14l1.68-3.72c.22-.48.88-.55,1.23-.34.19.11.38.48.28.9l-.81,3.77c3.74.96,6.31,3.16,8.6,5.9.09-.97-.72-1.57.36-2.25.14,3.29,1.73,5.31,2.93,7.9,3.76,8.15,6.3,16.52,9.01,25.19,1.96-.39,4.23-1.49,4.75-3.45s-.4-4.24-1.04-6.16l-3.15-9.33c-1.15-.51-2.2-.76-3.09-1.49-.58-.47-.27-1.51.16-1.52l1.69-.06c.66-1.66,1.22-3.93,3.16-4.91.3-1.44-.1-2.74.77-4.18.82.51,1.01,1.46,1.06,2.69,3.37-1.11,6.3-.21,9.06,1.91.38-.76,1.63-2.19,2.38-1.83,1.11,1.02-.28,2.95-1.38,3.77,1.93,2.96,3.31,5.6,4.23,8.81.7-.87,1.24-1.45,1.84-1.49.54-.04,1.51.85,1.06,1.41l-1.83,2.3c.91,5.14,1.66,10.42.41,15.53-.63,2.58-2.65,4.58-3.92,6.78.33.6.86.99,1.34,1.41.6.52.56,1.18,0,1.54-1.02.65-1.48-.93-3.02-1.95-2.66,2.51-5.63,4-9.16,5.42l2.15,8.21c.07.27.99.09,1.23-.07.83-.59,1.61-.15,1.82.52.39,1.3-1.77,1.64-2,2.33-.32.95.58,3.68,1.11,3.56l1.54-.35Z"/>
                  <path class="cls-62" d="M51.38,144.4c1.37-.5,1.97.63.77,1.44-.98,1.07,1.7,2.72.9,5.47l-2.37-1.77c-2.25-2.6-3.73-5.49-5.23-8.71-1.31.22-2.27.76-3.71.64-.1-1.73,1.05-2.49,2.36-3.31l-.97-2.13c2.37.61,3.17,2.98,4.57,4.93l2.59,3.59c.18.25.52.35.73.29.15-.05.34-.08.37-.45Z"/>
                  <path class="cls-39" d="M115.94,179.95c-.35.35-.56.64-1.06.33l-.83-.51c-1.68.31-3.69-.43-4.26-2.34l-1.13-3.82c.96-.05,1.5.46,2.18,1.02.58-1.39.72-2.25.67-3.95-1.08.35-1.04,1.26-.59,2.27l-2.64-.37-1.54-3.89c.4-.62,1-.59,1.8.08l.74-4.8c-.81-4.34-1.96-8.59-3.45-12.76l.67-.88c-.78-1.64-1.16-3.44-1.53-5.21-.08-.38.1-.6.54-.72.8.83.69,2.02,1.03,3.14l3.74,12.36.52,4.33c1.09,2.07,1.98,5.99,1.87,8.48,2.21,1.51,1.77,4.64,3.26,7.26Z"/>
                  <g>
                    <path class="cls-10" d="M90.72,119.38l.43-.17c-.58-2.04,2.06-5.03,3.92-4.01.68.37,3.27,7.47,3.51,8.81.02.04.35.56.39.58.53.27,6.63-2.02,7.77-2.45,2.75.74,1.16,4.32-1.32,4.79l.09.55c.84.43.52.76-.38.79l-.92.67c1.87,2.38-.57,4.05-2.83,4.2.84.57,1.28,1.56,1.31,2.98,1.13,4.77,2.4,9.5,3.81,14.19l3.14,10.21c.99,3.21.51,6.69-.68,9.71l-2.22-1.56-2.52-7.14c-.38-1.09-.58-2.2-1.85-2.74.11,1.84.77,3.36,1.32,5.03l3.58,10.75c.53,1.59,1.01,3,1.93,4.49l-10.8-2.33c-1.97-.42-3.39-1.13-4.14-3.12l-2.53-6.75c-.94-3.84-2.96-6.92-4.28-10.57l-4.16-11.54c-3.13-6.96-5.88-13.73-8.01-21.04-.24-.81-.95-1.95-1.57-1.94-.18,1.64.11,3.44.84,5.4l-.65.71c-2.9.79-3.72.53-5.08-2.28-.47-2.73-1.37-5.1-2.7-7.11-3.02.2-3.05-4.45-.4-3.71-.32-.74-.06-1.32.68-.76.53-2.42,1.32-3.33,2.36-2.73.71,2.28,1.62,3.13,2.72,2.55l-2.29-7.48c-1.87-6.11-2.91-12.71-.32-18.72.23-.52,1.98.37,1.99.98,4.18,1.35,7.05,4.11,9.26,7.82l3.9,8.12,5.58,14.2c.21.52.75.67,1.12.63Z"/>
                    <path class="cls-53" d="M100.21,148.95c-1.77.31-1.57-1.02-1.82-1.8-1.03-3.22-2.79-6.25-1.83-9.86l3.65,11.67Z"/>
                  </g>
                  <g>
                    <path class="cls-80" d="M71.49,113.83c.17.54-.31.7-.71.69-1.98-.05-1.16-1.87-2.95-2.94-.37,1.15-.64,2.15-1.43,2.43-.4-.55-.62-.3-.68.76-.58.67-1.33,1.1-1.08,2.69,4.96-.62,3.23,6.46,6.14,9.75.63.72,3,.24,3.1-.74.15-1.49-2.15-4.7-.17-4.72.83,4.32,2.7,8.35,4.22,12.6l3.86,10.87.4,1.52c-.03.33-6.21.42-6.03-.98.24-1.06,1.35-1.58,3.35-1.56-3.71.07-4.86-2.07-6.39-5.4-.13-.21-.47-.48-.72-.51-.29-.04-4.02,3.82-4.14,4.09,1.52.12,2.41.6,2.68,1.44.56,1.53-2.65,2.03-3.94,1.54-.07,1.48-2.57,1.87-3.15.55-1.61-.71-3.2-1.38-5-1.35-.66.82-1.56.62-2.71-.62-1.5-1.54-2.62-3.34-3.37-5.38l-.43.39c.81,1.86-.25,2.47-3.18,1.83-.49-2.01-1.06-3.13-2.83-4.35l-.63-1.88.19-1.11-1.48-8.26c.23-1.8,1.04-3.25,3.31-3.36s3.87.9,5,2.87l2.4,4.21c1.79,3.13,2.32,6.87,4.87,9.65,2.01,2.2,6.1,2.38,8.54.8,1.35-.87,1.54-2.74,2.54-3.74s1.61-1.71,2.01-3.45c1.01,3.34,1.9,6.5,3.89,9.5.38.56.82,1.22,1.83.97l-.86-3.67c-.1-.44-1.17-.96-1.12-1.39.06-.45.77-1.44.22-1.82l-1.34-.96.16-1.47-3.26-5.04c-.46.49-.74.78-.94.81s-.6-.33-.9-.83c-1.76,2.01,1.07,4.38.01,6.45-1.43-1.73-1.75-3.58-2.57-5.41-3.28-7.26-6.08-14.53-7.63-22.41-1.09-5.57.51-12.69,5.71-15.98l-.09,7.31c.64,5.07,1.99,9.76,3.86,14.48.32.8.58,1.29,1.44,1.14Z"/>
                    <g>
                      <path class="cls-8" d="M45.7,134.55c-1.08-3.2-1.74-5.84-1.29-9.37.43-.06.55.17.52.31l-.24,1.11,1.98,7.75-.97.2Z"/>
                      <path class="cls-27" d="M66.41,114.01c-.46.17-.45.49-.68.76-1.26.08.66-2.91-.73-6.27-.72.68-.4,1.34-.5,1.71-.26.1-.43.11-.53.11l.46-7.98c1.37,4.05,2.4,7.88,1.97,11.66Z"/>
                      <path class="cls-10" d="M60.96,142.59c-2.54.51-5.04-1.37-6.43-4.04l-1.68-3.21c-.65-1.24-.83-2.68-2.46-3.07-.63,1.31-.5,2.67-1.97,3.68l-2.81-7.93c-.64-1.8.2-3.45,1.82-4.27,1.28-.64,3.25.24,3.81,1.98l-2.11,3.63c.25.61.76,1.09,1.31,1.64,1.16-.42,1.97-1.1,2.79-2.26.35.17.93.6,1.11,1.09,1.63,4.42,3.52,8.49,6.63,12.76Z"/>
                      <path class="cls-10" d="M76.17,145.77c-3.18,1.03-3.99-1.62-5.22-1.94-1.39-.36-3.09.04-4.17-1.7,3.09-1.38,4.38-4.92,5.71-4.71,2.32.39,1.89,3.9,4.53,5.51.64.39,1.78.11,2.45.17.86.08,1.08,1.05.82,1.51-.51.91-1.98.47-4.12,1.16Z"/>
                      <path class="cls-8" d="M63.86,145.9c-1.09.12-1.74-.49-2.89-.8l-2.11-.55c1.85-.35,3.64.06,5,1.35Z"/>
                    </g>
                  </g>
                  <g>
                    <path class="cls-8" d="M52.34,138.94l.7.2c1.49,3.97,4.22,6.56,8.5,7.04l1.15,1.38,4.78-.71-.47-1.5,3.94-1.54c.77-.56,1.72-.22,2.85,1.04,1.14.04,1.93.34,2.37.9l4.61.24c.3,0,.93.23,1.08.04.11-.13-.05-.87-.06-.82.81,2.28,2.08,4.85,2.4,7.37.17,1.31.09,1.37.82,2.48,1.22,1.87,1.43,4.62,2.23,6.7-.91,1.08-1.53,1.78-1.78,3.21,1.21.11,1.51-.83,2.22-1.96l2.89,6.28c.88,1.9,1.66,3.98,2.03,5.99-1.72.53-2.81-1-4.06-1.23-2.15-.39-4.07-.92-4.28-3.49,1.94,1.13,3.36,2.54,5.24,2.93.7-.02.77-2.39-.06-2.47-2.72-.25-5.3-1.52-6.72-3.65,1.62-1.65,2.6,2.89,5.95,1.51-.63-1.04-1.46-1.06-2.38-1.11.16-.66.62-.82,1.33-.99-1.71-1.88-5.49.27-6.3-4.35l3.26,1.1.98-.18c.15-.03.3-.29.05-.52l-.65-.6c-1.94-.6-4.1-.89-5.14-2.89.41-.53,1.22-.69,1.52-.88.11-.95-1.27-.92-1.69-1.11-.88-1.07-1.83-2.93-2.15-4.24s3.35,1.51,2.62-.79c-4.54.24-4.39-4.99-6.28-4.23-4.5,1.81-9.53,2.66-14.34,1.88-1.63-.27-3.49-1.32-5.29-1.37-.65-.86-1.09-2.46-2.08-2.77-.13-.48-.28-1.08-.77-1.44-1.28-.97-3.7-4.58-3.6-6.43-.45-.37-1.21-.85-1.45-1.55l3.48,1.93-.59,1.95c.45-.23,1.15-.64,1.36-.53l.99.51c.44.23.83-.89.78-1.35Z"/>
                    <path class="cls-83" d="M58.86,144.55c1.78-.03,3.4.63,5,1.35,1.01-.11,2.15-.22,3.15-.55.94.98,2.08.89,3.71,1.04-3.93,2.49-7.1,1.26-9.05,2.55.03-.83-.04-1.63-.53-2.03-.22-.18-5.56.58-8.8-7.97-.69-1.81-1.46-3.6-1.82-5.95l4.15,8.07c.91,1.77,2.46,3.04,4.19,3.49Z"/>
                    <path class="cls-62" d="M83.62,159.48c.68.14.92.02,1.11.2.36.34.29.7.01,1-.35.37-.59.23-1.22-.08l-2.15-1.07c-.13-.07-.17-.39-.13-.52l2.38.48Z"/>
                  </g>
                  <g>
                    <path class="cls-87" d="M105.51,144.37l.98,5.93c-1.84-2.26-2.12-5.1-2.82-8.05l-1.86-7.79c-.63-.24-1.23-.61-1.33-.96-.11-.39.24-1.44.61-1.39.85.1,1.33.31,1.96-.14.54-.38,1.4-1.14.79-1.93-.44-.56-.71-1.04-.36-1.71.32-.62,1.06-.22,1.64-.06.77-.37.9-.64.38-.79-.41.03-1.14.18-1.48-.66,1.9-.58,3.61-1.66,3.2-4.04-1.72,1.08-3.28,1.26-5.23,1.61-1.09.19-2.27,1.26-3.57.69l-3.77-9.21c-1.66-.37-3.61,2.19-2.96,3.74-.61.47-.93.09-.97-.24.03-1.09-.31-2.06.18-3.41.97.06,2.11-1.01,1.44-1.8-.34-.4-1.47.06-2.07.38-1.06-4.66-3.29-8.24-5.06-12.63,1.05-.06,2.57-.01,2.89-.91.31-.84-.87-1.64-1.57-1.4-.48.16-.94.47-1.81,1.19l-2.71-5.39c-2.02-4.01-5.29-6.53-9.64-8.86,11.24-3.21,18.12,10.97,21.38,20.92l2.99,9.14c.79,2.41,2.53,4.46,2.35,7.39,2.73-.62,5.78-1.78,7.84-4.2,1.76-2.07,1.88-6.13.96-8.58l-2.85-7.56c-.76-2.02-1.65-4.36-.76-6.69.62-1.62,2.95-3.23,4.75-3.06,1.48.14,2.72,1.67,3.54,2.74,2.61,3.43,3.34,7.43,4.66,11.52,1.81,5.6,2.13,11.99-1.41,17.04-2.94,4.19-7.9,6.38-12.67,7.9-.54,1.33-.06,2.71.32,4.03l2.05,7.22Z"/>
                    <path class="cls-6" d="M105.12,128.27l.38-.79c2.48-.15,3.59-2.07,4.61-3.96.67-1.24,1.67-1.73,1.16-4l.9,1.76c2.24-4.02,1.74-8.43-.22-12.32-.51.72-1.31,1.03-1.64.63.34-1.59,1.03-2.93,2.06-4.4l2,6.23c1.05,3.27,1.01,7.14-.05,10.44s-6.09,7.28-9.21,6.42Z"/>
                    <path class="cls-10" d="M93.49,112.03c.27.93-1.31.94-1.87.49-.5-.4-.95-.8-1.29-1.78l-1.4-4.06c-.26-.75-.52-2.86.42-3.01,1.2-.19,2.16,1.58,2.43,2.52l1.71,5.84Z"/>
                    <path class="cls-23" d="M106.01,95.55c2.64.5,4.7,4.18,3.74,4.97-.87.72-2.54-2.17-3.74-4.97Z"/>
                  </g>
                </g>
              </g>
            </g>
            <g>
              <g>
                <g>
                  <path class="cls-62" d="M57.72,189.77c.38.04.81.14,1,.45.38.62-.17,2.97-.4,3.8-.9,3.27-3.66,4.6-5.79,1.61l-.9-.17-7.92-30.88c-2.99-7.07-8.89-9.14-16.02-9.74l-18.2.13c-4.18.4-6.09,4.87-1.49,6.22l20.61,1.51c4.3.83,6.57,2.46,8.48,6.49,12.33,46.58,24.28,93.23,35.84,139.94l-.22,1.16c-6.19,7.65-9.9,16.56-4.38,25.79,3.49,5.82,10.36,10.01,17.18,8.65-.84-3.27-.9-9.8,3.09-4.43,2.44,6.24,4.72,12.54,6.84,18.9.88,1.31,2.73.76,3.59-.41,2.62-4.86,5.42-9.62,8.4-14.29,2.54-5,4.83-6.17,6.87-3.5-.54,1.65-1.27,3.25-2.2,4.78,30-.21,56.03,0,86.1-.37-.16-1.75-.25-3.55-.3-5.41-37.79-.01-72.18-1.12-109.83-1.9-7.53-.67-15.72-2.37-15.95-11.73-.16-6.47,4.03-9.43,9.64-11.11,50.92-8.96,102.79-17.66,153.9-25.72,10.35-2.57,17.65-6.26,21.59-16.66l10.97-44.26c.18-4.71-4.39-5.06-6.35-1.48-3.59,12.33-6.7,24.84-9.32,37.52-3.11,9.64-6.68,14.92-16.75,17.76-48.07,7.81-96.24,15.29-144.49,22.46-6.22.43-11.08-.59-13.77-6.83-8.33-32.09-16.46-64.26-24.38-96.51l.69-.69c.13-.91.92-1.55,2.35-1.9l1.11-.91,9.2,35.41,9.97,39.59,6.38,24.03c.86,3.26,5.36,3.55,8.11,3.13l28.49-4.43,45.94-7.42,68.04-10.67c7.45-1.17,12.37-7.1,14.06-14.37l7.99-34.38c.69-2.97,1.7-5.63,4.2-7.5,2.3-1.72,5.67-2.91,8.34-1.22,3.74,2.38,5.4,7.18,4.41,11.59l-8.3,36.94c-1.75,7.81-5.41,14.24-11.61,19.32-3.24,2.65-6.7,4.81-10.92,5.72l-10.61,2.29-51.28,8.13-29.93,4.72-52.54,8.21-12.52,1.69c-3.58.48-6.9,2.58-7.34,6.45-.34,3.01,1.9,5.7,4.74,6.66,2.59.87,5.21,1.01,8.06,1.04l42.01.42,29.21.15,59.88.36h15.47c2.18,0,4.53,1.1,5.86,2.91,2.74,3.75,1.44,9.31-2.58,11.58-1.78,1.01-3.76.91-5.89.99,4.08,10.67,1.02,22.41-7.95,29.34-7.53,5.82-17.27,6.41-25.38,1.52-2.46-1.48-4.51-3.05-6.28-5.44-5.14-6.91-6.37-15.88-3.22-24.08l-18.75.35-53.41-.2c5.48,14.35-3.59,29.66-18.19,32.62-7.28.99-14.21-1.49-19.34-6.32-7.22-6.79-9.57-18.2-4.98-27.61-4.87-1.76-8.9-4.36-12.03-8.56-7.14-9.62-5.95-23.32,2.23-32.44l-8.23-32.67-13.25-52.54-11.18-45.02-2.26-7.44c-.53-1.73-2.8-2.68-4.66-2.78l-18.26-.95c-3.79-.2-6.91-1.95-8.21-5-1.51-3.53-.9-7.34,1.87-9.87,2.1-1.91,4.68-2.93,7.51-2.92l16.28.07c5.46.02,11.1,1.09,15.39,4.42,3.73,2.89,6.17,6.64,7.32,11.1l6.86,26.54c.74-.52,1.29-1.16,1.69-1.77Z"/>
                  <g>
                    <path class="cls-102" d="M103.15,361.77c.82-1.33.94-2.49,2.01-3.38.54,3.92-1.52,7.7-5.03,9.2-3.1,1.33-6.47.62-8.76-1.67-2.13-2.14-2.98-5.35-1.75-8.41,1.29,2.4,1.37,5.26,3.41,6.89,3.17,2.52,8.04.75,10.11-2.62Z"/>
                    <path class="cls-14" d="M219.96,358.87c.16,5.04-2.94,8.67-7.56,8.76-2.31.05-4.69-1.22-6.01-3.34-1.52-2.46-1.79-5.35-1.09-7.98l1.53,4.18c.7,1.92,2,3.37,3.54,3.84,4.56,1.39,6.73-1.4,9.58-5.47Z"/>
                    <path class="cls-35" d="M213.65,375.61c8.59-2.64,13.06-6.54,14.35-15.78,1.6,3.92-.27,7.66-2.48,10.71-2.78,3.65-6.93,6.48-11.86,5.08Z"/>
                    <path class="cls-78" d="M195.84,360.06l-.97,3.95c-1.89-4.57-.98-10.44,3.17-13.86l-2.2,9.9Z"/>
                    <path class="cls-107" d="M83.18,351.15c-1.41,4.7-1.92,8.95-2.27,13.78-2.2-4.56-1.44-9.87,1.25-14.05.36-.62,1.16-.42,1.01.28Z"/>
                    <path class="cls-30" d="M101.48,376.45l5.49-4.46c2.06-1.67,2.89-3.95,4.51-6.21-.03,5.37-4.53,10.02-10,10.67Z"/>
                  </g>
                </g>
                <g>
                  <path class="cls-116" d="M52.54,195.63l1.3,5.24,6.68,26.54,12.3,49.73,5.42,20.36c.64,2.4,2.41,4.04,4.36,5.22,2.91,1.76,5.66,1.79,8.97,1.29l50.62-7.57,23.37-3.69,26.31-4.17,43.78-6.97c8.49-1.35,14.33-9.43,16.19-17.59l5.19-22.78,3.65-13.34c.43-1.58,1.58-2.93,2.67-3.45,1.43-.68,3.12-.83,4.35.31.86.8,1.67,2.69,1.34,4.02l-10.98,44.32c-2.29,9.23-13.07,15.81-22.73,17.35l-38.8,6.17-79.54,13.33-34.7,6.08c-4.19.73-8.03,3.42-9.03,7.56-1.46,6,2.61,11.63,8.41,12.97,2.71.62,5.29.72,8.11.78l30.85.61,76.14.88,37.9-1c2-.05,4.08-.01,5.39,1.65s.45,5.02-1.71,5.56c-3.97,1-7.91,1.05-11.94,1.05.79-2.22,1.91-4.02,2.04-6.49.04-.66-1.72-.31-2.26.45-4.12,5.84-7.46,11.99-10.7,18.37-.65,1.27-1.72,1.94-3.04,1.79-1.08-.12-1.84-1.04-2.22-2.26l-3.53-11.46-2.51-6.19c-.18-.44-.59-.65-.92-.56-.23.07-.7.44-.64.88l.69,5.11-35.23.49-46.22.18-11.17.31,2.79-5.41c.32-.62-.89-1.01-1.43-.92-.75.12-.94.39-1.46,1.09-4.08,5.48-7.27,11.31-10.53,17.28-.62,1.13-1.72,1.87-2.62,1.99-1.12.15-2.38-.17-2.79-1.31l-2.51-7.04c-1.37-3.84-4.13-13.79-5.88-13.31-.47.13-.51.63-.45,1.08l.66,5.43-5.73.23c-8.8-1.94-15.22-9.12-15.89-18.12-.44-5.95,2.33-11.2,5.71-15.84l1.65-2.26-6.42-25.45-4.97-19.61-8.15-33.07-9.76-36.81-5.91-23.26c-1.03-4.06-4.21-7.56-8.43-7.87l-20.46-1.5c-1.33-.1-2.47-.83-2.96-1.59-.7-1.09-.69-2.27-.23-3.42.72-1.81,2.58-2.87,4.58-2.88l18.22-.13c7.29-.05,15.31,4.14,17.19,11.53l7.65,30.09Z"/>
                  <g>
                    <path class="cls-51" d="M103.25,308.86l-8.66,1.05c4.7-1.79,9.53-2.27,14.59-3.25l33.39-6.48,15.01-2.57,49.56-7.1c2.01-.29,3.85-.68,5.55-.02l-56.14,9.45-15.68,2.71-22.37,3.8-15.25,2.41Z"/>
                    <path class="cls-108" d="M61.6,252.7l5.53,22.58c.98,4,2.79,7.73,2.7,11.89-4.58-11.38-7.36-22.5-10.06-34.07l-11.11-47.53-3.02-14.56c.79.59,1.03,1.53,1.28,2.52l7.62,30.2,7.06,28.98Z"/>
                    <path class="cls-15" d="M125.6,343.8c8.17-1.8,16.71-1.44,25.37-2.01,8.84.04,17.35-1.21,26.26.57-17.3,1.76-33.97,1.88-51.63,1.44Z"/>
                    <path class="cls-84" d="M251.72,277.88c-3.7,4.99-9.23,8.24-15.5,8.12l7.54-3.42c5.67-3.51,8.94-9.2,11.38-15.75,1.2,4.01-1,7.79-3.42,11.05Z"/>
                    <path class="cls-32" d="M73.14,338.05c-.05.64-1.13.6-1.77.05-4.89-4.2-5.91-11.26-2.63-16.83,1.33-2.08,2.05-4.68,4.73-5.75-5.5,7.11-6.59,15.07-.33,22.53Z"/>
                    <path class="cls-68" d="M28.7,160.86l-19.66-1.12c-.42-.02-.78-.32-.8-.54-.16-1.8,13.99-.43,19.53.51.59.1,1.22.33.93,1.15Z"/>
                    <path class="cls-115" d="M211.74,355.42c-.98-.65-.96-1.55-.44-2.4.64-1.06,1.72-1.73,2.96-1.03.8.45,1.46,1.88.83,2.89s-2.05,1.4-3.34.55Z"/>
                    <path class="cls-7" d="M95.57,355.91c-.1-.88,1.12-2.67,1.97-2.68,1.09-.02,1.71,1.18,1.84,1.86.16.83-.35,1.94-1.21,2.14-.96.22-2.46,0-2.6-1.32Z"/>
                  </g>
                </g>
              </g>
              <g>
                <line class="cls-112" x1="266.4" y1="221.49" x2="56.26" y2="207.04"/>
                <line class="cls-112" x1="68.12" y1="243.58" x2="255.48" y2="241.26"/>
                <line class="cls-112" x1="76.48" y1="273.06" x2="249.88" y2="263.2"/>
                <line class="cls-112" x1="92.09" y1="210.47" x2="105.69" y2="297.93"/>
                <line class="cls-112" x1="127.76" y1="211.96" x2="134.8" y2="295.05"/>
                <line class="cls-112" x1="163.37" y1="214.65" x2="165.56" y2="292.75"/>
                <line class="cls-112" x1="197.84" y1="216.77" x2="194.72" y2="283.78"/>
                <line class="cls-112" x1="226.35" y1="217.31" x2="222.48" y2="279.42"/>
              </g>
            </g>
          </g>
          <g>
            <g>
              <path class="cls-52" d="M577.96,72.14l-5.13,41.22c-.26,2.13-2.46,3.85-4.49,3.98l-17.18,1.11c-3.1.2-4.93-2.49-4.6-5.38l3.57-31.38,4.2-37.49c.42-3.78,3.78-5.67,7.25-5.8l14.61-.55c2.76-.1,3.75,3.65,3.71,6.38l4.75-4.31c12.9-8.88,33.33-6.97,40,8.16,2.75,6.24,3.18,12.62,2.41,19.44l-4.7,41.47c-.32,2.81-2.65,4.95-5.36,5.11l-16.5.97c-3.34.2-5.25-2.81-4.89-5.91l4.61-39.54c.5-4.31-2.63-8.68-6.78-9.47-7.83-1.48-14.51,4.09-15.49,11.98Z"/>
              <g>
                <path class="cls-52" d="M722.78,101.68c-.2,1.68-1.26,3.62-2.71,4.22-7.89,3.24-16.45,3.98-24.67,1.91-8.25-2.08-14.1-8.39-15.48-16.82-.78-4.73-.31-9.39.27-14.22l2.6-21.69-8.41.25c-2.02.06-2.96-2.68-2.76-4.52l1.54-14.26c.31-2.91,2.54-5.1,5.41-5.29l7.12-.47,2.12-16.72c.32-2.52,2.3-4.5,4.84-4.65l17.45-1.03c1.34-.08,2.72.37,3.45,1.21s1.34,2.21,1.17,3.55l-2,15.85,12.29-.51c2.8-.12,4.88,1.99,4.71,4.83l-1.57,13.77c-.66,3.28-3.04,5-6.27,5.2l-12.06.75-2.5,23.43c-.32,2.95,1.38,6.24,4.29,6.96,4.5,1.11,9.25-1.91,11.77.6.78.78,1.23,2.06,1.07,3.49l-1.66,14.18Z"/>
                <path class="cls-59" d="M656.22,51.42c-5.79,5.15-15.01,7.59-17.73,1.79-1.21-2.58-.53-5.19,1.61-7.11,4.13-3.69,9.36-8.81,9.5-14.05-7.8-2.4-9.81-10.9-7.82-18.72,2.57-10.08,12.44-15.67,22.35-12.4,4.8,2.98,7.63,7.83,7.97,13.56.66,13.03-6.22,28.33-15.88,36.93Z"/>
              </g>
              <path class="cls-86" d="M457.53,47.95c-4.31-14.4-14.2-24.43-28.65-28.68-5.58-1.64-11.31-2.47-17.2-2.05l-32.94,2.35c-3.28.23-6.53,2.4-6.91,5.73l-5.41,46.56-5.91,52.86c-.39,3.46,2.26,6.69,5.96,6.39l41.4-3.3c18.63-2.47,34.43-13.31,43.42-29.29,5.01-8.92,7.55-18.28,8.25-28.43.53-7.58.17-14.87-2.01-22.14ZM406.23,99.59l-13.58,1.15,6.02-53.85,12.71-.73c5.8.51,11.08,2.84,14.47,7.49,3.14,4.31,3.9,9.39,3.91,14.61.03,14.85-8.92,28.64-23.53,31.33Z"/>
              <path class="cls-52" d="M543.36,71.96c-.74-8.13-3.48-15.72-9.31-21.67-7.08-7.21-17.13-10.69-27.35-10.12-12.19.67-23.13,6.35-31.11,15.3-8.69,9.75-12.74,21.78-12.31,34.77.26,7.89,2.37,14.82,7.22,20.99,12.93,16.49,38.25,15.45,54.49,2.26,6.58-5.35,11.31-11.84,14.52-19.62,2.92-7.07,4.54-14.23,3.85-21.91ZM514.14,90.08c-3.88,4.39-9.51,6.88-15.76,6.07-4.47-.58-7.97-3.41-9.47-7.36-2.02-5.35-.46-10.79,3.05-15.09,4.6-5.65,11.62-8.04,18.69-5.74,2.56.84,4.84,2.57,6.15,5.02,3.1,5.75,1.62,12.27-2.66,17.1Z"/>
              <g>
                <path class="cls-55" d="M308.54,136.24c-2.88.15-6.47.62-9.2-.09-4.35-1.14-4.87-6.37-4.4-10.04l.79-6.11,2.55-23.48,1.36-11.2.91-9.46,2.21-18.33.92-6.73,1.41-12.11.99-8.46c.67-5.72,3.62-7.33,9.2-7.7l9.62-.63,8.29-.76c1.69-.15,2.51.54,3.75,1.27,2.45,1.44,3.78,3.78,3.42,6.9l-.98,8.47-.79,6.27-1.82,18.4-2.69,23.71-2.24,15.26-.58,8-.81,4.14-.68,7.1-.76,6.44c-.51,4.31-2.83,7.79-7.6,8.23l-5.59.51-7.27.39Z"/>
                <path class="cls-18" d="M338.59,34.61c-.13,1.57-.32,3.07-.57,4.5l-1.63,16.09c-.29,1.53-.45,3.08-.48,4.68l-4.88,39.3-2.27,20.15c-.33,2.59-.67,5.16-1.02,7.71.1,3.61-2.58,6.88-6.6,7.15l-19.69,1.32c-3.23.22-5.92-2.53-5.54-5.88l6.46-57.3,5.06-42.87c.48-4.03,4.7-5.69,8.17-5.89l16.46-.91c2.15-.12,3.82.03,5.31,1.4s1.94,2.99,1.73,5.25l-.5,5.3Z"/>
                <path class="cls-4" d="M327.74,127.04c.1-2.58.32-5.63,1.02-7.71l-.42,5.53c-.05.66.2,1.76-.6,2.18Z"/>
                <path class="cls-4" d="M335.91,59.88v-3.75c0-.48.2-.79.48-.93.09,1.66-.3,3.19-.48,4.68Z"/>
                <path class="cls-4" d="M338.02,39.11l.13-3.6c.02-.45.21-.78.44-.9l.02,4.07c0,.37-.27.54-.58.42Z"/>
              </g>
            </g>
            <g>
              <path class="cls-25" d="M319.95,256.4l-18.91,1.35c-1.81.13-3.59-.76-4.53-1.86-1.29-1.51-1.22-3.21-.99-5.29l6.87-61.23,3.98-34.53c.38-3.26,3.11-5.91,6.35-6.13l25.63-1.79c2.62-.18,4.49,1,5.74,3.43l27.28,52.83c1-.32,1.54-1.28,1.67-2.42l5.63-49.34c.46-4,2.02-7.69,6.59-7.95l20.16-1.16c3.13-.18,4.78,3.41,4.45,6.26l-7.91,68.04-3.15,28.77c-.4,3.63-3.08,6.17-6.75,6.4l-23.8,1.52c-3.33.21-5.69-1.13-7.18-4.06l-4.35-8.55-10.84-21.03-13.51-25.85-6.34,55.51c.04,3.55-2.32,6.81-6.08,7.08Z"/>
              <path class="cls-64" d="M578.29,180.91c-1.42-5.02-4.24-9.51-7.88-13.11l-5.83-4.51c-14.95-9.52-35.05-5.21-48.86,5.91-4.73,3.81-8.09,8.68-11.24,13.83-6.5,10.59-8.47,27-4.16,38.71,4.32,11.72,14.5,19.68,26.72,22.18,16.44,3.36,33.44-2.29,45-14.32,1.93-2.01,1.58-4.9-.37-6.63l-10.22-9.06c-1.48-1.32-3.73-2.17-5.47-.87l-6.27,4.72c-5.29,3.29-11.63,3.72-17.15,1.38-3.09-1.31-6.93-5.67-6.79-8.97l46.89-3.2c2.95-.2,5.97-1.38,6.66-4.82,1.38-6.82.94-14.32-1.03-21.24ZM528.06,193.65c-.59-1.51.07-2.85.89-4.08,2.71-4.47,7.07-7.67,12.29-8.18,6.51-.65,11.81,4.05,12.08,10.59l-25.26,1.67Z"/>
              <path class="cls-36" d="M483.01,173.6c-1.84-2.02-4.33-3.65-6.64-5.01-6.12-3.61-12.99-4.84-20.03-4.61-21.23.73-38.34,15.11-43.96,35.49-5.23,18.95,1.1,39.29,19.46,47.19,9.55,4.11,19.63,4.56,29.62,1.8,9.36-2.58,17.86-7.39,23.88-15.07,1.76-2.25-.74-4.99-2.35-6.37l-9.44-8.16c-1.68-1.45-4.02-1.77-5.92.28-6.5,7.01-16.96,8.92-25.02,3.87-2.56-1.6-3.97-4.33-3.95-7.23l48.57-3.8c2.96-.23,4.86-2.95,5.08-5.66.99-12.3-.88-23.48-9.3-32.72ZM443.52,199.25c-1.38.1-2.61.59-4.13.3,1.68-8.34,9.64-13.26,17.92-11.92,5.04.82,8.59,4.47,8.57,10.11l-22.36,1.51Z"/>
              <path class="cls-25" d="M682.52,122.28c-1.14-1.16-2.6-1.7-4.58-1.55l-17.9,1.33c-3.58.27-5.74,3.54-6.15,6.91l-3.03,25.18c-.29,2.45-.47,4.83-1.55,7.19-10.98-12.11-28.68-10.13-41.41-1.23-9.91,6.92-18.08,19.07-20.52,30.91-2.91,14.07-1.43,30.06,9.47,39.97,9.12,8.3,22.41,10.09,33.92,5.63,4.01-1.56,7.08-3.21,9.88-6.21.38-.41,1.48-.67,1.73-.2-.56,3.08,1.64,6.16,4.97,5.92l17.54-1.28c2.53-.18,5.56-2.44,5.92-5.11l4.14-31.39,3.37-24.83,5.66-46c.27-2.15-.13-3.88-1.46-5.24ZM645.13,199.05c-3.57,8.43-12.05,13.91-21.53,12.02-7.5-1.51-11.93-9.62-9.3-17.37,2.76-8.09,10.68-13.68,19.2-13.44,4.65.14,8.7,2.45,10.79,5.81,2.58,4.11,2.7,8.62.84,12.98Z"/>
            </g>
          </g>
          <g>
            <path class="cls-67" d="M322.24,386.56c-3.28.24-5.95-2.2-5.59-5.45l4.03-36.27,4.95-45.56-24.2,1.66c-2.85.2-4.66-1.46-5.32-4.38l2.01-17.67c.32-2.79,1.41-5.66,4.24-6.6,2.85-.95,5.92-.73,8.92-.97l18.68-1.53,53.87-3.59c1.82-.12,3.27.49,4.36,1.51s1.78,2.7,1.55,4.58l-2.17,17.46c-.6,4.85-4.71,6.1-9.05,6.32l-20.73,1.06-.85,9.28-7.97,71.99c-.45,4.05-3.01,6.4-6.96,6.69l-19.78,1.48Z"/>
            <path class="cls-104" d="M655.85,358.86c-.46,4.32-4.72,5.62-8.16,6.41-8.54,1.96-17.02,2.42-25.14-.84-8.44-3.39-13.96-10.72-14.8-19.77l.24-10.15,3.15-27.77-6.67.45c-1.94.13-3.37-.2-4.56-1.5-1.09-1.17-1.3-2.71-1.09-4.52l1.92-16.02c.36-2.98,3.21-4.27,5.9-4.46l7.88-.56,1.72-17.61c.31-3.19,2.41-5.99,5.8-6.28l11.07-.94,8.07-.45c3.06-.17,5.79,2.22,5.46,5.24l-1.99,18.03,13.12-1.03c1.98-.16,3.52.1,4.78,1.33s1.87,2.9,1.51,5.02l-2.53,14.86c-.58,2.73-2.35,4.96-5.19,5.14l-15.03.97-1.9,18.01c-.38,3.63-.94,7.07-.3,10.72.39,2.2,2.68,4.81,4.89,5.12,2.92.4,5.5-.39,8.42-.68,2.53-.25,5.56,1.21,5.24,4.21l-1.81,17.06Z"/>
            <path class="cls-11" d="M695.3,323.48c-2.89.42-5.26-.2-7.18-1.79-1.68-1.94-2.01-4.11-1.47-6.87.56-1.54,2.29-4.15,4.78-4.52l41.61-6.24c3.62-.54,6.4,2.39,7.14,5.33.78,3.11-.65,7.61-4.38,8.16l-40.51,5.94Z"/>
            <path class="cls-37" d="M725.8,356.81c3.67,1.84,5.65,5.6,3.94,9.08-1.75,3.57-5.6,5.01-9.3,3.27l-19.49-9.16-12.41-6.46c-2.99-1.56-3.22-5.46-1.8-8.48,1.18-2.5,4.33-4.95,7.21-3.59l23.32,11.05,8.53,4.27Z"/>
            <g>
              <path class="cls-104" d="M588.04,283.91c-.96-1.12-2.77-1.94-4.68-1.82l-17.22,1.1c-2.73.17-5.02,1.49-5.71,4.25l-1.4,5.63c-4.1-4.79-9.32-8.12-15.75-8.95-12.53-1.63-24.04,2.7-33.29,11.06-10.78,9.74-16.98,22.51-18.31,36.94-.45,4.92.07,9.39.92,14.29,1.85,10.81,8.32,19.66,18.31,24.32,4.74,2.21,9.63,3.83,15.16,3.54,11.27-.59,16.68-2.79,25.57-9.94.39,3.24,2.04,6.35,5.26,6.16l17.08-.99c3.48-.2,6.33-2.23,6.73-5.89l2.06-18.98,6.16-55.57c.23-2.03.46-3.55-.89-5.15ZM551.31,333.86c-1.27,2.31-2.59,4.38-5.29,5.79l-4.09,3.13c-2.62,1.26-5.41,1.26-8.37,1.24-4.42-.03-8.35-2.89-10.35-6.23-2.38-3.99-2.6-9.08-.03-12.88l2.88-4.24c4.81-7.1,15.03-8.86,21.92-4.31,2.73,1.8,3.64,3.77,4.4,6.63,1.03,3.83.88,7.32-1.07,10.87Z"/>
              <g>
                <path class="cls-61" d="M553.9,324.28c-.59-2.01-1.1-3.88-2.13-5.77l-2.78-2.9c-1.41-.65-2.84-1.99-4.56-2.02-2.96-.61-5.99-.64-8.96-.15-6.7,1.48-12.15,6.36-14.39,13.03-1.27,3.81-.9,8.4,1.08,11.91,3.03,5.41,9.13,7.55,14.96,6.64,1.29-.46,2.66-.77,4.12-.93l2.18-.88c2.73-1.68,5.12-3.74,7.16-6.17l3.22-7.28c.4-1.8.35-3.67.1-5.48ZM551.31,333.86c-1.27,2.31-2.59,4.38-5.29,5.79l-4.09,3.13c-2.62,1.26-5.41,1.26-8.37,1.24-4.42-.03-8.35-2.89-10.35-6.23-2.38-3.99-2.6-9.08-.03-12.88l2.88-4.24c4.81-7.1,15.03-8.86,21.92-4.31,2.73,1.8,3.64,3.77,4.4,6.63,1.03,3.83.88,7.32-1.07,10.87Z"/>
                <g>
                  <path class="cls-33" d="M543.42,343.2c.12-.28.28-.78.58-.96,2.59-1.56,4.54-3.56,6.58-5.21-1.24,2.79-4.3,5.01-7.16,6.17Z"/>
                  <path class="cls-33" d="M544.43,313.59l-8.97-.15c2.69-1,6.18-1.03,8.97.15Z"/>
                  <path class="cls-33" d="M553.8,329.76l.1-5.48c.52,1.78.65,3.78-.1,5.48Z"/>
                  <path class="cls-33" d="M551.77,318.5c-1.25-.73-2.23-1.72-2.77-2.9,1.48.67,2.08,1.63,2.77,2.9Z"/>
                  <path class="cls-33" d="M541.24,344.08c-1.44.58-2.65.7-4.12.93-.02-.36.18-.55.39-.58l.96-.12,2.77-.23Z"/>
                </g>
              </g>
            </g>
            <g>
              <path class="cls-60" d="M700.53,290.5c-2.15.59-4.32-.73-5.65-2.48l-5.96-7.86-7.01,9.91c-1.62,2.29-4.31,3.23-6.8,1.78-1.8-1.04-3.53-4.07-2.07-6.12l7.61-10.67c-1.67-1.32-3.62-1.78-5.37-2.55-10.27-.56-9.73-13.72.26-11.96,2.6,1.12,5.23,2.16,7.89,3.12.96-2.93,1.45-6.13,1.45-9.61.36-2.1,1.19-4.75,3.58-5.05,3.85-1.07,6.36.03,6.75,4.37l-.09,9.8c3.52-1.11,7-2.38,10.45-3.79,7.75-1.65,8.21,8.9,1.41,10.79-3.06,1.08-5.92,2.49-8.59,4.22.37.72.74,1.45,1.11,2.2,4.01,3.93,9.48,11.47,1.01,13.89Z"/>
              <path class="cls-71" d="M700.53,290.5c1.83-.5,3.32-1.98,3.69-3.07.54-2.26.37-4-.93-5.55l-6.37-7.89,11.42-4.95c2.25-.98,3.57-3.16,3.15-5.46-.36-1.95-2.43-5.15-4.67-4.2l-12.72,5.38.95-10.91c.21-2.39-1.22-4.64-3.66-4.9-.84-.09-2.16-.24-2.91.05-.73.27-.85.07-.24-.45,1.19-.29,3.1-.18,4.47.06.91.16,2.55,1.68,2.59,2.56l.38,10.24c.04,1.05,2.53.54,3.19,0,1.69-1.37,3.52-1.39,5.29-2.08,2.92-1.14,6.3-.61,7.47,2.52,1.03,2.76.26,5.33-1.97,7.18-4.16,3.47-9.15,3.13-10.12,5.81-.84,2.33,4.7,4.05,5.77,9.9.57,3.11-1.69,5.92-4.78,5.76Z"/>
              <path class="cls-94" d="M688.48,249.01c-2.06.79-3.02,2.97-3.17,5.08l-.76,11.07-8.62-3.93c-2.57-1.17-4.91-.91-6.62,1.54-.93,1.34-1.56,2.8-1.12,4.63.28,1.2,1.31,2.59,2.87,3.26l4.24,1.85c-2.38-.11-5.4-.85-7.07-3.15-1.12-1.55-.98-4.5.12-6.29,4.89-8.03,12.98,1.58,14.91-1.23,2.23-3.26-.92-10.48,4.99-13.27l.24.45Z"/>
            </g>
            <g>
              <path class="cls-101" d="M439.09,292.37c11.35-6.48,26.21-5.38,35.93,3.74,7.44,8.35,8.34,19.32,7.1,30.41l-4.93,44.24c-.37,3.29-3.19,5.46-6.19,5.65l-18.51,1.21c-2.05.13-3.9-.43-5.05-1.91s-1.18-2.91-.95-4.91l4.03-35.45.2-8c.08-3.08-1.51-5.84-3.68-7.36-5.28-3.7-12.75-1.52-16.77,3.04-3.52,3.99-4.63,8.94-5.23,14.22l-4.28,37.56c-.41,3.58-3.35,5.49-6.54,5.71l-17.76,1.18c-1.87.12-3.48-.43-4.61-1.59s-1.45-2.98-1.26-4.81l2.56-24.87,8.85-79.24c.29-2.64.88-5.04,2.89-6.67,1.51-1.23,3.57-1.1,5.45-1.24l16.25-1.22c1.87-.14,3.68.24,4.82,1.44,1.35,1.41,1.47,3.1,1.25,5.06l-2.66,23.38c-.27,2.4-.91,4.65-.13,7l9.23-6.57Z"/>
              <path class="cls-110" d="M475.02,296.11c-1.02-.08-1.57-.94-2.26-1.48-8.46-6.6-19.82-7.6-29.54-3.8l-4.13,1.54c.4-.28.53-1.04,1.37-1.32l8.97-2.95c1.99-.66,4.47-.23,6.56-.05l4.56.38c4.23.36,7.78,2.71,11.31,4.66,1.51.83,2.1,1.84,3.15,3.01Z"/>
            </g>
          </g>
        </g>
      </g>
      <path class="cls-9" d="M183.94,223.04c-.81.35-1.41,1.16-1.97,1.13-.6-.03-1.4-.37-1.89-.96l-8.09-9.8-10.34-13.41c-1.32-1.71-2.44-3.18-3.3-5.33l29.99-11.31,41.94-15.85,16.69-6.22c1.71-.64,3.49-.13,4.61,1.21l6.95,8.34,12.9,16.02-5.57,1.91-9,3.55-53.97,22.6-18.94,8.11Z"/>
      <path class="cls-43" d="M133.34,222.49l-23.32-6.72-12.45-4.2-39.87-13.1c.17-.84.81-1.09,1.28-1.31-1.21-.87-1.53.74-2.02.88-1.49.25-3.31-.63-4.8-1.23l6.44-7.81c4.1-4.98,8.2-9.69,11.94-14.95.5-.7,1.92-.43,2.6-.25l25.05,6.62,18.39,4.94,30.23,7.91,7.74,1.43c-2.38,4.11-5.37,7.46-8.29,11.17l-8.86,11.27-4.06,5.35Z"/>
    </g>
  </g>
</svg>