<?xml version="1.0" encoding="UTF-8"?>
<svg id="Layer_2" data-name="Layer 2" xmlns="http://www.w3.org/2000/svg" viewBox="0 0 132.87 181.88">
  <defs>
    <style>
      .cls-1 {
        fill: #23201b;
      }

      .cls-2 {
        fill: #212b11;
      }

      .cls-3 {
        fill: #ecece8;
      }

      .cls-4 {
        fill: #75b219;
      }

      .cls-5 {
        fill: #254304;
      }

      .cls-6 {
        fill: #282421;
      }

      .cls-7 {
        fill: #5d802e;
      }

      .cls-8 {
        fill: #71b40d;
      }

      .cls-9 {
        fill: #72b70e;
      }

      .cls-10 {
        fill: #1b1c15;
      }

      .cls-11 {
        fill: #3d3d37;
      }

      .cls-12 {
        fill: #faf9f6;
      }

      .cls-13 {
        fill: #1e1b19;
      }

      .cls-14 {
        fill: #74b711;
      }

      .cls-15 {
        fill: #182905;
      }

      .cls-16 {
        fill: #f3f3f0;
      }

      .cls-17 {
        fill: #f5f4f2;
      }

      .cls-18 {
        fill: #74b60e;
      }

      .cls-19 {
        fill: #243907;
      }

      .cls-20 {
        fill: #1e3905;
      }

      .cls-21 {
        fill: #7baf2a;
      }

      .cls-22 {
        fill: #fefefd;
      }

      .cls-23 {
        fill: #335909;
      }

      .cls-24 {
        fill: #f6f6f4;
      }

      .cls-25 {
        fill: #e3e3e0;
      }

      .cls-26 {
        fill: #f4f4f1;
      }

      .cls-27 {
        fill: #282622;
      }

      .cls-28 {
        fill: #1d1917;
      }

      .cls-29 {
        fill: #fbfbfa;
      }

      .cls-30 {
        fill: #f3f3f2;
      }

      .cls-31 {
        fill: #749a38;
      }

      .cls-32 {
        fill: #699237;
      }

      .cls-33 {
        fill: #9a9c78;
      }

      .cls-34 {
        fill: #706e6d;
      }

      .cls-35 {
        fill: #edecea;
      }

      .cls-36 {
        fill: #72b60e;
      }

      .cls-37 {
        fill: #302e2b;
      }

      .cls-38 {
        fill: #282620;
      }

      .cls-39 {
        fill: #214203;
      }

      .cls-40 {
        fill: #1a3503;
      }

      .cls-41 {
        fill: #73bc0b;
      }

      .cls-42 {
        fill: #f1f1ef;
      }

      .cls-43 {
        fill: #32312d;
      }

      .cls-44 {
        fill: #181613;
      }

      .cls-45 {
        fill: #1e3f02;
      }

      .cls-46 {
        fill: #76b611;
      }

      .cls-47 {
        fill: #1a2e05;
      }

      .cls-48 {
        fill: #2d2d26;
      }

      .cls-49 {
        fill: #e7e5e2;
      }

      .cls-50 {
        fill: #1d1c18;
      }

      .cls-51 {
        fill: #262521;
      }

      .cls-52 {
        fill: #1e3c03;
      }

      .cls-53 {
        fill: #1a3502;
      }

      .cls-54 {
        fill: #2b2824;
      }

      .cls-55 {
        fill: #f3f3ef;
      }

      .cls-56 {
        fill: #76c108;
      }

      .cls-57 {
        fill: #254803;
      }

      .cls-58 {
        fill: #272521;
      }

      .cls-59 {
        fill: #71b50d;
      }

      .cls-60 {
        fill: none;
        stroke: #1d1c18;
        stroke-miterlimit: 10;
        stroke-width: 1.59px;
      }

      .cls-61 {
        fill: #eeede7;
      }

      .cls-62 {
        fill: #ebebea;
      }

      .cls-63 {
        fill: #eefbbf;
      }

      .cls-64 {
        fill: #ebebe6;
      }

      .cls-65 {
        fill: #fefefe;
      }

      .cls-66 {
        fill: #71a12f;
      }

      .cls-67 {
        fill: #d7d7d3;
      }

      .cls-68 {
        fill: #edfabc;
      }

      .cls-69 {
        fill: #1a200d;
      }

      .cls-70 {
        fill: #201d1b;
      }

      .cls-71 {
        fill: #8e9c72;
      }

      .cls-72 {
        fill: #7cb528;
      }

      .cls-73 {
        fill: #f6f5f4;
      }

      .cls-74 {
        fill: #72b50e;
      }

      .cls-75 {
        fill: #615d5e;
      }

      .cls-76 {
        fill: #eaeae7;
      }

      .cls-77 {
        fill: #262621;
      }

      .cls-78 {
        fill: #72b40d;
      }

      .cls-79 {
        fill: #eefabe;
      }

      .cls-80 {
        fill: #fcfcfc;
      }

      .cls-81 {
        fill: #22221e;
      }

      .cls-82 {
        fill: #f2f2ef;
      }

      .cls-83 {
        fill: #7bbc19;
      }

      .cls-84 {
        fill: #76ac24;
      }

      .cls-85 {
        fill: #f6f5f1;
      }

      .cls-86 {
        fill: #e9e8e5;
      }

      .cls-87 {
        fill: #e9e6db;
      }

      .cls-88 {
        fill: #353530;
      }

      .cls-89 {
        fill: #efefec;
      }

      .cls-90 {
        fill: #1b1715;
      }

      .cls-91 {
        fill: #302d27;
      }

      .cls-92 {
        fill: #41403b;
      }

      .cls-93 {
        fill: #e4f4b6;
      }

      .cls-94 {
        fill: #619016;
      }

      .cls-95 {
        fill: #282522;
      }

      .cls-96 {
        fill: #fdfdfd;
      }
    </style>
  </defs>
  <g id="Layer_1-2" data-name="Layer 1">
    <g>
      <g>
        <path class="cls-93" d="M75.66,14.95l.08-5.39-.13-6.41c-.03-1.28-.55-2.25-1.77-2.6-.93-.26-2.56.33-2.56,1.56l-.03,7.23.09,4.72c.02,1.37,1.01,2.64,2.41,2.52l1.06-.32c-.43.66-1.29.69-2.07.45-1.94-.6-1.87-3.04-1.94-5.23l-.11-3.14c-.03-1.01-.07-1.89-.03-2.88.05-1.07-.33-2.14.06-3.22.36-.98,1.07-2.21,2.24-2.24,1.92-.06,3.13,1.75,3.17,3.56l.09,4.22c.05,2.29.39,5.68-.57,7.17Z"/>
        <g>
          <g>
            <path class="cls-68" d="M17.75,42.26l-1.9-.8-3.59-1.77c-1.32-.65-2.76-1.27-3.64-2.57-.44-.65-.26-2.18.12-2.82.98-1.66,2.73-1.56,4.18-.84s2.71,1.3,4,2.23l3.23,1.66c1.01.52,1.88,1.21,2.08,2.17.27,1.25.13,2.49-1,3.17-1.08.65-2.37.05-3.48-.42Z"/>
            <path class="cls-18" d="M20.9,38.59c1.1.61,1.47,1.84,1.03,2.75-.51,1.04-1.78,1.53-2.89.97l-8.74-4.48c-1.08-.55-1.64-1.57-1.35-2.66.27-1.01,1.47-2.17,2.57-1.61l4.11,2.11,5.27,2.92Z"/>
          </g>
          <g>
            <g>
              <path class="cls-50" d="M128.05,72.42l-2.31,1.06-4.29,2.08,5.47,6.24,4.68,5.35c.45.51.58.87.48,1.47-.14.81-.7.64-1.33.97-3.35,1.73-6.75,2.96-10.28,4.29l.37,14.98c.03,1.24.48,2.46.14,3.66l-1.08,3.82-1.95,9.56-16.64,7.91-5.26.98c-.18-.05-.44,0-.7-.19,1.37-.45,2.82-.91,4.09-1.78l1.4-.96,7.06-3.39,7.51-3.61c.82-.4,1.56-.71,2.56-.94l.65-7.8.02-13.44.13-5.33c0-.23-.26-.24-.35-.24-.16-.18-.43-.25-.77-.13l-3.21,1.07-1.67,1.12c-.62.41-1.55.36-2.19.81-1.63,1.16-3.48,1.48-5.28,2.2l-3.68,1.47-1.67.85c-.69.35-1.25.38-1.95.66l-2.57,1.02c-1.26.2-2.41.67-3.29,1.64-2.3.77-4.55,1.54-6.59,2.82-1.23-.26-1.92-.99-2.36-2.04l-.81-1.96c-1.45-2.17-2.73-4.3-3.7-6.75-.19-.48-.62-.88-.41-1.43.94.12,1.42.82,1.92,1.44l1.9,2.37c.76.96,1.65,1.55,2.27,2.69.35.65,1.42.97,2.05,1.33l1.03-.39c1.19-.07,2.05-.52,3-1.09l2.59-.82c1.58-.91,3.14-1.73,4.96-1.84l2.62-1.68,2.67-.77c.57-.16,1-.89,1.69-1.04l1.95-.4,1.71-.65,2.32-1.11c2.13-.73,4.2-1.35,6.01-2.8,1.49-.2,2.82-.65,3.98-1.56l3.54-1.54,2.3-.52c1.03-.23,2.02-.94,2.73-1.7.29-.31.05-.89-.13-1.14l-2.37-3.2c-.63-.86-1.14-1.63-1.95-2.34l-2.06-2.85c-.83-1.14-1.87-2.05-2.44-3.41,1.32-1.04,2.6-1.99,4.08-2.64.82-.36,1.68-.44,2.36-1.1.23-.23.63-.26.79-.11.24.22.3.49.25.81Z"/>
              <path class="cls-10" d="M66.3,140.01c-.67.13-1.51.51-2.28.36-2.26-.44-4.25-1.46-6.4-2.31l-11.79-4.64-3.56-1.36c-1.82-.69-3.66-1.32-5.27-2.45-.58-.48-.59-1.58-.82-2.16.93.02,1.73.41,2.67.8l18.32,7.49,7.9,3.42c.51.22,1,.47,1.23.86Z"/>
              <g>
                <path class="cls-94" d="M118.43,97.14c.44-.57.6-.26.77.33-.14,6.21-.2,12.45-.16,18.7-.12,2.8-.49,5.54-1.12,8.22-5.69,2.48-11.32,5.1-16.87,7.87-1.71,1.32-3.46,2.2-5.67,2.38-.04,0,.74-.14.67.17l-3.72.52-11.37,1.89-5.44,1c-.17-.02-.42-.07-.43-.19-.18-3.74-.2-7.88-.16-11.64.64-9.2.37-18.54-.29-27.49l.11,12.54-.42.26-.43-.14c.04-3.6-.14-7.18-.54-10.75.49-3.96.22-4.23-.82-.83-.24.33-1.43,1.25-1.77.81l-.26-.42,3.44-6.42c.72-.74,1.12-.2,1.5.52,2.41,4.95,4.98,9.88,7.7,14.77.35.59.89,1.37,1.31,1.89.13.16,3.28-1.22,3.79-1.52,3.79-1.69,7.64-3.25,11.54-4.67,6.12-2.48,12.18-5.07,18.2-7.77l.45-.03Z"/>
                <path class="cls-2" d="M75.51,138.21c-.23.04-.64.09-.84.19-.15.05-.68.04-.7-.24l-.47-7.04c-.18-2.73-.24-5.29-.03-8.02l.86-11.42-.12-12.61.07-1.88c0-.1.39-.14.46-.08s.23.17.25.37l.53,8.43c.43,6.88.2,13.6-.15,20.48l.16,11.82Z"/>
                <path class="cls-19" d="M114.95,120.6c-.57-1.73-.15-3.38-.1-5.09l.28-8.75c.03-1.02-.09-2.08.45-3.07.61,4.22.6,8.39.29,12.67-.11,1.46-.16,2.85-.91,4.25Z"/>
                <path class="cls-15" d="M113.53,118.64c-.02,1.16-.18,2.28-.89,3.17l.09-9.02c0-.72.21-1.4.44-1.99.39.36.46.77.45,1.21l-.1,6.63Z"/>
                <path class="cls-47" d="M110.91,116.28c.56,2.57.26,8.15-.7,7.77-.16-.06-.4-.35-.36-.64l1.06-7.13Z"/>
              </g>
              <g>
                <path class="cls-59" d="M74.32,111.69l.41.23c-.82,8.63-1.26,17.41-.35,26.06l.28.42c-.31.16-.65.15-1.07.23l-7.3,1.38c-3.12-1.18-6.22-2.48-9.3-3.88-6.81-2.88-13.66-5.62-20.54-8.24l-.28-.45c-.23-.57-.37-1.1-.42-1.7-.92-4.49-1.65-9.05-2.21-13.67,0-3.95.06-7.87.19-11.77.05-.49.25-.67.7-.41.09-.15.25-.31.37-.26,3.22,1.41,6.2,2.39,9.63,3.34,6.85,2.43,13.74,4.5,20.67,6.23,1.58-2.37,3.09-4.83,4.54-7.38.21-.82.58-1.17,1.11-1.05l1.38-1.02c.69-.51.02-2.49,1.76-2.74.24,1.04.06,2.06-.08,3.07-.18,1.36.32,2.58.34,3.85l.17,7.74Z"/>
                <g>
                  <path class="cls-57" d="M41.07,126.01c-.85-.42-1.13-1.31-1.24-2.17l-.82-6.02c.64.78.7,1.77.9,2.73l1.16,5.47Z"/>
                  <path class="cls-52" d="M43.2,126.14c.04.11-.37.27-.47.2-.72-.49-2.04-4.84-1.79-6.9l2.26,6.71Z"/>
                  <path class="cls-39" d="M37.95,117.09l.87,7.57c-1.39-2.59-1.29-5.61-1.36-8.52.32.13.44.52.49.95Z"/>
                  <path class="cls-40" d="M45.09,127.29c-1.45-1.53-1.95-3.79-1.98-5.9.9,1.93,1.51,3.72,1.98,5.9Z"/>
                  <path class="cls-53" d="M45.38,124c.95,1.28,1.91,3.83,1.57,4.11-.59.48-1.55-2.11-1.57-4.11Z"/>
                </g>
              </g>
              <g>
                <path class="cls-69" d="M50.86,79.41c.94,1.45,1.45,1.8,1.52,1.06.82-1.03,1.22.11,1.11.95-.09.67-.29,1.25-1.05,1.08.12,1.1.62,1.7,1.52,1.79l.38.39c-.17.53-.83.37-1.06.61-.52.54,1.17,1.22,3.17,1.19l1.37.52c1.29.1,2.28.67,3.45,1.01l3.71,1.07,3.58.67,2.78.88,2.47.67c.22.06.47.35.63.52.86-.17,1.27-.78,1.73-1.33l-.12-.49c1.61-.87,3.25-1.68,4.94-2.43l.46.25.93.07c3.02-1.2,6.01-2.45,8.96-3.74l.56-.74c-.17-.64,1.35-1.24,1.72-.71,2.86.25,5.65-.91,8.11-2.43.12-.51.33-.89.65-1.15-.07-.61.35-.72.66-.2-.26.41-.09.72.14.93.29.25.73.26,1.07.12l3.92-1.62,2.62-.82,2.54-1.15,2.16-.57.18-.73c-1.98-.64-3.94-.56-5.97-.68l-1.99-.58c-.41-.12-1.11-.43-1.16-.86l-.18-1.75.11-2.73c.04-1.02.53-1.62,1.39-1.8.2-.17.41-.7.76-.61l.85.03c1.81,1.13,4.58,1.58,6.73,1.91,2.65.4,4.74.64,7.5.68.06,0,.12.05.17.1-.26-.28,0-.42.78-.42l.4.07c.32,0,.49.16.5.49.91.07,1.82.05,2.73-.07l1.78.3,2.8,1c-.49.65-1.24.68-1.82.93-.5-.4-1.49-.38-1.37.42l-.54.43-1.09.44c-.38-.58-.91-.52-1.59.18-2.03.6-3.83,1.81-5.55,2.97,3.07,3.82,6.07,7.73,8.99,11.73.7,1.61-1.59,2.71-2.85,3.17-2.78.44-5.26,1.75-7.72,3.09-1.24.22-2.32.65-3.27,1.3-3,1.35-6,2.62-9.02,3.82-1.32.1-2.46.56-3.44,1.36l-2.83.83c-1.52,1.16-2.91,1.85-4.81,2.16-2.75,1.37-5.59,2.48-8.51,3.34-1.58.84-3.24-.61-4.03-1.98-1.55-1.79-3.11-3.55-4.7-5.28,1.13,2.55,2.41,5.05,4.02,7.35.42,1.84,1.32,3.11,2.71,3.81,1.96-1.31,4.23-2.06,6.46-2.78l.67-.62c2.22-1,4.49-1.85,6.82-2.57,3.02-1.47,6.14-2.73,9.38-3.78,1.14-.72,2.34-1.25,3.6-1.59,1.3-.92,3.79-2.26,5.35-2.38.54-.04.84,0,.67.59-.51.45-1.15.85-1.86,1.15l-8.27,3.47-8.91,3.68-3.57,1.36-7.69,3.21c-1.28.53-2.41,1.28-3.84,1.48-1.34-1.72-2.29-3.62-3.3-5.51l-1.41-2.65-3.72-6.74c-.49-.89-.57-1.98-1.39-2.7l-3.71,6.91c-.73.79-1.15,1.89-1.75,2.91l-3.57,6.05-5.81-1.49-21.84-6.92-3.35-1.43c-1.37-.14-1.04-1.56.75-.97,2.08,1.22,4.4,1.99,6.96,2.31,4.82,1.71,9.64,3.37,14.46,4.98l2.6.56c1.67.68,3.42,1.14,5.26,1.37.76-.19,1.24-.92,1.43-2.18,1.57-1.87,2.79-3.9,3.64-6.1-1.29.82-2.4,1.91-3.31,3.27-.91,1.74-1.73,3.12-4.02,2.92-5.25-1.81-10.57-3.37-15.97-4.66-3.4-1.62-6.93-2.7-10.59-3.24l-5.83-2.47c-1.7-.89-3.35-1.17-4.95-.86l-1.2-.38.14.72c.16.82-.47.89-1.78,1.44-.71-.03-1.24-2.27-.67-2.69l.86.28c.5.19.87.15,1.2-.08.2-.14,1.06-2.23.61-3.2l.59-.9c.45-.06.82-.33,1.1-.82,1.88-1.12,3.25-2.77,3.92-4.86.4-.66,3.38-3.27,4.08-3.5.61-.2,1.33-.15,1.96-.09,3.4.86,4.08.22,2.04-1.92l.22-.5-1.34-3.61-.26-.43c.11-.93-.12-1.93-.77-2.63-1.43-.17-2.62.48-4.5.5-.6.28-1.17.44-1.71-.01-.21.16-.64.02-.88.03-.68-.27-1.34-.4-1.97-.39-.5-.19-.82-.35-1.23-.66-.36-.7-.67-1.42-.94-2.17-.08-.36.14-.49.51-.44.48-.33.89-.03,1.23.92,3.12,1.09,6.12.94,9.26-.3.67.31,1.25.88,1.72,1.7,1.62.46,1.98,1,1.1,1.6-.72-.24-.7.17.05,1.23.58-.02,1.08.39.9,1-1.26.42,1.51,1.44,1.81,1.46s-.22-1.69-.32-1.99c-.29-.71-1.89-4.98-1.81-5.24.32-.17.33-.39.2-.68-.42.12-.59-.13-.5-.76-.75-1.04-1.11-2.5-1.41-3.75-.95-1.9-1.78-4.18-2.09-6.3-.02-.11.06-.24.16-.38.28-.44.55-.3.81.1,2.44,6.68,5,13.26,7.68,19.74l1.93,5.16c.23.56,5.59,1.96,5.67,1.67l-2.64-7.75c-.26-.8-.43-1.7.67-1.49.49.09,1.76,3.91,1.91,4.51l-.3.42Z"/>
                <g>
                  <g>
                    <path class="cls-50" d="M31.08,72.17c-.69.27-1.08,1.51-1.33.9l-.38-.91c.55-.42,1.13.01,1.71.01Z"/>
                    <g>
                      <path class="cls-50" d="M36.61,74.74c-.68-.66-1.85.64-2.05-.07-.24-.85.59-1.41,1.44-1.41,0-.68-.29-1.09-.42-1.59.6.07,1.71,2.06,1.03,3.07Z"/>
                      <path class="cls-50" d="M28.48,72.19c-.65.03-1.34-.15-1.97-.39.17-.17.42-.37.59-.27l.61.34c.26.15.66.05.76.32Z"/>
                    </g>
                  </g>
                  <g>
                    <path class="cls-50" d="M34.45,99.9c-.1-.01-.27.23-.28.45l-.2,8.33c-.05,2.06-.05,3.98.27,6l1.64,10.1c.06.38.24.77-.12.97l-3.98-14.39.13-13.94-7.04-2.59c.02-.43.45-.68.89-.65,2.6.18,4.88,1.42,7.25,2.45.91.39,1.72.62,2.62,1.07.69.34,4.06.28,7.85,2.17l2.89,1.12,2.95.73,1.85.44,2.37.62,3.04,1.06,5.7,1.8c.5.04,1.5-.15,1.9-.36.92-.56,1.17-1.74,1.79-2.48l1.65-1.98c.61-.73,1.44-1.19,2.18-1.67.16-.44.3-1.47.97-1.39.31.04.35.69.15.86l-.67.57-.88,2.5-1.95,2.99c-.52.8-1.27,1.31-1.43,2.41-.07.52-.35.98-.74,1.31-.32.27-.97.21-1.51.09l-3.75-.84c-.18-.04-1.14-.85-3.48-1.01-1.13-.58-2.53-.9-3.77-1.3l-3.38-1.1-3-1.02c-1.61-.55-3.1-1.2-4.7-1.68-1.04-.32-2.1-.34-3.18-.68l-1.49-.47c-1.2-.38-1.95-1.32-2.79-1.31-.1,0-.16.28-.08.4.08.11.25.14.32.43Z"/>
                    <path class="cls-50" d="M37.95,78.34c.27.72,1.49,1.63,1.34,2.52-.3,1.81-4.51-.83-6.32.88l-2.97,2.81c-.7,2.21-2.23,4.05-4.27,5.07-.08.29-.26.46-.43.6s-.46.08-.67-.21c2.55-3.26,5-6.68,8-9.66,1.4-1.39,3.58-1.47,5.32-2.03Z"/>
                    <path class="cls-50" d="M124.66,68.42c-.27.08-.51.24-.58.72-1.55,0-3.13.08-4.68-.16l-3.27-.51-5.11-1.05c-.79-.16-1.4-.51-1.54-1.28l9,1.26,6.18,1.02Z"/>
                    <path class="cls-50" d="M128.3,68.9c-.39-.01-.79.11-1.14.46-.7.11-1.35.1-2.05-.03l-.04-.84,3.23.41Z"/>
                    <path class="cls-50" d="M131.06,71.14l-1.91.85c.3-.45.15-.9-.3-1.29.63,0,1.02-.1,1.55-.27.23-.01.48.04.58.16s.08.37.08.55Z"/>
                    <path class="cls-8" d="M87.65,105.31c-.39.17-.67.55-.94.54-.29-.01-.67-.18-.9-.46l-3.85-4.67-4.93-6.39c-.63-.81-1.16-1.52-1.57-2.54l14.29-5.39,19.99-7.55,7.95-2.97c.81-.3,1.66-.06,2.2.58l3.31,3.97,6.15,7.64-2.65.91-4.29,1.69-25.72,10.77-9.03,3.87Z"/>
                    <path class="cls-36" d="M63.54,105.05l-11.11-3.2-5.93-2-19-6.24c.08-.4.39-.52.61-.62-.58-.42-.73.35-.96.42-.71.12-1.58-.3-2.29-.59l3.07-3.72c1.95-2.37,3.91-4.62,5.69-7.12.24-.33.91-.2,1.24-.12l11.94,3.16,8.76,2.36,14.41,3.77,3.69.68c-1.13,1.96-2.56,3.56-3.95,5.32l-4.22,5.37-1.94,2.55Z"/>
                    <path class="cls-14" d="M120.86,73.62c-.59.25-.88.65-1,1.28-4.13-.81-8.19-1.35-12.42-1.61v-5.54s13.39,2.2,13.39,2.2l6.53.88-6.48,2.8Z"/>
                  </g>
                </g>
              </g>
            </g>
            <g>
              <path class="cls-84" d="M57.92,71.4c-.97,1.01-1.21,2.4-1.33,3.85-.78.33-1.58.48-2.52.57-.36-1.06-.72-2.07-.85-3.18l4.17-1.55c.19.1.36.13.53.31Z"/>
              <g>
                <path class="cls-63" d="M25.98,35.65c-1.22-.15-2.24-1.14-2.84-2.14-.99-1.66-2.09-3.09-3.29-4.62l-1.51-1.92c-1.14-1.45-1.44-3.54.1-4.84.36-.31,1.44-.6,1.91-.48,3.15.79,3.88,4.54,6.71,7.72,1.48,1.67,2.89,3.78,1.64,5.26-.6.72-1.45,1.19-2.73,1.03Z"/>
                <path class="cls-78" d="M25.65,34.93c-1.47-.6-2.03-2.08-2.88-3.21l-4.64-6.22c-.82-1.1-.36-2.42.69-3.08s2.31-.37,3.13.79l5.98,8.47c.56.8.63,1.77.2,2.45s-1.52,1.2-2.48.81Z"/>
              </g>
              <g>
                <path class="cls-65" d="M103.03,78.97l-.66.2-.21.51c-2.45,1.05-4.92,2.07-7.41,3.06h-1.13s-1.72.71-1.72.71c-.07.29-.22.51-.42.64-3.11,1.32-6.23,2.62-9.36,3.91l-.66-.14-2.47,1.21c-.94.46-2.16.69-2.81,1.46l-.83.18c.12-1.14.44-2.11.81-3.17l2.65-7.6c.35-1.01.75-1.96.67-3.09-.14-1.91.61-3.62,1.89-5.04,1.95-2.16,4.72-3,6.61-5.51l1.48-1.98c1.64-2.19,3.09-4.48,4.05-7.05l2.96-7.94c.23-.61.61-1.55,1.4-1.44,1.78,1.77,3.12,2.28,5.47,1.07l.62,1.85c.32.95,1.82,1.48,2.87,1.17.85-.25,1.58-1.22,1.71-2.06.2-1.29-.25-2.51-.76-3.62-.36-.79-.11-1.51,0-2.32.45-3.04-.25-5.9-1.41-8.87,2.15,1.25,4.63.63,5.55-1.5.83-1.93.58-5.24-1.65-5.85-1.98-.55-4.19.62-4.77,2.58-.36,1.22-.07,2.32-.08,3.62-.59-.6-1.07-.92-1.88-1.3,1.13-.88,1.55-1.95,1.7-3.22.16-1.4-.31-2.67-1.64-3.4,1.27-1.04,2.53-1.83,4.1-1.97.26.58.3,1.13.67,1.55,2.2-.16,3.66-1.98,5.35.25,1.29,1.69,2.06,3.68,2.7,5.81,1.39,4.62.13,9.55-3.02,13.24-1.72,2.02-3.03,3.94-4.03,6.46-1.92,4.87-3.32,9.89-4.04,15.12-.4,2.9-.19,5.74-.13,8.64.02.97.31,1.89.6,2.74l-2.76,1.09Z"/>
                <g>
                  <path class="cls-50" d="M102.37,79.17c.01.39,0,1.26-.43,1.5-1.63.95-3.36,1.69-5.15,2.29-1.11.38-2.19.23-3.18-.22l8.76-3.57Z"/>
                  <path class="cls-50" d="M91.9,83.44c-.18.19,0,.63-.02.86-.85.83-2.4.45-3.3,1.62l-6.11,2.41c-.35.14-.8-.28-1.03-.48l10.45-4.41Z"/>
                  <path class="cls-1" d="M103.78,76.29c.06.32-.15.49-.21.56-.77,1.02-1.93-8.44.32-12.51-.3,4.14-.85,7.85-.12,11.95Z"/>
                  <path class="cls-51" d="M91.98,63.62l1.44-3.05,3.39-8.35c-.48,4.14-2.17,8.1-4.83,11.4Z"/>
                  <path class="cls-37" d="M115.25,32.62c1.09,2.68.52,7.11-1.72,8.91,1.01-3.1,1.76-5.9,1.72-8.91Z"/>
                  <path class="cls-58" d="M83.23,78.72l-3.52,4.7c-.16-1.13.45-2.14,1.17-2.91l3.69-3.95c-.08.83-.79,1.42-1.34,2.15Z"/>
                  <path class="cls-48" d="M81.39,84.46c-.33.72-.68,1.42-1.3,2.11-.34-1.04.36-1.89.89-2.73.92-1.46,1.68-3.07,3.35-3.87-.99,1.67-2.18,2.85-2.94,4.5Z"/>
                  <path class="cls-27" d="M83.98,75.08l-3.03,3.37c-.06-.73.4-1.36.89-1.86l3.58-3.67c-.18.9-.85,1.5-1.44,2.16Z"/>
                  <path class="cls-34" d="M94.06,72.63c-.38-.89-1.04-1.15-1.84-.83l-1.38.55c-.34.13-.69.03-.86-.25-.27-.45.19-.92.98-1.9.12-.15.53.24.4.57-.15.38-.43.23-1.05.92-.13.15.13.57.34.45,1.02-.56,2.18-1.01,3.37-.76.25.14.45.87.04,1.26Z"/>
                  <path class="cls-92" d="M112.44,35.05c-.44,1.49-2.08,2.15-3.45,1.75,1.05-.37,2.21-.71,2.9-1.75.17-.25.65-.31.55,0Z"/>
                  <path class="cls-11" d="M85.25,82.13c-.5,1.19-1.08,2.1-1.86,3.14-.02-1.35.69-2.41,1.86-3.14Z"/>
                  <path class="cls-75" d="M95.36,73.33c-.42.22-1.2.12-1.35-.53.48,0,.85.12,1.35.53Z"/>
                </g>
              </g>
              <g>
                <path class="cls-50" d="M108.63,66.11c-.05.6-.49,1.04-1.3,1.32-.71.57-.61,5.2-.33,5.58.24.32,2.33.95,2.76,1.01,1.95-.03,3.88.18,5.77.61,1.02,1.11.33,1.85-2.06,2.2-3.1,1.26-6.22,2.48-9.35,3.67-1.19.08-2.08-.68-1.08-1.53v-.47s2.2-.86,2.2-.86c-1.52-7.24-.07-14.86,2.11-21.9,1.47-4.75,3.3-8.65,6.65-12.31,3.39-4.94,3.16-10.07.59-15.32-1.47-3-2.25-3.47-5.32-2.21-1.31.22-1.49-.03-1.87-1.37-1.14.18-2.16.76-3.06,1.46.89.78,1.38,1.81,1.34,3,7.76-7.08,10.44,8.77,1.48,6.96,1.16,3.15,1.42,6.32.85,9.56.18.7.43,1.39.73,2.08,1.72,4.74-4.4,7.21-5.64,2.04-2.08.86-3.92.33-5.41-1.31-.39.19-.65.54-.78,1.05l-3.47,9.23c-2.39,4.75-5.41,9.37-10.08,12.05-2.36,1.86-3.76,3.76-3.45,6.91-1.3,4.17-2.64,8.35-4.03,12.53l.31.46c.32,1.14-1.62,2.33-2.52,1.2-4.22-1.15-8.44-2.26-12.68-3.34-2.37-.85-4.79-1.48-7.25-1.89l-.52-.28c-.81-.8-.43-1.31,1.15-1.53.21-.23.51-.2.9.09.02-.7-.12-1.45-.44-2.24-.47-.91-1.83-5.04-1.46-5.78.13-.26.53-.48.81-.61,1.17-.16,2.32-.37,3.46-.64-.35-1.33-.25-2.7.31-4.1-.46.35-.62.27-.53-.31-.83.07-1.66.2-2.48.37-.88-.16-1.36-.51-1.46-1.05l5.85-2.1c1.92-1.23,3.56-2.78,5.84-3.49l.41-4.35c.69-3.35,1.64-6.58,2.76-9.8.76-2.2,2.87-1.85,3.04-2.52l.81-3.23c.42-2.77.2-5.59-.42-8.3-.37-1.63-1.03-2.86-2.14-4.12-1.42-1.6-3.35-3.46-5.66-3.62-3.34,4.26-5.16,5.03-10.66,3.3-.66-.21-1.18.22-1.72.43-2.21.87-4.6.43-6.53-.92-1.79-1.26-2.56-3.37-2.99-5.73-.81-1.09-2.39-2.19-2.54-3.9-.11-1.22.25-2.65,1.11-3.59,2.8-3.06,9.18-4.56,13.51-4.92l3.83.29c4.54.34,7.54,4.42,7.02,9.02,10.64,4.51,14.93,14.07,11.69,25.24-.33,1.14-.24,1.94.19,3.01.51,1.28.14,2.79-.11,4.13l-1.83,9.7-.46.97,1.71,1.38,4.42-1.39c1.87-.59,3.56-1,5.71-.72.25-1.32,1.43-1.83,2.12-2.75,2.12-2.84,3.12-6.18,4.48-9.4l2.14-5.07c-1.19-1.78-.8-4.11,1.17-5.2-.38-4.03.2-7.95,1.55-11.8.65-1.84,1.25-3.65,2.64-5.05,1.86-1.87,4.18-3.11,6.71-4.05-.82-3.46.43-7.26,3.44-9.22,1.07-.7,2.53-.75,3.41.08s1.12,2.1,1.42,3.34c1.44-.28,2.59.28,3.12,1.54.6,1.41.28,2.93-.05,4.39.59.71.86,1.64.97,2.63.18,1.73-.05,3.43-1.77,4.38.96,2.07,1.16,4.18,1.24,6.39.11,3.41-.93,6.46-2.75,9.26l-3.19,4.3c-1.98,3.33-3.09,7.07-4.13,10.8l-1.14,6.19.92.17Z"/>
                <g>
                  <path class="cls-31" d="M80.51,69.81c-.31.25-.66.8-1.08.53-.54-.34-.97-.87-1.48-1.47l2.54-.92c1.11-.4,2.13-.86,3.39-.91l-3.37,2.77Z"/>
                  <g>
                    <path class="cls-84" d="M53.38,28.78c.2.27.34.58.29.74-.15.54-3.08.59-4.49-.27-2-1.13-3.65-2.66-4.33-5.13,2.57.96,5,2.13,7.28,3.66l1.24,1Z"/>
                    <path class="cls-16" d="M68.94,58.44c-.46,1.59-.51,3.09-1.23,4.62-.34-2.58.17-5.06.97-7.55.47-1.47.67-3,1.43-4.37.27-.48,1.43-.36,1.85-.18l-1.35,1.76-1.67,5.72Z"/>
                    <path class="cls-24" d="M76.02,39.39c-.64.13-1.03.09-1.56,0l-.31-2.05,1.52-.43c.22.83.34,1.48.34,2.47Z"/>
                    <path class="cls-73" d="M65.81,27.2c-.34.25-.96.1-1.25-.07l.3-2.8c.54.33,1.09.65,1.26,1.16s.16,1.36-.31,1.71Z"/>
                    <path class="cls-3" d="M70.88,30.96c-.66-.39-1.04-.78-1.49-1.29.66-.54.89-1.07,1.05-1.73.51.43.97.84,1.07,1.29.14.57-.14,1.19-.64,1.74Z"/>
                    <path class="cls-61" d="M72.32,32.91l-.93-1.31.88-1.63c.52.55.9,1.14.98,1.78-.07.39-.46.76-.93,1.17Z"/>
                    <path class="cls-42" d="M75,49.23c-.64-.15-1.39-.32-1.93-.75-.17-.15.06-.83.29-.87.69-.12,1.37.08,1.95.35l-.31,1.27Z"/>
                    <path class="cls-49" d="M75.8,45.15c-.32.31-1.42.14-1.75-.15-.22-.27,0-.81.09-1.01.18-.34,1.51-.22,1.69-.06.2.19.37.82-.03,1.21Z"/>
                    <path class="cls-35" d="M68.81,29.17c-.2-.02-.82-.33-.77-.59l.42-1.94c.43.07,1.05.44,1.08.85.04.65-.39,1.2-.73,1.68Z"/>
                    <path class="cls-24" d="M73.46,34.8c-.4-.42-.57-.82-.73-1.27l1.08-.95c.35.4.8.96.75,1.48-.14.35-.65.59-1.1.74Z"/>
                    <g>
                      <path class="cls-55" d="M63.27,78.51c-1.37-.36-2.58-.69-3.58-1.71l-.78,6.77c-.07.62-.12,1.28-.69,1.66-.37-1.37-.22-2.69.05-4.01.41-1.99.46-3.79.29-5.93,1.68,1.45,3.48,2.01,5.41,2.64,1.33.43,2.5.93,3.97.95.72,0,1.51.03,2.23.47-2.28.22-4.52-.21-6.9-.84Z"/>
                      <path class="cls-17" d="M62.75,69.99c-1.12.65-1.42,2.77-2.86,2.79.09-1.48,1.02-2.57,1.98-3.58,2.78-2.95,5.44-1.85,4.07-1.06l-3.18,1.84Z"/>
                      <path class="cls-86" d="M62.37,71.41c.95-1.14,1.17.29-.88,2.73-.62-1.01.21-1.93.88-2.73Z"/>
                    </g>
                    <path class="cls-71" d="M51.15,30.51c-.23.62-.75.38-1.27.42-1.64.14-3.42-.22-3.89-1.97.78.76,1.4,1.44,2.46,1.47l2.7.08Z"/>
                    <path class="cls-25" d="M75.43,47.18c-.63-.53-1.06-.24-1.71-.21-.34.01-.26-1.12.12-1.19.56-.1,1.26-.01,1.79.21.19.23.08.87-.2,1.19Z"/>
                    <rect class="cls-67" x="74.42" y="39.99" width="1.69" height="1.39" transform="translate(-.84 1.59) rotate(-1.2)"/>
                    <path class="cls-82" d="M67.67,26.05c.35.37.16,1.55-.3,2.02-.26.27-.86.13-1.03-.21.33-.6.71-1.2.67-2.08.27-.01.53.14.66.27Z"/>
                    <path class="cls-62" d="M75.28,36.26c-.18.28-1.01.43-1.32.28-.22-.11-.32-.76-.18-.93.17-.2.55-.43.97-.52.28.04.66.81.52,1.18Z"/>
                    <path class="cls-76" d="M76.03,42.08c.2.16.17.74.07.92-.2.36-1.58.13-1.65-.03-.06-.13-.07-.58.07-.77.24-.31,1.17-.35,1.51-.12Z"/>
                    <g>
                      <path class="cls-22" d="M59.07,30.92c-4.59-5.48-11.23-8.24-17.88-9.91,1.07-1.97,2.76-2.83,4.62-3.56,4.08-1.61,8.31-2.55,12.7-1.77,2.56.45,4.32,2.63,4.86,5.17.51,2.39-.02,4.85-.8,7.15-.93,1.2-1.86,2.17-3.5,2.91Z"/>
                      <path class="cls-81" d="M59.78,29.43l-4.4-4.03-4.76-3.24c1.9.49,3.37,1.46,4.97,2.36,1.61,1.37,3.52,2.6,4.18,4.9Z"/>
                      <path class="cls-38" d="M61.17,18.65c1.27.71,1.45,4.42.58,6.12-.57-2.09-.35-3.99-.58-6.12Z"/>
                      <path class="cls-77" d="M60.49,28.47l-3.1-3.6c-.22-.4-.62-.68-.43-1.29,1.53,1.28,3.32,2.7,3.53,4.89Z"/>
                      <path class="cls-88" d="M60.88,26.22c-.76-.59-1.05-1.58-1.2-2.6.79.6,1.42,1.37,1.2,2.6Z"/>
                    </g>
                  </g>
                  <g>
                    <path class="cls-4" d="M116.37,17.6c1.67-.73.8,3.25-.14,5.8.49.06.8.04,1.1.18.88.41.6,2.72-1.07,4.01l-1.2-2.04c-.6-1.02-1.7-1.7-2.88-1.57l-2.7.3c-.76-1.14-.85-2.45-.99-3.79-.17-1.64.07-3.14.97-4.53.47-.73.78-1.63,1.68-1.96l-.62,1.99c-.23.73-.52,1.53,0,2.31l2.46-3.94c1.42,1.6.28,4.46.98,6.86l1.22-2.52c.24-.5.56-.84,1.19-1.11Z"/>
                    <path class="cls-21" d="M99.06,47.63c-.22-.38-.26-.91-.49-1.04-.89-.48-1.93.67-2.31.28-.5-.51-.24-1.86.36-2.27.88-.61,1.91,0,2.38.86.69,1.25,2.61,1.95,3.63.87.46-.49.37-.88,1.22-1.09,1.91-.47,2.89-5.96-.31-9.22-1.18-1.2-2.91-1.21-4.3-.35.24-1.37,1.51-2.26,2.47-2.42,3.1-.52,4.22,2.23,4.99,5.12.47,1.78.59,3.49.16,5.3-.7,2.96,1.24,4.57.43,6.06-.25.46-.86,1.2-1.59,1.12-.56-.06-.78-.74-.89-1.17l-.66-2.48c-1.7,1.45-4.19,1.98-5.09.41Z"/>
                    <path class="cls-33" d="M98.99,34.34c-.88,2.8.11,5.91-1.31,7.99,0-3.06.32-5.91,1.04-8.65.32-.09.41.13.27.67Z"/>
                    <path class="cls-87" d="M98.99,34.34c-.14-.18-.25-.42-.27-.67l.65-2.48,1.16,1.6c-.74.46-1.27.86-1.53,1.54Z"/>
                    <g>
                      <path class="cls-80" d="M107.88,34.89c-1.47-.13-1.94-1.69-1.86-2.88s.38-2.28,1.34-2.87c.89-.55,2.16-.78,3.08-.07.83.64.85,1.71.72,2.72-.21,1.64-1.42,3.26-3.29,3.1Z"/>
                      <path class="cls-91" d="M108.67,31.24c-.02.45-.12.72-.29.86-.18.15-.49.17-.66.02-.37-.32-.27-1.17.17-1.43.31-.18.82-.06.79.54Z"/>
                    </g>
                    <g>
                      <path class="cls-29" d="M102.84,32.17l-1.96.04c-.7-1.33-.78-2.91.16-4.14.67-.87,2.2-1.48,2.98-.48,1.17,1.48.36,3.73-1.18,4.58Z"/>
                      <path class="cls-43" d="M102.08,30.06c-.52-.06-.58-.56-.5-.91.07-.3.33-.77.79-.71s.57.52.52.88c-.04.3-.2.81-.81.75Z"/>
                    </g>
                  </g>
                </g>
              </g>
              <g>
                <path class="cls-69" d="M53.45,70.41l1.5.63c.91-.05,1.7-.34,2.44.05-.12.27.06.37.53.31.67.72-.64,2.28.12,3.99l.43.29c.09.06,0,.31-.24.22-.41-.16-1.01.3-1.53.29-1.09-.03-2.08.03-3,.74.05.85.03,1.8.33,2.61l.97,2.64.59,1.97c.12.39-.19.49-.34.64-.24.06-.44-.04-.62-.3-.2-1.15-.63-2.15-1.27-3,.14-.5.09-.88-.14-1.14-.71-4.22-1.69-8.39-2.94-12.51-.11.02-.21.02-.3-.01-.26-.1-1.41-5.06-1.27-5.3.3-.24.62-.45.97-.66,7.38-2.39,7.27-7.73,4.9-14-.51-1.34-1.81-4.5-3.62-3.38-1.09.68-1.13,1.49-.9,2.63l1.95,5.48c.65,3.52-1.63,5.45-4.96,5.75-1.16-3.26-2.32-6.54-3.46-9.84-1.39-3.31-3.64-8.1-7.74-7.93,2.35,1.29,3.59,3.45,4.64,5.79,1.67-1,2.89,1.13.89,1.61l-.06.22c.78,1.54,1.43,3.13,1.97,4.76,1.63-.11,1.51,1.26.29,1.61,0,.53-.13.98-.35,1.35-.33.58-.55.35-.91-.1-1.33-3.62-2.83-7.16-4.52-10.62-.98-1.71-2.43-2.96-4.3-3.62-.37-.75-.68-.18-.92,1.71-.05,3.25.55,6.45,1.8,9.58l-.32.41c-.03.17-.25.22-.4.15-1.59-.77-2.88-7.89-2.52-10.14-1,.79-1.57,2.1-1.83,3.36-.79,3.7,1.96,10.82,3.7,14.11l.28-.71c.23-.17,1.52-.07,1.8.09.23.13,1.57,2.32,1.45,2.81.52.51.7,1.05.53,1.62.38.33.84,1.6.83,2.08-.02.83-.98.6-1.42.04-.71-.89-1.28-2.3-1.71-3.35-.63.69-1.23,1.43-1.78,2.2-3.87,2.74-5.9-1.47-7.01-4.7-.39-.77-1.17-2.29-1.76-2.83-.75-.68-2.31-.77-2.57.42l-.48.27c.07,1.39.35,2.82.78,4.18l-.16.28c.62-.18.81.56.3.9.88.48,1.29,1.1,1.22,1.87.47.2,1.35,1.36,1.18,1.93.33.76-.18.71-.82.38-1.04-1.5-2.08-2.96-3.12-4.36-.48-1.05-.55-2.18-.78-3.39-.77,0-1.6.14-2.2-.27-.3-.2.1-.84.48-.89.54-.07.92-.03,1.53.05-.11-1.36.35-2.32,1.12-3.08.85-.85,2.05-1.06,3.29-.7,1.87.55,2.87,2.26,3.32,4.09.52,2.09,1.86,4.8,3.45,4.81.33,0,1.15-.2,1.25-.69-1.37-3.81-2.93-7.42-4.06-11.25l-1.15.21c-.25.04-.44-.1-.54-.2-.06-.06-.13-.35.01-.41l1.43-.63c-.89-2.31-.77-4.58,0-6.88-.81-.36-1.58-1.05-1.29-1.85.16-.44.75-.5,1.01-.22l.66.72c.85-1.64,2.03-2.61,3.52-3.52-.4-.63-.61-1.75.14-2.02.42-.13.81.86.83,1.44,1.52-.51,2.87-.87,4.46-.54l.8-1.77c.1-.23.42-.26.58-.16.09.05.18.23.14.43l-.39,1.79c1.78.46,3.01,1.51,4.1,2.81.04-.46-.34-.75.17-1.07.07,1.57.83,2.53,1.39,3.76,1.79,3.88,3,7.87,4.29,12,.93-.18,2.02-.71,2.26-1.65s-.19-2.02-.5-2.93l-1.5-4.45c-.55-.24-1.05-.36-1.47-.71-.27-.23-.13-.72.08-.73l.8-.03c.32-.79.58-1.87,1.5-2.34.14-.69-.05-1.31.37-1.99.39.24.48.7.51,1.28,1.61-.53,3-.1,4.32.91.18-.36.78-1.05,1.14-.87.53.49-.14,1.41-.66,1.8.92,1.41,1.58,2.67,2.02,4.2.33-.41.59-.69.88-.71.26-.02.72.4.51.67l-.87,1.1c.43,2.45.79,4.97.19,7.4-.3,1.23-1.26,2.18-1.87,3.23.16.29.41.47.64.67.29.25.27.56,0,.73-.49.31-.71-.44-1.44-.93-1.27,1.19-2.68,1.91-4.37,2.58l1.02,3.91c.03.13.47.05.59-.04.4-.28.77-.07.86.25.19.62-.84.78-.95,1.11-.15.45.28,1.76.53,1.7l.73-.17Z"/>
                <path class="cls-50" d="M24.48,67.84c.65-.24.94.3.37.69-.47.51.81,1.3.43,2.61l-1.13-.84c-1.07-1.24-1.78-2.61-2.49-4.15-.62.11-1.08.36-1.77.31-.05-.82.5-1.19,1.12-1.57l-.46-1.01c1.13.29,1.51,1.42,2.18,2.35l1.23,1.71c.09.12.25.17.35.14.07-.02.16-.04.18-.22Z"/>
                <path class="cls-32" d="M55.25,84.78c-.17.17-.27.3-.51.16l-.4-.24c-.8.15-1.76-.21-2.03-1.12l-.54-1.82c.46-.02.71.22,1.04.49.28-.66.34-1.07.32-1.88-.51.17-.5.6-.28,1.08l-1.26-.17-.74-1.85c.19-.3.48-.28.86.04l.35-2.29c-.39-2.07-.93-4.09-1.64-6.08l.32-.42c-.37-.78-.55-1.64-.73-2.48-.04-.18.05-.29.26-.35.38.39.33.96.49,1.5l1.78,5.89.25,2.06c.52.99.94,2.85.89,4.04,1.05.72.85,2.21,1.56,3.46Z"/>
                <g>
                  <path class="cls-9" d="M43.23,55.91l.2-.08c-.28-.97.98-2.4,1.87-1.91.32.18,1.56,3.56,1.67,4.2,0,.02.17.27.18.28.25.13,3.16-.96,3.7-1.17,1.31.35.55,2.06-.63,2.28l.04.26c.4.21.25.36-.18.37l-.44.32c.89,1.13-.27,1.93-1.35,2,.4.27.61.74.62,1.42.54,2.27,1.14,4.53,1.81,6.76l1.5,4.87c.47,1.53.24,3.19-.33,4.63l-1.06-.74-1.2-3.4c-.18-.52-.28-1.05-.88-1.31.05.88.37,1.6.63,2.39l1.71,5.12c.25.76.48,1.43.92,2.14l-5.15-1.11c-.94-.2-1.62-.54-1.97-1.49l-1.2-3.22c-.45-1.83-1.41-3.3-2.04-5.04l-1.98-5.5c-1.49-3.32-2.8-6.54-3.81-10.03-.11-.39-.45-.93-.75-.93-.08.78.05,1.64.4,2.57l-.31.34c-1.38.37-1.77.25-2.42-1.08-.22-1.3-.65-2.43-1.29-3.39-1.44.1-1.45-2.12-.19-1.77-.15-.35-.03-.63.32-.36.25-1.15.63-1.59,1.13-1.3.34,1.09.77,1.49,1.3,1.22l-1.09-3.56c-.89-2.91-1.39-6.06-.15-8.92.11-.25.94.18.95.47,1.99.64,3.36,1.96,4.41,3.73l1.86,3.87,2.66,6.76c.1.25.36.32.53.3Z"/>
                  <path class="cls-45" d="M47.75,70.01c-.84.15-.75-.49-.87-.86-.49-1.54-1.33-2.98-.87-4.7l1.74,5.56Z"/>
                </g>
                <g>
                  <path class="cls-66" d="M34.07,53.27c.08.26-.15.33-.34.33-.94-.02-.55-.89-1.4-1.4-.18.55-.31,1.02-.68,1.16-.19-.26-.3-.14-.32.36-.28.32-.63.52-.51,1.28,2.36-.3,1.54,3.08,2.93,4.64.3.34,1.43.12,1.48-.35.07-.71-1.02-2.24-.08-2.25.4,2.06,1.29,3.98,2.01,6.01l1.84,5.18.19.72c-.02.16-2.96.2-2.87-.47.11-.51.65-.75,1.6-.74-1.77.03-2.32-.98-3.04-2.58-.06-.1-.22-.23-.34-.24-.14-.02-1.92,1.82-1.97,1.95.72.06,1.15.29,1.28.69.27.73-1.26.97-1.88.73-.03.7-1.22.89-1.5.26-.77-.34-1.52-.66-2.38-.64-.31.39-.75.29-1.29-.29-.71-.73-1.25-1.59-1.61-2.57l-.2.19c.39.89-.12,1.18-1.51.87-.23-.96-.51-1.49-1.35-2.07l-.3-.9.09-.53-.71-3.93c.11-.86.49-1.55,1.58-1.6s1.85.43,2.38,1.37l1.15,2c.85,1.49,1.1,3.27,2.32,4.6.96,1.05,2.91,1.13,4.07.38.64-.41.73-1.3,1.21-1.78s.77-.81.96-1.64c.48,1.59.9,3.1,1.86,4.53.18.27.39.58.87.46l-.41-1.75c-.05-.21-.56-.46-.53-.66.03-.21.37-.68.11-.87l-.64-.46.08-.7-1.55-2.4c-.22.23-.35.37-.45.39s-.29-.16-.43-.39c-.84.96.51,2.09,0,3.07-.68-.82-.83-1.7-1.23-2.58-1.56-3.46-2.9-6.92-3.63-10.68-.52-2.65.24-6.05,2.72-7.61l-.04,3.48c.31,2.42.95,4.65,1.84,6.9.15.38.27.61.68.54Z"/>
                  <g>
                    <path class="cls-7" d="M21.78,63.14c-.51-1.52-.83-2.78-.61-4.46.2-.03.26.08.25.15l-.11.53.94,3.69-.46.09Z"/>
                    <path class="cls-23" d="M31.64,53.36c-.22.08-.21.24-.32.36-.6.04.31-1.39-.35-2.99-.34.33-.19.64-.24.82-.12.05-.2.05-.25.05l.22-3.8c.65,1.93,1.14,3.75.94,5.56Z"/>
                    <path class="cls-9" d="M29.05,66.98c-1.21.24-2.4-.65-3.07-1.92l-.8-1.53c-.31-.59-.4-1.28-1.17-1.46-.3.62-.24,1.27-.94,1.75l-1.34-3.78c-.3-.86.09-1.64.87-2.03.61-.31,1.55.11,1.81.94l-1.01,1.73c.12.29.36.52.62.78.55-.2.94-.53,1.33-1.08.17.08.44.28.53.52.78,2.1,1.68,4.04,3.16,6.08Z"/>
                    <path class="cls-9" d="M36.3,68.49c-1.52.49-1.9-.77-2.49-.93-.66-.17-1.47.02-1.99-.81,1.47-.66,2.09-2.35,2.72-2.24,1.11.18.9,1.86,2.16,2.63.31.19.85.05,1.17.08.41.04.51.5.39.72-.24.44-.95.22-1.97.55Z"/>
                    <path class="cls-7" d="M30.43,68.56c-.52.06-.83-.23-1.38-.38l-1-.26c.88-.17,1.73.03,2.38.64Z"/>
                  </g>
                </g>
                <g>
                  <path class="cls-7" d="M24.94,65.24l.33.1c.71,1.89,2.01,3.13,4.05,3.36l.55.66,2.28-.34-.22-.71,1.88-.73c.37-.27.82-.1,1.36.5.54.02.92.16,1.13.43l2.2.12c.14,0,.44.11.52.02.05-.06-.02-.41-.03-.39.39,1.08.99,2.31,1.14,3.51.08.62.04.65.39,1.18.58.89.68,2.2,1.06,3.19-.44.52-.73.85-.85,1.53.58.05.72-.4,1.06-.94l1.38,2.99c.42.91.79,1.89.97,2.86-.82.25-1.34-.48-1.94-.58-1.02-.19-1.94-.44-2.04-1.66.92.54,1.6,1.21,2.5,1.39.33-.01.37-1.14-.03-1.17-1.3-.12-2.53-.73-3.2-1.74.77-.79,1.24,1.38,2.84.72-.3-.5-.69-.51-1.14-.53.08-.31.29-.39.63-.47-.81-.9-2.62.13-3-2.08l1.55.52.47-.08c.07-.01.15-.14.03-.25l-.31-.28c-.92-.29-1.95-.42-2.45-1.38.19-.25.58-.33.73-.42.05-.45-.6-.44-.8-.53-.42-.51-.87-1.4-1.02-2.02s1.59.72,1.25-.38c-2.16.11-2.09-2.38-2.99-2.02-2.15.86-4.54,1.27-6.83.9-.78-.13-1.66-.63-2.52-.65-.31-.41-.52-1.17-.99-1.32-.06-.23-.13-.51-.37-.69-.61-.46-1.77-2.18-1.71-3.06-.21-.17-.58-.4-.69-.74l1.66.92-.28.93c.22-.11.55-.31.65-.25l.47.24c.21.11.39-.42.37-.64Z"/>
                  <path class="cls-69" d="M28.05,67.91c.85-.02,1.62.3,2.38.64.48-.05,1.02-.1,1.5-.26.45.47.99.42,1.77.49-1.87,1.19-3.38.6-4.31,1.22.02-.4-.02-.78-.25-.97-.11-.09-2.65.28-4.19-3.8-.33-.86-.7-1.72-.87-2.83l1.98,3.85c.43.84,1.17,1.45,2,1.66Z"/>
                  <path class="cls-50" d="M39.85,75.03c.32.06.44,0,.53.09.17.16.14.34,0,.48-.16.18-.28.11-.58-.04l-1.03-.51c-.06-.03-.08-.19-.06-.25l1.13.23Z"/>
                </g>
                <g>
                  <path class="cls-72" d="M50.27,67.83l.47,2.83c-.88-1.08-1.01-2.43-1.34-3.84l-.89-3.71c-.3-.11-.59-.29-.63-.46-.05-.19.12-.68.29-.66.4.05.63.15.94-.07.26-.18.67-.54.37-.92-.21-.27-.34-.49-.17-.82.15-.3.51-.11.78-.03.37-.18.43-.3.18-.37-.2.01-.54.08-.71-.31.91-.27,1.72-.79,1.52-1.92-.82.52-1.56.6-2.49.77-.52.09-1.08.6-1.7.33l-1.8-4.39c-.79-.17-1.72,1.04-1.41,1.78-.29.22-.44.04-.46-.11.01-.52-.15-.98.09-1.63.46.03,1-.48.68-.86-.16-.19-.7.03-.99.18-.51-2.22-1.57-3.93-2.41-6.02.5-.03,1.22,0,1.38-.43.15-.4-.41-.78-.75-.67-.23.08-.45.22-.86.57l-1.29-2.57c-.96-1.91-2.52-3.11-4.6-4.22,5.35-1.53,8.63,5.23,10.19,9.97l1.43,4.35c.38,1.15,1.21,2.13,1.12,3.52,1.3-.3,2.76-.85,3.74-2,.84-.99.9-2.92.46-4.09l-1.36-3.6c-.36-.96-.79-2.08-.36-3.19.29-.77,1.41-1.54,2.26-1.46.7.07,1.29.8,1.69,1.31,1.25,1.63,1.59,3.54,2.22,5.49.86,2.67,1.02,5.72-.67,8.12-1.4,1.99-3.77,3.04-6.04,3.76-.26.63-.03,1.29.15,1.92l.98,3.44Z"/>
                  <path class="cls-5" d="M50.09,60.15l.18-.37c1.18-.07,1.71-.98,2.2-1.89.32-.59.79-.82.55-1.91l.43.84c1.07-1.92.83-4.02-.11-5.87-.24.34-.62.49-.78.3.16-.76.49-1.39.98-2.1l.96,2.97c.5,1.56.48,3.4-.02,4.97s-2.9,3.47-4.39,3.06Z"/>
                  <path class="cls-9" d="M44.55,52.42c.13.44-.63.45-.89.23-.24-.19-.45-.38-.61-.85l-.67-1.93c-.12-.36-.25-1.36.2-1.43.57-.09,1.03.75,1.16,1.2l.82,2.78Z"/>
                  <path class="cls-20" d="M50.52,44.56c1.26.24,2.24,1.99,1.78,2.37-.41.34-1.21-1.04-1.78-2.37Z"/>
                </g>
              </g>
            </g>
          </g>
          <g>
            <g>
              <g>
                <path class="cls-50" d="M27.51,89.46c.18.02.38.06.48.22.18.29-.08,1.41-.19,1.81-.43,1.56-1.74,2.19-2.76.77l-.43-.08-3.77-14.72c-1.42-3.37-4.23-4.36-7.63-4.64l-8.67.06c-1.99.19-2.9,2.32-.71,2.96l9.82.72c2.05.4,3.13,1.17,4.04,3.09,5.88,22.2,11.57,44.42,17.08,66.68l-.11.55c-2.95,3.64-4.72,7.89-2.09,12.29,1.66,2.77,4.94,4.77,8.19,4.12-.4-1.56-.43-4.67,1.47-2.11,1.16,2.97,2.25,5.98,3.26,9.01.42.62,1.3.36,1.71-.19,1.25-2.31,2.58-4.58,4-6.81,1.21-2.38,2.3-2.94,3.27-1.67-.26.79-.61,1.55-1.05,2.28,14.29-.1,26.7,0,41.03-.18-.07-.83-.12-1.69-.14-2.58-18.01,0-34.4-.54-52.33-.91-3.59-.32-7.49-1.13-7.6-5.59-.08-3.08,1.92-4.49,4.6-5.29,24.26-4.27,48.98-8.42,73.33-12.26,4.93-1.23,8.41-2.98,10.29-7.94l5.23-21.09c.09-2.24-2.09-2.41-3.03-.71-1.71,5.88-3.19,11.84-4.44,17.88-1.48,4.59-3.18,7.11-7.98,8.46-22.91,3.72-45.86,7.29-68.85,10.7-2.96.2-5.28-.28-6.56-3.25-3.97-15.29-7.84-30.62-11.62-45.99l.33-.33c.06-.43.44-.74,1.12-.91l.53-.43,4.39,16.87,4.75,18.87,3.04,11.45c.41,1.55,2.56,1.69,3.86,1.49l13.58-2.11,21.89-3.53,32.42-5.08c3.55-.56,5.89-3.38,6.7-6.85l3.81-16.38c.33-1.42.81-2.68,2-3.58,1.09-.82,2.7-1.39,3.97-.58,1.78,1.13,2.57,3.42,2.1,5.52l-3.95,17.6c-.84,3.72-2.58,6.79-5.53,9.2-1.54,1.26-3.19,2.29-5.2,2.73l-5.06,1.09-24.44,3.87-14.26,2.25-25.04,3.91-5.96.8c-1.7.23-3.29,1.23-3.5,3.08-.16,1.43.9,2.71,2.26,3.17,1.24.42,2.48.48,3.84.49l20.02.2,13.92.07,28.53.17h7.37c1.04,0,2.16.52,2.79,1.39,1.31,1.78.68,4.43-1.23,5.52-.85.48-1.79.43-2.81.47,1.94,5.08.49,10.68-3.79,13.98-3.59,2.77-8.23,3.06-12.09.73-1.17-.71-2.15-1.46-2.99-2.59-2.45-3.29-3.04-7.57-1.53-11.47l-8.94.16-25.45-.1c2.61,6.84-1.71,14.13-8.67,15.54-3.47.47-6.77-.71-9.22-3.01-3.44-3.24-4.56-8.67-2.37-13.16-2.32-.84-4.24-2.08-5.73-4.08-3.4-4.58-2.84-11.11,1.06-15.46l-3.92-15.57-6.31-25.03-5.33-21.45-1.08-3.54c-.25-.82-1.34-1.28-2.22-1.32l-8.7-.45c-1.8-.09-3.29-.93-3.91-2.38-.72-1.68-.43-3.5.89-4.7,1-.91,2.23-1.4,3.58-1.39l7.76.03c2.6.01,5.29.52,7.33,2.1,1.78,1.38,2.94,3.16,3.49,5.29l3.27,12.65c.35-.25.61-.55.81-.84Z"/>
                <g>
                  <path class="cls-85" d="M49.15,171.42c.39-.64.45-1.19.96-1.61.26,1.87-.72,3.67-2.4,4.39-1.48.63-3.08.3-4.17-.8-1.01-1.02-1.42-2.55-.84-4.01.62,1.15.65,2.51,1.63,3.28,1.51,1.2,3.83.36,4.82-1.25Z"/>
                  <path class="cls-12" d="M104.81,170.04c.07,2.4-1.4,4.13-3.6,4.18-1.1.02-2.24-.58-2.86-1.59-.73-1.17-.85-2.55-.52-3.8l.73,1.99c.34.91.95,1.61,1.69,1.83,2.17.66,3.2-.67,4.56-2.61Z"/>
                  <path class="cls-30" d="M101.81,178.01c4.09-1.26,6.22-3.12,6.84-7.52.76,1.87-.13,3.65-1.18,5.1-1.32,1.74-3.3,3.09-5.65,2.42Z"/>
                  <path class="cls-64" d="M93.32,170.6l-.46,1.88c-.9-2.18-.47-4.97,1.51-6.6l-1.05,4.72Z"/>
                  <path class="cls-89" d="M39.64,166.36c-.67,2.24-.92,4.26-1.08,6.56-1.05-2.17-.69-4.71.6-6.7.17-.3.55-.2.48.13Z"/>
                  <path class="cls-26" d="M48.36,178.41l2.62-2.13c.98-.8,1.37-1.88,2.15-2.96-.01,2.56-2.16,4.78-4.77,5.08Z"/>
                </g>
              </g>
              <g>
                <path class="cls-96" d="M25.03,92.25l.62,2.49,3.19,12.65,5.86,23.7,2.58,9.7c.3,1.15,1.15,1.92,2.08,2.49,1.39.84,2.7.85,4.28.62l24.12-3.61,11.14-1.76,12.54-1.99,20.86-3.32c4.05-.64,6.83-4.49,7.71-8.38l2.47-10.85,1.74-6.36c.21-.75.76-1.4,1.27-1.64.68-.33,1.49-.4,2.07.15.41.38.79,1.28.64,1.92l-5.23,21.12c-1.09,4.4-6.23,7.53-10.83,8.27l-18.49,2.94-37.9,6.35-16.54,2.9c-2,.35-3.83,1.63-4.31,3.6-.69,2.86,1.24,5.54,4.01,6.18,1.29.3,2.52.34,3.86.37l14.7.29,36.28.42,18.06-.48c.95-.03,1.94,0,2.57.79s.21,2.39-.82,2.65c-1.89.48-3.77.5-5.69.5.37-1.06.91-1.91.97-3.09.02-.32-.82-.15-1.07.22-1.97,2.78-3.55,5.71-5.1,8.75-.31.61-.82.92-1.45.86-.51-.05-.88-.5-1.06-1.08l-1.68-5.46-1.19-2.95c-.08-.21-.28-.31-.44-.26-.11.03-.33.21-.31.42l.33,2.44-16.79.23-22.03.09-5.32.15,1.33-2.58c.15-.29-.42-.48-.68-.44-.36.06-.45.18-.7.52-1.94,2.61-3.46,5.39-5.02,8.23-.29.54-.82.89-1.25.95-.53.07-1.14-.08-1.33-.62l-1.2-3.35c-.65-1.83-1.97-6.57-2.8-6.34-.22.06-.24.3-.22.51l.31,2.59-2.73.11c-4.19-.92-7.25-4.35-7.57-8.64-.21-2.83,1.11-5.34,2.72-7.55l.78-1.08-3.06-12.13-2.37-9.34-3.89-15.76-4.65-17.54-2.82-11.08c-.49-1.94-2.01-3.6-4.02-3.75l-9.75-.71c-.64-.05-1.18-.4-1.41-.76-.33-.52-.33-1.08-.11-1.63.34-.86,1.23-1.37,2.18-1.37l8.68-.06c3.47-.03,7.29,1.97,8.19,5.5l3.65,14.34Z"/>
                <g>
                  <path class="cls-44" d="M49.2,146.21l-4.13.5c2.24-.86,4.54-1.08,6.95-1.55l15.91-3.09,7.15-1.22,23.62-3.38c.96-.14,1.84-.32,2.64-.01l-26.75,4.5-7.47,1.29-10.66,1.81-7.27,1.15Z"/>
                  <path class="cls-90" d="M29.35,119.45l2.63,10.76c.47,1.9,1.33,3.69,1.29,5.66-2.18-5.42-3.51-10.72-4.8-16.24l-5.29-22.65-1.44-6.94c.38.28.49.73.61,1.2l3.63,14.39,3.36,13.81Z"/>
                  <path class="cls-13" d="M59.85,162.86c3.89-.86,7.96-.69,12.09-.96,4.21.02,8.27-.58,12.51.27-8.24.84-16.19.89-24.6.68Z"/>
                  <path class="cls-70" d="M119.95,131.44c-1.76,2.38-4.4,3.93-7.39,3.87l3.59-1.63c2.7-1.67,4.26-4.38,5.42-7.51.57,1.91-.48,3.71-1.63,5.27Z"/>
                  <path class="cls-28" d="M34.85,160.11c-.02.31-.54.28-.84.02-2.33-2-2.82-5.36-1.25-8.02.63-.99.98-2.23,2.25-2.74-2.62,3.39-3.14,7.18-.16,10.74Z"/>
                  <path class="cls-54" d="M13.68,75.68l-9.37-.53c-.2-.01-.37-.15-.38-.26-.08-.86,6.67-.21,9.3.24.28.05.58.16.44.55Z"/>
                  <path class="cls-95" d="M100.9,168.39c-.47-.31-.46-.74-.21-1.14.3-.51.82-.82,1.41-.49.38.22.7.9.39,1.38s-.98.67-1.59.26Z"/>
                  <path class="cls-6" d="M45.54,168.62c-.05-.42.53-1.27.94-1.28.52,0,.82.56.88.89.07.4-.17.93-.58,1.02-.46.1-1.17,0-1.24-.63Z"/>
                </g>
              </g>
            </g>
            <g>
              <line class="cls-60" x1="126.95" y1="104.57" x2="26.81" y2="97.69"/>
              <line class="cls-60" x1="32.46" y1="115.1" x2="121.74" y2="113.99"/>
              <line class="cls-60" x1="36.44" y1="129.15" x2="119.07" y2="124.45"/>
              <line class="cls-60" x1="43.88" y1="99.32" x2="50.36" y2="141"/>
              <line class="cls-60" x1="60.88" y1="100.03" x2="64.24" y2="139.63"/>
              <line class="cls-60" x1="77.85" y1="101.31" x2="78.89" y2="138.53"/>
              <line class="cls-60" x1="94.27" y1="102.33" x2="92.79" y2="134.25"/>
              <line class="cls-60" x1="107.86" y1="102.58" x2="106.01" y2="132.18"/>
            </g>
          </g>
          <g>
            <g>
              <path class="cls-56" d="M104.53,70.64c-.17,0-.34-.02-.51-.07-1.73-.49-2.87-1.83-3.88-3.02l-.21-.24c-.9-1.06-1.02-2.04-.34-2.91l.27-.35-.42-.73.6-.05v-.06c-.14-.61.12-1.63.96-1.95,1.23-.47,3.27-.97,4.85-.97,1.06,0,1.79.22,2.22.67,1.02,1.06.41,2.69-.08,3.99-.12.32-.23.62-.31.89l-.84,2.91c-.27.93-1.2,1.9-2.3,1.9Z"/>
              <path class="cls-50" d="M105.84,60.93c.78,0,1.43.13,1.76.48.95.98-.18,2.99-.54,4.25l-.84,2.91c-.2.69-.9,1.43-1.68,1.43-.11,0-.22-.01-.33-.05-1.65-.46-2.72-1.83-3.77-3.06-.56-.66-.9-1.36-.32-2.1l2.35,1.37c-.21-1.03-1.46-1.44-1.94-2.28,1-.08,1.94.08,2.95-.42-.96-.42-1.79-.3-2.8-.39-.08-.38.1-1.04.57-1.22,1.19-.45,3.14-.93,4.62-.93M105.84,59.64c-1.66,0-3.75.51-5.08,1.01-.87.33-1.34,1.2-1.41,2.02l-.99.07.72,1.25h0c-.61.8-1.04,2.08.37,3.73l.2.24c1.07,1.26,2.28,2.69,4.2,3.23.22.06.45.09.68.09,1.45,0,2.59-1.22,2.92-2.36l.84-2.91c.07-.23.18-.53.29-.84.52-1.4,1.24-3.31-.06-4.67-.56-.59-1.44-.87-2.69-.87h0Z"/>
            </g>
            <g>
              <path class="cls-41" d="M90.2,65.81c-1.66,0-2.31-.69-2.55-1.28-.6-1.43-.07-2.59.44-3.72.3-.66.62-1.35.71-2.11.14-1.09.51-1.97,1.13-2.62.38-.4.85-.61,1.38-.61,2.17,0,4.6,3.61,5.07,4.33.46.71.09,1.67-.32,2.12l.7.59-1.16.2.03.18c.07.48-.11,1.55-.86,1.86-1.24.51-3.09,1.05-4.57,1.05Z"/>
              <path class="cls-50" d="M91.32,56.11c1.49,0,3.49,2.43,4.53,4.04.26.41,0,1.07-.27,1.35-.89-.54-1.48-1.31-2.64-1.41.56.83,1.47,1.27,2.36,2.02-1.11.19-2.07-.03-3.19.42.96.48,1.84.37,2.9.45.04.27-.08,1.01-.47,1.17-1.19.49-2.95,1.01-4.33,1.01-.93,0-1.69-.24-1.96-.88-.82-1.93.93-3.31,1.2-5.5.1-.83.38-1.64.96-2.26.27-.29.58-.41.91-.41M91.32,54.83c-.71,0-1.35.28-1.86.82-.71.75-1.14,1.76-1.29,2.98-.08.67-.36,1.28-.66,1.93-.52,1.13-1.16,2.55-.45,4.24.32.76,1.13,1.67,3.14,1.67,1.57,0,3.52-.57,4.82-1.1.93-.38,1.23-1.4,1.27-2.1l1.95-.34-1.31-1.11c.37-.71.46-1.63,0-2.35-.7-1.09-3.17-4.63-5.61-4.63h0Z"/>
            </g>
            <g>
              <path class="cls-83" d="M98.23,65.9c-1.01,0-2.4-.6-2.88-1.48l-.06-.1-.02-.12c-.17-1.22.5-2.72,1.2-3.6l.14-.18.22-.05c.17-.04.37-.06.58-.06.92,0,2.24.43,2.87,1.14l.14.16.02.22c.08,1.03-.18,2.6-.95,3.61l-.06.08-.08.06c-.3.22-.68.33-1.14.33Z"/>
              <path class="cls-50" d="M97.41,60.95c.82,0,1.92.4,2.39.92.07.94-.18,2.33-.82,3.17-.19.14-.46.2-.75.2-.86,0-1.98-.53-2.31-1.14-.14-.99.44-2.32,1.06-3.11.13-.03.27-.04.43-.04M97.41,59.67c-.26,0-.5.03-.73.08l-.44.1-.28.35c-.8,1.01-1.52,2.67-1.33,4.08l.03.23.11.21c.61,1.14,2.24,1.82,3.45,1.82.59,0,1.11-.16,1.52-.46l.15-.11.11-.15c.87-1.15,1.17-2.86,1.07-4.05l-.03-.43-.29-.32c-.79-.89-2.29-1.36-3.36-1.36h0Z"/>
            </g>
          </g>
          <path class="cls-74" d="M75.66,14.95l-.85,1.31c-3.17,1.46-3.55-1.16-3.74-3.6l-.16-9.3c.16-4.33,4.49-4.14,4.96.09.39,3.53.19,7.96-.22,11.49Z"/>
          <g>
            <path class="cls-79" d="M85.01,18.08c-.64.81-1.31,1.27-2.19,1.27-.68,0-1.68-.37-2.15-1.1-.86-1.35-.53-3.16.21-4.58,1.13-2.18,2.85-6.27,3.46-8.56.18-.67.99-1.64,1.62-1.85,1.07-.34,2.22.13,2.87.77,2.19,2.12-.83,5.38-1.63,8.15-.29,1.02-.65,1.73-1.01,2.72l-1.16,3.19Z"/>
            <path class="cls-46" d="M85.42,15.73c-.39,1.04-.63,2.06-1.59,2.61-.8.46-1.78.26-2.39-.31s-.89-1.52-.54-2.43l3.63-9.36c.37-.94.58-1.84,1.53-2.39.55-.32,1.47-.18,2.02.17.45.28,1.24.92.98,1.66l-1.86,5.32-1.79,4.72Z"/>
          </g>
        </g>
      </g>
      <path class="cls-8" d="M87.65,105.39c-.39.14-.67.47-.94.46-.29-.01-.67-.15-.9-.39l-3.85-3.96-4.93-5.42c-.63-.69-1.16-1.29-1.57-2.15l14.29-4.57,19.99-6.41,7.95-2.52c.81-.26,1.66-.05,2.2.49l3.31,3.37,6.15,6.48-2.65.77-4.29,1.44-25.72,9.14-9.03,3.28Z"/>
      <path class="cls-36" d="M63.54,105.05l-11.11-3.2-5.93-2-19-6.24c.08-.4.39-.52.61-.62-.58-.42-.73.35-.96.42-.71.12-1.58-.3-2.29-.59l3.07-3.72c1.95-2.37,3.91-4.62,5.69-7.12.24-.33.91-.2,1.24-.12l11.94,3.16,8.76,2.36,14.41,3.77,3.69.68c-1.13,1.96-2.56,3.56-3.95,5.32l-4.22,5.37-1.94,2.55Z"/>
    </g>
  </g>
</svg>